%TF.GenerationSoftware,KiCad,Pcbnew,8.0.7*%
%TF.CreationDate,2025-02-18T11:51:06-06:00*%
%TF.ProjectId,GNW-MICROSDx1-ZELDA-V3.4,474e572d-4d49-4435-924f-534478312d5a,rev?*%
%TF.SameCoordinates,Original*%
%TF.FileFunction,Copper,L2,Bot*%
%TF.FilePolarity,Positive*%
%FSLAX46Y46*%
G04 Gerber Fmt 4.6, Leading zero omitted, Abs format (unit mm)*
G04 Created by KiCad (PCBNEW 8.0.7) date 2025-02-18 11:51:06*
%MOMM*%
%LPD*%
G01*
G04 APERTURE LIST*
%TA.AperFunction,CastellatedPad*%
%ADD10R,0.300000X1.200000*%
%TD*%
%TA.AperFunction,ViaPad*%
%ADD11C,0.600000*%
%TD*%
%TA.AperFunction,ViaPad*%
%ADD12C,0.500000*%
%TD*%
%TA.AperFunction,Conductor*%
%ADD13C,0.300000*%
%TD*%
%TA.AperFunction,Conductor*%
%ADD14C,0.200000*%
%TD*%
G04 APERTURE END LIST*
D10*
%TO.P,J2,2,Pin_2*%
%TO.N,EN*%
X166340659Y-100447906D03*
X166340659Y-100447906D03*
%TO.P,J2,7,Pin_7*%
%TO.N,N/C*%
X163840659Y-100447906D03*
X163840659Y-100447906D03*
%TO.P,J2,13,Pin_13*%
%TO.N,MOSI*%
X160840659Y-100447906D03*
X160840659Y-100447906D03*
%TO.P,J2,14,Pin_14*%
%TO.N,CLK*%
X160340659Y-100447906D03*
X160340659Y-100447906D03*
%TO.P,J2,15,Pin_15*%
%TO.N,MISO*%
X159840659Y-100447906D03*
X159840659Y-100447906D03*
%TO.P,J2,21,Pin_21*%
%TO.N,CS*%
X156840659Y-100447906D03*
X156840659Y-100447906D03*
%TO.P,J2,24,Pin_24*%
%TO.N,GND*%
X155340659Y-100447906D03*
X155340659Y-100447906D03*
%TD*%
D11*
%TO.N,4.2V*%
X166500000Y-90809250D03*
X160800000Y-89300000D03*
%TO.N,GND*%
X155346524Y-98450000D03*
D12*
%TO.N,CLK*%
X167349178Y-87200000D03*
X164599178Y-87200000D03*
%TO.N,MISO*%
X169549178Y-87200000D03*
X162100000Y-95400000D03*
%TD*%
D13*
%TO.N,4.2V*%
X164990750Y-89300000D02*
X160800000Y-89300000D01*
X166500000Y-90809250D02*
X164990750Y-89300000D01*
%TO.N,GND*%
X155338583Y-98466948D02*
X155339178Y-98467543D01*
X155350000Y-98450000D02*
X155400000Y-98500000D01*
X155346524Y-98450000D02*
X155350000Y-98450000D01*
X155339178Y-98467543D02*
X155339178Y-100700000D01*
D14*
%TO.N,CLK*%
X167349178Y-87200000D02*
X164599178Y-87200000D01*
%TO.N,MISO*%
X167100000Y-88500000D02*
X167100000Y-91300000D01*
X169500000Y-87700000D02*
X167900000Y-87700000D01*
X163000000Y-95400000D02*
X162100000Y-95400000D01*
X169549178Y-87650822D02*
X169500000Y-87700000D01*
X169549178Y-87200000D02*
X169549178Y-87650822D01*
X167900000Y-87700000D02*
X167100000Y-88500000D01*
X167100000Y-91300000D02*
X163000000Y-95400000D01*
%TD*%
%TA.AperFunction,Conductor*%
%TO.N,GND*%
G36*
X173622708Y-83780501D02*
G01*
X173626104Y-83780501D01*
X173626108Y-83780502D01*
X173650486Y-83780501D01*
X173685135Y-83794852D01*
X173699488Y-83829499D01*
X173699488Y-83856868D01*
X173699491Y-83856919D01*
X173700119Y-95260510D01*
X173685769Y-95295159D01*
X173651122Y-95309513D01*
X173651120Y-95309513D01*
X167931220Y-95309612D01*
X167931038Y-95309624D01*
X167912029Y-95309624D01*
X167912028Y-95309624D01*
X167912021Y-95309624D01*
X167912015Y-95309624D01*
X167912015Y-95309625D01*
X167738240Y-95340257D01*
X167738233Y-95340258D01*
X167572403Y-95400609D01*
X167572401Y-95400610D01*
X167419574Y-95488839D01*
X167284389Y-95602268D01*
X167170956Y-95737449D01*
X167082725Y-95890268D01*
X167082721Y-95890276D01*
X167022368Y-96056098D01*
X167022367Y-96056099D01*
X166991727Y-96229892D01*
X166991728Y-96318100D01*
X166991728Y-96318115D01*
X166990897Y-99239991D01*
X166990882Y-99240225D01*
X166990881Y-99258479D01*
X166976525Y-99293126D01*
X166941882Y-99307474D01*
X154815660Y-99307793D01*
X154781012Y-99293442D01*
X154766659Y-99258794D01*
X154766659Y-99258772D01*
X154768029Y-96079920D01*
X154768400Y-96073935D01*
X154768569Y-96072564D01*
X154768571Y-96072558D01*
X154768372Y-96047753D01*
X154782445Y-96012992D01*
X154816977Y-95998363D01*
X154817544Y-95998362D01*
X154842430Y-95998475D01*
X154842430Y-95998474D01*
X154843567Y-95998480D01*
X154847468Y-95998233D01*
X157378995Y-96000439D01*
X157379962Y-96000502D01*
X157382651Y-96000501D01*
X157382656Y-96000503D01*
X157428227Y-96000500D01*
X157428287Y-96000525D01*
X157448548Y-96000523D01*
X157448548Y-96000524D01*
X157474728Y-96000522D01*
X157513980Y-96000557D01*
X157513981Y-96000556D01*
X157516871Y-96000559D01*
X157517451Y-96000520D01*
X157536779Y-96000520D01*
X157536781Y-96000520D01*
X157710555Y-95969871D01*
X157710554Y-95969871D01*
X157710561Y-95969870D01*
X157765834Y-95949750D01*
X157876376Y-95909512D01*
X157876380Y-95909510D01*
X158029195Y-95821276D01*
X158029200Y-95821272D01*
X158037861Y-95814004D01*
X158164375Y-95707841D01*
X158277801Y-95572660D01*
X158366030Y-95419837D01*
X158426382Y-95254014D01*
X158457024Y-95080232D01*
X158457024Y-94992000D01*
X158457024Y-94926108D01*
X158457024Y-90553439D01*
X158458003Y-90545317D01*
X158457998Y-90545317D01*
X158458347Y-90542123D01*
X158457036Y-90482275D01*
X158457024Y-90481201D01*
X158457024Y-90421317D01*
X158456693Y-90418807D01*
X158455425Y-90409935D01*
X158454967Y-90388983D01*
X158420895Y-90217765D01*
X158357609Y-90055065D01*
X158267033Y-89905825D01*
X158151918Y-89774581D01*
X158015762Y-89665320D01*
X157862702Y-89581362D01*
X157697388Y-89525258D01*
X157697386Y-89525257D01*
X157697381Y-89525256D01*
X157524843Y-89498711D01*
X157524837Y-89498710D01*
X157443631Y-89500488D01*
X157442565Y-89500500D01*
X155941482Y-89500677D01*
X155906832Y-89486329D01*
X155892476Y-89451683D01*
X155892476Y-89451677D01*
X155892477Y-89299997D01*
X160294353Y-89299997D01*
X160294353Y-89300002D01*
X160314833Y-89442454D01*
X160319048Y-89451683D01*
X160374623Y-89573373D01*
X160374624Y-89573374D01*
X160374625Y-89573376D01*
X160468871Y-89682142D01*
X160468872Y-89682143D01*
X160589947Y-89759953D01*
X160666785Y-89782514D01*
X160728034Y-89800499D01*
X160728037Y-89800499D01*
X160728039Y-89800500D01*
X160728040Y-89800500D01*
X160871960Y-89800500D01*
X160871961Y-89800500D01*
X160871963Y-89800499D01*
X160871965Y-89800499D01*
X160894795Y-89793795D01*
X161010053Y-89759953D01*
X161131128Y-89682143D01*
X161143893Y-89667412D01*
X161177430Y-89650625D01*
X161180925Y-89650500D01*
X164825272Y-89650500D01*
X164859920Y-89664852D01*
X165981147Y-90786079D01*
X165995000Y-90813754D01*
X166014833Y-90951704D01*
X166046935Y-91021996D01*
X166074623Y-91082623D01*
X166074624Y-91082624D01*
X166074625Y-91082626D01*
X166168871Y-91191392D01*
X166168872Y-91191393D01*
X166289947Y-91269203D01*
X166366785Y-91291764D01*
X166428034Y-91309749D01*
X166428037Y-91309749D01*
X166428039Y-91309750D01*
X166428040Y-91309750D01*
X166546982Y-91309750D01*
X166581630Y-91324102D01*
X166595982Y-91358750D01*
X166581630Y-91393398D01*
X162889881Y-95085148D01*
X162855233Y-95099500D01*
X162458091Y-95099500D01*
X162423443Y-95085148D01*
X162421059Y-95082588D01*
X162398049Y-95056033D01*
X162289069Y-94985996D01*
X162289066Y-94985995D01*
X162164776Y-94949500D01*
X162164772Y-94949500D01*
X162035228Y-94949500D01*
X162035223Y-94949500D01*
X161910933Y-94985995D01*
X161910931Y-94985995D01*
X161910931Y-94985996D01*
X161889918Y-94999500D01*
X161801950Y-95056033D01*
X161717119Y-95153936D01*
X161717118Y-95153936D01*
X161663301Y-95271776D01*
X161644867Y-95399997D01*
X161644867Y-95400002D01*
X161663301Y-95528223D01*
X161717118Y-95646063D01*
X161764395Y-95700625D01*
X161801951Y-95743967D01*
X161910931Y-95814004D01*
X161980093Y-95834311D01*
X162035223Y-95850499D01*
X162035228Y-95850500D01*
X162164772Y-95850500D01*
X162164776Y-95850499D01*
X162185324Y-95844465D01*
X162289069Y-95814004D01*
X162398049Y-95743967D01*
X162421059Y-95717412D01*
X162454595Y-95700625D01*
X162458091Y-95700500D01*
X163039564Y-95700500D01*
X163066230Y-95693354D01*
X163115989Y-95680021D01*
X163184511Y-95640460D01*
X163240460Y-95584511D01*
X167340460Y-91484511D01*
X167380022Y-91415988D01*
X167400499Y-91339565D01*
X167400500Y-91339565D01*
X167400500Y-88644767D01*
X167414852Y-88610119D01*
X168010119Y-88014852D01*
X168044767Y-88000500D01*
X169539564Y-88000500D01*
X169566230Y-87993354D01*
X169615989Y-87980021D01*
X169684511Y-87940460D01*
X169740460Y-87884511D01*
X169789638Y-87835333D01*
X169800807Y-87815988D01*
X169829199Y-87766811D01*
X169849678Y-87690384D01*
X169849678Y-87559413D01*
X169861645Y-87527326D01*
X169932060Y-87446063D01*
X169985875Y-87328226D01*
X169985875Y-87328224D01*
X169985876Y-87328223D01*
X170004311Y-87200002D01*
X170004311Y-87199997D01*
X169985876Y-87071776D01*
X169967421Y-87031366D01*
X169932060Y-86953937D01*
X169847227Y-86856033D01*
X169738247Y-86785996D01*
X169738244Y-86785995D01*
X169613954Y-86749500D01*
X169613950Y-86749500D01*
X169484406Y-86749500D01*
X169484401Y-86749500D01*
X169360111Y-86785995D01*
X169251128Y-86856033D01*
X169166297Y-86953936D01*
X169166296Y-86953936D01*
X169112479Y-87071776D01*
X169094045Y-87199997D01*
X169094045Y-87200002D01*
X169112480Y-87328224D01*
X169112480Y-87328226D01*
X169113356Y-87330143D01*
X169113399Y-87331355D01*
X169113468Y-87331589D01*
X169113408Y-87331606D01*
X169114696Y-87367622D01*
X169089142Y-87395071D01*
X169068785Y-87399500D01*
X167860435Y-87399500D01*
X167838848Y-87405284D01*
X167801666Y-87400389D01*
X167778836Y-87370636D01*
X167781594Y-87337598D01*
X167785875Y-87328226D01*
X167785875Y-87328224D01*
X167785876Y-87328223D01*
X167804311Y-87200002D01*
X167804311Y-87199997D01*
X167785876Y-87071776D01*
X167767421Y-87031366D01*
X167732060Y-86953937D01*
X167647227Y-86856033D01*
X167538247Y-86785996D01*
X167538244Y-86785995D01*
X167413954Y-86749500D01*
X167413950Y-86749500D01*
X167284406Y-86749500D01*
X167284401Y-86749500D01*
X167160111Y-86785995D01*
X167051128Y-86856033D01*
X167028119Y-86882588D01*
X166994583Y-86899375D01*
X166991087Y-86899500D01*
X164957269Y-86899500D01*
X164922621Y-86885148D01*
X164920237Y-86882588D01*
X164897227Y-86856033D01*
X164788247Y-86785996D01*
X164788244Y-86785995D01*
X164663954Y-86749500D01*
X164663950Y-86749500D01*
X164534406Y-86749500D01*
X164534401Y-86749500D01*
X164410111Y-86785995D01*
X164301128Y-86856033D01*
X164216297Y-86953936D01*
X164216296Y-86953936D01*
X164162479Y-87071776D01*
X164144045Y-87199997D01*
X164144045Y-87200002D01*
X164162479Y-87328223D01*
X164216296Y-87446063D01*
X164263573Y-87500625D01*
X164301129Y-87543967D01*
X164410109Y-87614004D01*
X164479271Y-87634311D01*
X164534401Y-87650499D01*
X164534406Y-87650500D01*
X164663950Y-87650500D01*
X164663954Y-87650499D01*
X164684502Y-87644465D01*
X164788247Y-87614004D01*
X164897227Y-87543967D01*
X164920237Y-87517412D01*
X164953773Y-87500625D01*
X164957269Y-87500500D01*
X166991087Y-87500500D01*
X167025735Y-87514852D01*
X167028119Y-87517412D01*
X167036709Y-87527325D01*
X167051129Y-87543967D01*
X167160109Y-87614004D01*
X167229271Y-87634311D01*
X167284401Y-87650499D01*
X167284406Y-87650500D01*
X167406232Y-87650500D01*
X167440880Y-87664852D01*
X167455232Y-87699500D01*
X167440880Y-87734148D01*
X166915489Y-88259540D01*
X166859541Y-88315488D01*
X166859540Y-88315488D01*
X166819979Y-88384008D01*
X166819979Y-88384010D01*
X166799500Y-88460436D01*
X166799500Y-90317044D01*
X166785148Y-90351692D01*
X166750500Y-90366044D01*
X166724010Y-90358266D01*
X166710053Y-90349296D01*
X166571965Y-90308750D01*
X166571961Y-90308750D01*
X166515478Y-90308750D01*
X166480830Y-90294398D01*
X165205962Y-89019530D01*
X165126040Y-88973386D01*
X165126036Y-88973385D01*
X165036897Y-88949500D01*
X165036894Y-88949500D01*
X161180925Y-88949500D01*
X161146277Y-88935148D01*
X161143893Y-88932588D01*
X161131128Y-88917857D01*
X161010053Y-88840047D01*
X161010050Y-88840046D01*
X160871965Y-88799500D01*
X160871961Y-88799500D01*
X160728039Y-88799500D01*
X160728034Y-88799500D01*
X160589949Y-88840046D01*
X160468871Y-88917857D01*
X160374625Y-89026623D01*
X160374624Y-89026625D01*
X160314833Y-89157545D01*
X160294353Y-89299997D01*
X155892477Y-89299997D01*
X155892478Y-88917857D01*
X155892488Y-86363652D01*
X156753305Y-86363652D01*
X156753305Y-88442779D01*
X156773784Y-88519205D01*
X156773784Y-88519207D01*
X156813345Y-88587727D01*
X156869294Y-88643676D01*
X156937816Y-88683237D01*
X156973283Y-88692740D01*
X157014241Y-88703716D01*
X157014243Y-88703716D01*
X157093369Y-88703716D01*
X157120035Y-88696570D01*
X157169794Y-88683237D01*
X157238316Y-88643676D01*
X157294265Y-88587727D01*
X157333826Y-88519205D01*
X157353556Y-88445573D01*
X157354305Y-88442779D01*
X157354305Y-87730366D01*
X157368657Y-87695718D01*
X157403305Y-87681366D01*
X158154593Y-87681366D01*
X158189241Y-87695718D01*
X158203593Y-87730366D01*
X158203593Y-88445573D01*
X158224072Y-88521999D01*
X158224072Y-88522001D01*
X158262020Y-88587727D01*
X158263633Y-88590521D01*
X158319582Y-88646470D01*
X158369742Y-88675430D01*
X158383264Y-88683237D01*
X158388104Y-88686031D01*
X158423571Y-88695534D01*
X158464529Y-88706510D01*
X158464531Y-88706510D01*
X158543657Y-88706510D01*
X158570323Y-88699364D01*
X158620082Y-88686031D01*
X158624922Y-88683237D01*
X158629263Y-88680730D01*
X158688604Y-88646470D01*
X158744553Y-88590521D01*
X158784114Y-88521999D01*
X158804593Y-88445572D01*
X158804593Y-86616446D01*
X158903593Y-86616446D01*
X158903593Y-86995573D01*
X158924072Y-87071999D01*
X158924072Y-87072001D01*
X158963633Y-87140521D01*
X159019582Y-87196470D01*
X159088104Y-87236031D01*
X159123571Y-87245534D01*
X159164529Y-87256510D01*
X159164531Y-87256510D01*
X159243657Y-87256510D01*
X159270323Y-87249364D01*
X159320082Y-87236031D01*
X159388604Y-87196470D01*
X159444553Y-87140521D01*
X159484114Y-87071999D01*
X159504593Y-86995572D01*
X159504593Y-86800777D01*
X159518945Y-86766129D01*
X159564212Y-86720862D01*
X159598860Y-86706510D01*
X160109326Y-86706510D01*
X160143974Y-86720862D01*
X160339241Y-86916129D01*
X160353593Y-86950777D01*
X160353593Y-87861243D01*
X160339241Y-87895891D01*
X160143974Y-88091158D01*
X160109326Y-88105510D01*
X159598860Y-88105510D01*
X159564212Y-88091158D01*
X159553120Y-88080066D01*
X159538768Y-88045418D01*
X159553120Y-88010770D01*
X159575086Y-87998088D01*
X159581856Y-87996273D01*
X159620082Y-87986031D01*
X159688604Y-87946470D01*
X159744553Y-87890521D01*
X159784114Y-87821999D01*
X159804593Y-87745572D01*
X159804593Y-87666448D01*
X159804593Y-87666446D01*
X159790955Y-87615551D01*
X159784114Y-87590021D01*
X159784113Y-87590019D01*
X159784113Y-87590018D01*
X159757524Y-87543966D01*
X159744553Y-87521499D01*
X159688604Y-87465550D01*
X159620083Y-87425989D01*
X159543657Y-87405510D01*
X159543655Y-87405510D01*
X159243655Y-87405510D01*
X159164531Y-87405510D01*
X159164529Y-87405510D01*
X159088103Y-87425989D01*
X159088101Y-87425989D01*
X159019581Y-87465550D01*
X159019581Y-87465551D01*
X158963634Y-87521498D01*
X158963633Y-87521498D01*
X158924072Y-87590018D01*
X158924072Y-87590020D01*
X158903593Y-87666446D01*
X158903593Y-88195573D01*
X158920733Y-88259540D01*
X158924072Y-88271999D01*
X158934477Y-88290021D01*
X158963633Y-88340521D01*
X159213633Y-88590521D01*
X159269582Y-88646470D01*
X159319742Y-88675430D01*
X159333264Y-88683237D01*
X159338104Y-88686031D01*
X159373571Y-88695534D01*
X159414529Y-88706510D01*
X159414531Y-88706510D01*
X160293657Y-88706510D01*
X160320323Y-88699364D01*
X160370082Y-88686031D01*
X160374922Y-88683237D01*
X160379263Y-88680730D01*
X160438604Y-88646470D01*
X160494553Y-88590521D01*
X160894553Y-88190521D01*
X160931810Y-88125989D01*
X160934114Y-88121999D01*
X160954593Y-88045572D01*
X160954593Y-86766448D01*
X160954593Y-86766446D01*
X160938532Y-86706510D01*
X160934114Y-86690021D01*
X160934113Y-86690019D01*
X160934113Y-86690018D01*
X160894552Y-86621498D01*
X160889500Y-86616446D01*
X161053593Y-86616446D01*
X161053593Y-86995573D01*
X161074072Y-87071999D01*
X161074072Y-87072001D01*
X161113633Y-87140521D01*
X161169582Y-87196470D01*
X161238104Y-87236031D01*
X161273571Y-87245534D01*
X161314529Y-87256510D01*
X161314531Y-87256510D01*
X161393657Y-87256510D01*
X161420323Y-87249364D01*
X161470082Y-87236031D01*
X161538604Y-87196470D01*
X161594553Y-87140521D01*
X161634114Y-87071999D01*
X161654593Y-86995572D01*
X161654593Y-86800777D01*
X161668945Y-86766129D01*
X161714212Y-86720862D01*
X161748860Y-86706510D01*
X162259326Y-86706510D01*
X162293974Y-86720862D01*
X162489241Y-86916129D01*
X162503593Y-86950777D01*
X162503593Y-87861243D01*
X162489241Y-87895891D01*
X162293974Y-88091158D01*
X162259326Y-88105510D01*
X161748860Y-88105510D01*
X161714212Y-88091158D01*
X161668945Y-88045891D01*
X161654593Y-88011243D01*
X161654593Y-87816446D01*
X161641293Y-87766813D01*
X161634114Y-87740021D01*
X161634113Y-87740019D01*
X161634113Y-87740018D01*
X161605456Y-87690384D01*
X161594553Y-87671499D01*
X161538604Y-87615550D01*
X161535926Y-87614004D01*
X161470083Y-87575989D01*
X161393657Y-87555510D01*
X161393655Y-87555510D01*
X161314531Y-87555510D01*
X161314529Y-87555510D01*
X161238103Y-87575989D01*
X161238101Y-87575989D01*
X161169581Y-87615550D01*
X161169581Y-87615551D01*
X161113634Y-87671498D01*
X161113633Y-87671498D01*
X161074072Y-87740018D01*
X161074072Y-87740020D01*
X161053593Y-87816446D01*
X161053593Y-88195573D01*
X161070733Y-88259540D01*
X161074072Y-88271999D01*
X161084477Y-88290021D01*
X161113633Y-88340521D01*
X161363633Y-88590521D01*
X161419582Y-88646470D01*
X161469742Y-88675430D01*
X161483264Y-88683237D01*
X161488104Y-88686031D01*
X161523571Y-88695534D01*
X161564529Y-88706510D01*
X161564531Y-88706510D01*
X162443657Y-88706510D01*
X162470323Y-88699364D01*
X162520082Y-88686031D01*
X162524922Y-88683237D01*
X162529263Y-88680730D01*
X162588604Y-88646470D01*
X162644553Y-88590521D01*
X163044553Y-88190521D01*
X163081810Y-88125989D01*
X163084114Y-88121999D01*
X163104593Y-88045572D01*
X163104593Y-86766448D01*
X163104593Y-86766446D01*
X163088532Y-86706510D01*
X163084114Y-86690021D01*
X163084113Y-86690019D01*
X163084113Y-86690018D01*
X163044552Y-86621498D01*
X162988604Y-86565550D01*
X162588605Y-86165550D01*
X162583764Y-86162755D01*
X162583764Y-86162754D01*
X162520083Y-86125989D01*
X162443657Y-86105510D01*
X162443655Y-86105510D01*
X161564531Y-86105510D01*
X161564529Y-86105510D01*
X161488103Y-86125989D01*
X161488101Y-86125989D01*
X161424421Y-86162754D01*
X161424422Y-86162755D01*
X161419580Y-86165550D01*
X161169582Y-86415550D01*
X161113634Y-86471498D01*
X161113633Y-86471498D01*
X161074072Y-86540018D01*
X161074072Y-86540020D01*
X161053593Y-86616446D01*
X160889500Y-86616446D01*
X160838604Y-86565550D01*
X160438605Y-86165550D01*
X160433764Y-86162755D01*
X160433764Y-86162754D01*
X160370083Y-86125989D01*
X160293657Y-86105510D01*
X160293655Y-86105510D01*
X159414531Y-86105510D01*
X159414529Y-86105510D01*
X159338103Y-86125989D01*
X159338101Y-86125989D01*
X159274421Y-86162754D01*
X159274422Y-86162755D01*
X159269580Y-86165550D01*
X159019582Y-86415550D01*
X158963634Y-86471498D01*
X158963633Y-86471498D01*
X158924072Y-86540018D01*
X158924072Y-86540020D01*
X158903593Y-86616446D01*
X158804593Y-86616446D01*
X158804593Y-86366448D01*
X158804593Y-86366446D01*
X158795936Y-86334144D01*
X158784114Y-86290021D01*
X158784113Y-86290019D01*
X158784113Y-86290018D01*
X158744552Y-86221498D01*
X158688604Y-86165550D01*
X158620083Y-86125989D01*
X158543657Y-86105510D01*
X158543655Y-86105510D01*
X158464531Y-86105510D01*
X158464529Y-86105510D01*
X158388103Y-86125989D01*
X158388101Y-86125989D01*
X158319581Y-86165550D01*
X158319581Y-86165551D01*
X158263634Y-86221498D01*
X158263633Y-86221498D01*
X158224072Y-86290018D01*
X158224072Y-86290020D01*
X158203593Y-86366446D01*
X158203593Y-87031366D01*
X158189241Y-87066014D01*
X158154593Y-87080366D01*
X157403305Y-87080366D01*
X157368657Y-87066014D01*
X157354305Y-87031366D01*
X157354305Y-86363652D01*
X157345648Y-86331350D01*
X157333826Y-86287227D01*
X157333825Y-86287225D01*
X157333825Y-86287224D01*
X157295878Y-86221499D01*
X157294265Y-86218705D01*
X157238316Y-86162756D01*
X157238313Y-86162754D01*
X157169795Y-86123195D01*
X157093369Y-86102716D01*
X157093367Y-86102716D01*
X157014243Y-86102716D01*
X157014241Y-86102716D01*
X156937815Y-86123195D01*
X156937813Y-86123195D01*
X156869293Y-86162756D01*
X156813346Y-86218704D01*
X156813345Y-86218704D01*
X156773784Y-86287224D01*
X156773784Y-86287226D01*
X156753305Y-86363652D01*
X155892488Y-86363652D01*
X155892498Y-83859596D01*
X155892500Y-83859592D01*
X155892500Y-83829500D01*
X155906852Y-83794852D01*
X155941500Y-83780500D01*
X155965892Y-83780500D01*
X173622680Y-83780500D01*
X173622708Y-83780501D01*
G37*
%TD.AperFunction*%
%TD*%
M02*
