%TF.GenerationSoftware,KiCad,Pcbnew,8.0.7*%
%TF.CreationDate,2025-02-18T11:51:06-06:00*%
%TF.ProjectId,GNW-MICROSDx1-ZELDA-V3.4,474e572d-4d49-4435-924f-534478312d5a,rev?*%
%TF.SameCoordinates,Original*%
%TF.FileFunction,Profile,NP*%
%FSLAX46Y46*%
G04 Gerber Fmt 4.6, Leading zero omitted, Abs format (unit mm)*
G04 Created by KiCad (PCBNEW 8.0.7) date 2025-02-18 11:51:06*
%MOMM*%
%LPD*%
G01*
G04 APERTURE LIST*
%TA.AperFunction,Profile*%
%ADD10C,0.100000*%
%TD*%
G04 APERTURE END LIST*
D10*
X154979697Y-100665966D02*
G75*
G02*
X155168533Y-100853217I703J-188134D01*
G01*
X166698356Y-100001403D02*
X166699048Y-100665786D01*
X167491379Y-99309130D02*
X167492228Y-96318112D01*
X166510275Y-100853037D02*
G75*
G02*
X166699048Y-100665774I188125J-863D01*
G01*
X159669799Y-100840960D02*
X159669279Y-101008662D01*
X157956524Y-94992000D02*
G75*
G02*
X157448524Y-95500024I-508024J0D01*
G01*
X157448524Y-90001000D02*
X155391974Y-90001242D01*
X157448524Y-90001000D02*
G75*
G02*
X157956500Y-90487211I10876J-497100D01*
G01*
X161009277Y-100840836D02*
G75*
G02*
X161198050Y-100653575I188223J-964D01*
G01*
X154794881Y-99813629D02*
G75*
G02*
X154979270Y-99997371I-81J-184471D01*
G01*
X167492228Y-96318112D02*
G75*
G02*
X168000228Y-95810128I507972J12D01*
G01*
X156837080Y-100856370D02*
X156678807Y-100856370D01*
X154267560Y-96010667D02*
G75*
G02*
X154778812Y-95497649I508940J4067D01*
G01*
X157011146Y-100852932D02*
X157011146Y-101007206D01*
X163668869Y-101007267D02*
X163692073Y-101007270D01*
X159481638Y-100653530D02*
G75*
G02*
X159670468Y-100840781I562J-188270D01*
G01*
X156837080Y-100856370D02*
G75*
G02*
X156987930Y-101007209I-280J-151130D01*
G01*
X174200621Y-95302013D02*
G75*
G02*
X173692621Y-95810021I-508021J13D01*
G01*
X163692073Y-101007270D02*
G75*
G02*
X163842935Y-100856373I151227J-330D01*
G01*
X166510275Y-100853037D02*
X166510275Y-101007311D01*
X156489990Y-100668765D02*
G75*
G02*
X156678735Y-100856370I610J-188135D01*
G01*
X173691988Y-83280000D02*
G75*
G02*
X174200000Y-83788000I12J-508000D01*
G01*
X174200621Y-95302013D02*
X174199988Y-83788000D01*
X161383623Y-99817992D02*
X163294957Y-99817139D01*
X173691988Y-83280000D02*
X155900000Y-83280000D01*
X157011146Y-101007206D02*
X156987942Y-101007209D01*
X154266138Y-99308208D02*
X154267560Y-96010667D01*
X155689626Y-100669093D02*
X156489990Y-100668758D01*
X159692483Y-101008665D02*
G75*
G02*
X159843345Y-100857783I151217J-335D01*
G01*
X160835731Y-100857702D02*
X159843345Y-100857826D01*
X155342536Y-100856655D02*
X155500853Y-100856655D01*
X160835731Y-100857702D02*
G75*
G02*
X160986598Y-101008541I-331J-151198D01*
G01*
X155392000Y-83788000D02*
G75*
G02*
X155900000Y-83280000I508000J0D01*
G01*
X155168470Y-100853217D02*
X155168470Y-101007491D01*
X154714915Y-99813472D02*
G75*
G02*
X154266080Y-99308208I59985J505272D01*
G01*
X164190025Y-100668868D02*
X165989119Y-100668868D01*
X163668869Y-100852993D02*
X163668869Y-101007267D01*
X165989119Y-100668869D02*
G75*
G02*
X166177930Y-100856163I581J-188231D01*
G01*
X155168470Y-101007491D02*
X155191674Y-101007494D01*
X163479363Y-100003129D02*
X163480096Y-100665742D01*
X166882763Y-99817661D02*
X167004249Y-99816702D01*
X157199545Y-100000593D02*
X157199919Y-100665681D01*
X159298920Y-99818371D02*
G75*
G02*
X159481928Y-100000824I-120J-183129D01*
G01*
X155392000Y-83788000D02*
X155391974Y-90001242D01*
X166510275Y-101007311D02*
X166487071Y-101007314D01*
X161009797Y-101008538D02*
X160986593Y-101008541D01*
X163294956Y-99819387D02*
G75*
G02*
X163479412Y-100003129I144J-184313D01*
G01*
X157199545Y-100000593D02*
G75*
G02*
X157383952Y-99816844I184455J-707D01*
G01*
X157383952Y-99816851D02*
X159298920Y-99818371D01*
X166336209Y-100856475D02*
X166177892Y-100856475D01*
X166336209Y-100856475D02*
G75*
G02*
X166487125Y-101007314I-309J-151225D01*
G01*
X159482009Y-100000824D02*
X159481638Y-100653530D01*
X163480096Y-100665742D02*
G75*
G02*
X163668857Y-100852993I604J-188158D01*
G01*
X157011146Y-100852932D02*
G75*
G02*
X157199919Y-100665645I188154J-868D01*
G01*
X167491379Y-99309130D02*
G75*
G02*
X167004247Y-99816651I-507979J30D01*
G01*
X157448524Y-95500000D02*
X154785704Y-95497681D01*
X166698356Y-100001403D02*
G75*
G02*
X166882763Y-99817655I184344J-597D01*
G01*
X155191674Y-101007494D02*
G75*
G02*
X155342536Y-100856656I151134J-296D01*
G01*
X168000228Y-95810112D02*
X173692621Y-95810013D01*
X163842935Y-100856431D02*
X164001252Y-100856431D01*
X157956524Y-90487210D02*
X157956524Y-94992000D01*
X154979288Y-99997371D02*
X154979697Y-100665966D01*
X161009277Y-100840836D02*
X161009797Y-101008538D01*
X155500854Y-100856343D02*
G75*
G02*
X155689626Y-100669053I188146J-857D01*
G01*
X164001253Y-100856119D02*
G75*
G02*
X164190025Y-100668852I188147J-881D01*
G01*
X161199216Y-100001734D02*
G75*
G02*
X161383623Y-99818015I184284J-566D01*
G01*
X161199216Y-100001734D02*
X161198050Y-100653585D01*
X154714915Y-99813472D02*
X154794881Y-99813629D01*
X159669279Y-101008662D02*
X159692483Y-101008665D01*
M02*
