M48
; DRILL file {KiCad 8.0.7} date 2025-02-18T11:51:02-0600
; FORMAT={-:-/ absolute / inch / decimal}
; #@! TF.CreationDate,2025-02-18T11:51:02-06:00
; #@! TF.GenerationSoftware,Kicad,Pcbnew,8.0.7
; #@! TF.FileFunction,Plated,1,2,PTH
FMAT,2
INCH
; #@! TA.AperFunction,Plated,PTH,ComponentDrill
T1C0.0059
; #@! TA.AperFunction,Plated,PTH,ViaDrill
T2C0.0098
; #@! TA.AperFunction,Plated,PTH,ViaDrill
T3C0.0138
%
G90
G05
T1
X6.1158Y-3.9665
X6.1158Y-3.9665
X6.1748Y-3.9665
X6.1748Y-3.9665
X6.2929Y-3.9665
X6.2929Y-3.9665
X6.3126Y-3.9665
X6.3126Y-3.9665
X6.3323Y-3.9665
X6.3323Y-3.9665
X6.4504Y-3.9665
X6.4504Y-3.9665
X6.5488Y-3.9665
X6.5488Y-3.9665
T2
X6.3819Y-3.7559
X6.4803Y-3.4331
X6.5886Y-3.4331
X6.6752Y-3.4331
T3
X6.116Y-3.876
X6.3307Y-3.5157
X6.5551Y-3.5752
M30
