%TF.GenerationSoftware,KiCad,Pcbnew,9.0.2*%
%TF.CreationDate,2025-08-06T21:30:35+02:00*%
%TF.ProjectId,MicroSD_Zelda_FORO_JLC_FIX_V2 - NO_LOGO,4d696372-6f53-4445-9f5a-656c64615f46,rev?*%
%TF.SameCoordinates,Original*%
%TF.FileFunction,Profile,NP*%
%FSLAX46Y46*%
G04 Gerber Fmt 4.6, Leading zero omitted, Abs format (unit mm)*
G04 Created by KiCad (PCBNEW 9.0.2) date 2025-08-06 21:30:35*
%MOMM*%
%LPD*%
G01*
G04 APERTURE LIST*
%TA.AperFunction,Profile*%
%ADD10C,0.100000*%
%TD*%
G04 APERTURE END LIST*
D10*
X101650000Y-100660000D02*
X101650000Y-100335000D01*
X99700000Y-99490000D02*
G75*
G02*
X99400000Y-99190000I0J300000D01*
G01*
X106912414Y-92987020D02*
X107601165Y-93000000D01*
X104415544Y-96173672D02*
X106228859Y-96182222D01*
X111350000Y-100610000D02*
X111650000Y-100610000D01*
X112650000Y-95850000D02*
G75*
G02*
X113150000Y-95350000I500000J0D01*
G01*
X100150000Y-100660000D02*
X100150000Y-99790000D01*
X99074871Y-94961923D02*
G75*
G02*
X99394278Y-95269960I11129J-308077D01*
G01*
X99852100Y-84882132D02*
X100997868Y-84879684D01*
X103090000Y-89650000D02*
G75*
G02*
X102790000Y-89950000I-300000J0D01*
G01*
X99850000Y-99490000D02*
G75*
G02*
X100150000Y-99790000I0J-300000D01*
G01*
X98570000Y-90250000D02*
G75*
G02*
X98870000Y-89950000I300000J0D01*
G01*
X106350000Y-100660000D02*
X106150000Y-100610000D01*
X112650000Y-99190000D02*
G75*
G02*
X112350000Y-99490000I-300000J0D01*
G01*
X104650000Y-100660000D02*
X104650000Y-99790000D01*
X120700000Y-71000000D02*
G75*
G02*
X121200000Y-71500000I0J-500000D01*
G01*
X98560000Y-94660000D02*
X98570000Y-90250000D01*
X101850000Y-100610000D02*
X102150000Y-100610000D01*
X102650000Y-99490000D02*
X104350000Y-99490000D01*
X99700000Y-99490000D02*
X99850000Y-99490000D01*
X111850000Y-99790000D02*
G75*
G02*
X112150000Y-99490000I300000J0D01*
G01*
X99394254Y-95266235D02*
X99400000Y-99190000D01*
X121200000Y-76500000D02*
G75*
G02*
X120700000Y-77000000I-500000J0D01*
G01*
X125640000Y-93736447D02*
G75*
G02*
X125140000Y-94236400I-500000J47D01*
G01*
X107901165Y-92700000D02*
X107957556Y-88471679D01*
X107901165Y-92700000D02*
G75*
G02*
X107601165Y-92999965I-299965J0D01*
G01*
X98875876Y-94959960D02*
G75*
G02*
X98560036Y-94660000I-15576J299860D01*
G01*
X104850000Y-100610000D02*
X104650000Y-100660000D01*
X102350000Y-100660000D02*
X102350000Y-99790000D01*
X97280000Y-71520000D02*
G75*
G02*
X97780000Y-71020000I500000J0D01*
G01*
X97780000Y-71020000D02*
X120700000Y-71000000D01*
X125146447Y-88893553D02*
G75*
G02*
X125646447Y-89393553I-47J-500047D01*
G01*
X107850000Y-99490000D02*
G75*
G02*
X108150000Y-99790000I0J-300000D01*
G01*
X106350000Y-100660000D02*
X106350000Y-99790000D01*
X120700000Y-77000000D02*
X119850000Y-77000000D01*
X106612020Y-93287414D02*
G75*
G02*
X106912414Y-92987020I300380J14D01*
G01*
X97780000Y-77020000D02*
X100800000Y-77000000D01*
X104762020Y-88442414D02*
G75*
G02*
X105062414Y-88142020I300380J14D01*
G01*
X112650000Y-99190000D02*
X112650000Y-95850000D01*
X104099684Y-95868066D02*
X104109920Y-92010019D01*
X102350000Y-99790000D02*
G75*
G02*
X102650000Y-99490000I300000J0D01*
G01*
X99552132Y-85182132D02*
G75*
G02*
X99852132Y-84882132I299968J32D01*
G01*
X112150000Y-99490000D02*
X112350000Y-99490000D01*
X97780000Y-77020000D02*
G75*
G02*
X97280000Y-76520000I0J500000D01*
G01*
X121200000Y-71500000D02*
X121200000Y-76500000D01*
X106350000Y-99790000D02*
G75*
G02*
X106650000Y-99490000I300000J0D01*
G01*
X99872377Y-88022138D02*
G75*
G02*
X99556558Y-87722178I-15577J299838D01*
G01*
X102350000Y-100660000D02*
X102150000Y-100610000D01*
X102770000Y-88030000D02*
G75*
G02*
X103089300Y-88338037I11100J-308000D01*
G01*
X103090000Y-88340000D02*
X103090000Y-89650000D01*
X113150000Y-95350000D02*
X118850000Y-95350000D01*
X119350000Y-94850000D02*
X119353554Y-94743553D01*
X100800000Y-77000000D02*
G75*
G02*
X101300000Y-77500000I0J-500000D01*
G01*
X108350000Y-100610000D02*
X108650000Y-100610000D01*
X119853553Y-88893553D02*
G75*
G02*
X119353647Y-88393553I47J499953D01*
G01*
X111850000Y-100660000D02*
X111650000Y-100610000D01*
X100850000Y-100660000D02*
X100850000Y-100335000D01*
X108850000Y-100330000D02*
X111150000Y-100330000D01*
X106650000Y-99490000D02*
X107850000Y-99490000D01*
X104697640Y-91410000D02*
X104762020Y-88442414D01*
X105062414Y-88142020D02*
X107638173Y-88159323D01*
X119353553Y-88393553D02*
X119350000Y-82850000D01*
X98875876Y-94959959D02*
X99074871Y-94961923D01*
X108850000Y-100660000D02*
X108850000Y-100330000D01*
X101297868Y-84577868D02*
G75*
G02*
X100997868Y-84877868I-299968J-32D01*
G01*
X125146447Y-88893553D02*
X119853600Y-88893553D01*
X111850000Y-100660000D02*
X111850000Y-99790000D01*
X125640000Y-93736447D02*
X125646447Y-89393553D01*
X108350000Y-100610000D02*
X108150000Y-100660000D01*
X104350000Y-99490000D02*
G75*
G02*
X104650000Y-99790000I0J-300000D01*
G01*
X108150000Y-100660000D02*
X108150000Y-99790000D01*
X104697640Y-91410000D02*
G75*
G02*
X104407548Y-91709585I-299740J0D01*
G01*
X100350000Y-100610000D02*
X100650000Y-100610000D01*
X98870000Y-89950000D02*
X102787868Y-89950000D01*
X111150000Y-100660000D02*
X111150000Y-100330000D01*
X100650000Y-100610000D02*
X100850000Y-100660000D01*
X119353553Y-94743553D02*
G75*
G02*
X119853553Y-94243553I500047J-47D01*
G01*
X101300000Y-84577868D02*
X101300000Y-77500000D01*
X99872377Y-88030000D02*
X102770000Y-88030000D01*
X104109615Y-92010019D02*
G75*
G02*
X104410009Y-91709615I300385J19D01*
G01*
X100150000Y-100660000D02*
X100350000Y-100610000D01*
X106537859Y-95882376D02*
X106612020Y-93287414D01*
X99552133Y-85182132D02*
X99556559Y-87722178D01*
X101650000Y-100660000D02*
X101850000Y-100610000D01*
X107638173Y-88159323D02*
G75*
G02*
X107957578Y-88467360I11127J-308077D01*
G01*
X108650000Y-100610000D02*
X108850000Y-100660000D01*
X119350000Y-77500000D02*
G75*
G02*
X119850000Y-77000000I500000J0D01*
G01*
X104415560Y-96173672D02*
G75*
G02*
X104099725Y-95873712I-15560J299872D01*
G01*
X119350000Y-94850000D02*
G75*
G02*
X118850000Y-95350000I-500000J0D01*
G01*
X119350000Y-82850000D02*
X119350000Y-77500000D01*
X111150000Y-100660000D02*
X111350000Y-100610000D01*
X100850000Y-100335000D02*
X101650000Y-100335000D01*
X97280000Y-71520000D02*
X97280000Y-76520000D01*
X106537859Y-95882376D02*
G75*
G02*
X106237859Y-96182359I-299959J-24D01*
G01*
X119853553Y-94236447D02*
X125140000Y-94236447D01*
X104850000Y-100610000D02*
X106150000Y-100610000D01*
M02*
