%TF.GenerationSoftware,KiCad,Pcbnew,9.0.2*%
%TF.CreationDate,2025-08-06T21:30:35+02:00*%
%TF.ProjectId,MicroSD_Zelda_FORO_JLC_FIX_V2 - NO_LOGO,4d696372-6f53-4445-9f5a-656c64615f46,rev?*%
%TF.SameCoordinates,Original*%
%TF.FileFunction,Legend,Top*%
%TF.FilePolarity,Positive*%
%FSLAX46Y46*%
G04 Gerber Fmt 4.6, Leading zero omitted, Abs format (unit mm)*
G04 Created by KiCad (PCBNEW 9.0.2) date 2025-08-06 21:30:35*
%MOMM*%
%LPD*%
G01*
G04 APERTURE LIST*
%ADD10C,0.180000*%
%ADD11C,0.110000*%
%ADD12C,0.160000*%
%ADD13C,0.254000*%
%ADD14C,0.120000*%
%ADD15C,0.200000*%
%ADD16C,0.010000*%
G04 APERTURE END LIST*
D10*
X101772856Y-87244140D02*
X102458571Y-87244140D01*
X102115713Y-87586997D02*
X102115713Y-86901282D01*
X103272857Y-86986997D02*
X103272857Y-87586997D01*
X103058571Y-86644140D02*
X102844285Y-87286997D01*
X102844285Y-87286997D02*
X103401428Y-87286997D01*
X103615714Y-86686997D02*
X103915714Y-87586997D01*
X103915714Y-87586997D02*
X104215714Y-86686997D01*
D11*
X104502379Y-82605986D02*
X104502379Y-82055986D01*
X104502379Y-82055986D02*
X104685712Y-82448843D01*
X104685712Y-82448843D02*
X104869046Y-82055986D01*
X104869046Y-82055986D02*
X104869046Y-82605986D01*
X105130950Y-82605986D02*
X105130950Y-82239319D01*
X105130950Y-82055986D02*
X105104759Y-82082176D01*
X105104759Y-82082176D02*
X105130950Y-82108367D01*
X105130950Y-82108367D02*
X105157140Y-82082176D01*
X105157140Y-82082176D02*
X105130950Y-82055986D01*
X105130950Y-82055986D02*
X105130950Y-82108367D01*
X105628569Y-82579796D02*
X105576188Y-82605986D01*
X105576188Y-82605986D02*
X105471426Y-82605986D01*
X105471426Y-82605986D02*
X105419045Y-82579796D01*
X105419045Y-82579796D02*
X105392855Y-82553605D01*
X105392855Y-82553605D02*
X105366664Y-82501224D01*
X105366664Y-82501224D02*
X105366664Y-82344081D01*
X105366664Y-82344081D02*
X105392855Y-82291700D01*
X105392855Y-82291700D02*
X105419045Y-82265510D01*
X105419045Y-82265510D02*
X105471426Y-82239319D01*
X105471426Y-82239319D02*
X105576188Y-82239319D01*
X105576188Y-82239319D02*
X105628569Y-82265510D01*
X105864284Y-82605986D02*
X105864284Y-82239319D01*
X105864284Y-82344081D02*
X105890474Y-82291700D01*
X105890474Y-82291700D02*
X105916665Y-82265510D01*
X105916665Y-82265510D02*
X105969046Y-82239319D01*
X105969046Y-82239319D02*
X106021427Y-82239319D01*
X106283331Y-82605986D02*
X106230950Y-82579796D01*
X106230950Y-82579796D02*
X106204760Y-82553605D01*
X106204760Y-82553605D02*
X106178569Y-82501224D01*
X106178569Y-82501224D02*
X106178569Y-82344081D01*
X106178569Y-82344081D02*
X106204760Y-82291700D01*
X106204760Y-82291700D02*
X106230950Y-82265510D01*
X106230950Y-82265510D02*
X106283331Y-82239319D01*
X106283331Y-82239319D02*
X106361903Y-82239319D01*
X106361903Y-82239319D02*
X106414284Y-82265510D01*
X106414284Y-82265510D02*
X106440474Y-82291700D01*
X106440474Y-82291700D02*
X106466665Y-82344081D01*
X106466665Y-82344081D02*
X106466665Y-82501224D01*
X106466665Y-82501224D02*
X106440474Y-82553605D01*
X106440474Y-82553605D02*
X106414284Y-82579796D01*
X106414284Y-82579796D02*
X106361903Y-82605986D01*
X106361903Y-82605986D02*
X106283331Y-82605986D01*
X107095236Y-82579796D02*
X107173808Y-82605986D01*
X107173808Y-82605986D02*
X107304760Y-82605986D01*
X107304760Y-82605986D02*
X107357141Y-82579796D01*
X107357141Y-82579796D02*
X107383332Y-82553605D01*
X107383332Y-82553605D02*
X107409522Y-82501224D01*
X107409522Y-82501224D02*
X107409522Y-82448843D01*
X107409522Y-82448843D02*
X107383332Y-82396462D01*
X107383332Y-82396462D02*
X107357141Y-82370272D01*
X107357141Y-82370272D02*
X107304760Y-82344081D01*
X107304760Y-82344081D02*
X107199998Y-82317891D01*
X107199998Y-82317891D02*
X107147617Y-82291700D01*
X107147617Y-82291700D02*
X107121427Y-82265510D01*
X107121427Y-82265510D02*
X107095236Y-82213129D01*
X107095236Y-82213129D02*
X107095236Y-82160748D01*
X107095236Y-82160748D02*
X107121427Y-82108367D01*
X107121427Y-82108367D02*
X107147617Y-82082176D01*
X107147617Y-82082176D02*
X107199998Y-82055986D01*
X107199998Y-82055986D02*
X107330951Y-82055986D01*
X107330951Y-82055986D02*
X107409522Y-82082176D01*
X107645237Y-82605986D02*
X107645237Y-82055986D01*
X107645237Y-82055986D02*
X107776189Y-82055986D01*
X107776189Y-82055986D02*
X107854761Y-82082176D01*
X107854761Y-82082176D02*
X107907142Y-82134557D01*
X107907142Y-82134557D02*
X107933332Y-82186938D01*
X107933332Y-82186938D02*
X107959523Y-82291700D01*
X107959523Y-82291700D02*
X107959523Y-82370272D01*
X107959523Y-82370272D02*
X107933332Y-82475034D01*
X107933332Y-82475034D02*
X107907142Y-82527415D01*
X107907142Y-82527415D02*
X107854761Y-82579796D01*
X107854761Y-82579796D02*
X107776189Y-82605986D01*
X107776189Y-82605986D02*
X107645237Y-82605986D01*
X108849999Y-82579796D02*
X108797618Y-82605986D01*
X108797618Y-82605986D02*
X108692856Y-82605986D01*
X108692856Y-82605986D02*
X108640475Y-82579796D01*
X108640475Y-82579796D02*
X108614285Y-82553605D01*
X108614285Y-82553605D02*
X108588094Y-82501224D01*
X108588094Y-82501224D02*
X108588094Y-82344081D01*
X108588094Y-82344081D02*
X108614285Y-82291700D01*
X108614285Y-82291700D02*
X108640475Y-82265510D01*
X108640475Y-82265510D02*
X108692856Y-82239319D01*
X108692856Y-82239319D02*
X108797618Y-82239319D01*
X108797618Y-82239319D02*
X108849999Y-82265510D01*
X109321428Y-82605986D02*
X109321428Y-82317891D01*
X109321428Y-82317891D02*
X109295238Y-82265510D01*
X109295238Y-82265510D02*
X109242857Y-82239319D01*
X109242857Y-82239319D02*
X109138095Y-82239319D01*
X109138095Y-82239319D02*
X109085714Y-82265510D01*
X109321428Y-82579796D02*
X109269047Y-82605986D01*
X109269047Y-82605986D02*
X109138095Y-82605986D01*
X109138095Y-82605986D02*
X109085714Y-82579796D01*
X109085714Y-82579796D02*
X109059523Y-82527415D01*
X109059523Y-82527415D02*
X109059523Y-82475034D01*
X109059523Y-82475034D02*
X109085714Y-82422653D01*
X109085714Y-82422653D02*
X109138095Y-82396462D01*
X109138095Y-82396462D02*
X109269047Y-82396462D01*
X109269047Y-82396462D02*
X109321428Y-82370272D01*
X109583333Y-82605986D02*
X109583333Y-82239319D01*
X109583333Y-82344081D02*
X109609523Y-82291700D01*
X109609523Y-82291700D02*
X109635714Y-82265510D01*
X109635714Y-82265510D02*
X109688095Y-82239319D01*
X109688095Y-82239319D02*
X109740476Y-82239319D01*
X110159523Y-82605986D02*
X110159523Y-82055986D01*
X110159523Y-82579796D02*
X110107142Y-82605986D01*
X110107142Y-82605986D02*
X110002380Y-82605986D01*
X110002380Y-82605986D02*
X109949999Y-82579796D01*
X109949999Y-82579796D02*
X109923809Y-82553605D01*
X109923809Y-82553605D02*
X109897618Y-82501224D01*
X109897618Y-82501224D02*
X109897618Y-82344081D01*
X109897618Y-82344081D02*
X109923809Y-82291700D01*
X109923809Y-82291700D02*
X109949999Y-82265510D01*
X109949999Y-82265510D02*
X110002380Y-82239319D01*
X110002380Y-82239319D02*
X110107142Y-82239319D01*
X110107142Y-82239319D02*
X110159523Y-82265510D01*
X110814285Y-82579796D02*
X110866666Y-82605986D01*
X110866666Y-82605986D02*
X110971428Y-82605986D01*
X110971428Y-82605986D02*
X111023809Y-82579796D01*
X111023809Y-82579796D02*
X111050000Y-82527415D01*
X111050000Y-82527415D02*
X111050000Y-82501224D01*
X111050000Y-82501224D02*
X111023809Y-82448843D01*
X111023809Y-82448843D02*
X110971428Y-82422653D01*
X110971428Y-82422653D02*
X110892857Y-82422653D01*
X110892857Y-82422653D02*
X110840476Y-82396462D01*
X110840476Y-82396462D02*
X110814285Y-82344081D01*
X110814285Y-82344081D02*
X110814285Y-82317891D01*
X110814285Y-82317891D02*
X110840476Y-82265510D01*
X110840476Y-82265510D02*
X110892857Y-82239319D01*
X110892857Y-82239319D02*
X110971428Y-82239319D01*
X110971428Y-82239319D02*
X111023809Y-82265510D01*
X111364285Y-82605986D02*
X111311904Y-82579796D01*
X111311904Y-82579796D02*
X111285714Y-82527415D01*
X111285714Y-82527415D02*
X111285714Y-82055986D01*
X111652380Y-82605986D02*
X111599999Y-82579796D01*
X111599999Y-82579796D02*
X111573809Y-82553605D01*
X111573809Y-82553605D02*
X111547618Y-82501224D01*
X111547618Y-82501224D02*
X111547618Y-82344081D01*
X111547618Y-82344081D02*
X111573809Y-82291700D01*
X111573809Y-82291700D02*
X111599999Y-82265510D01*
X111599999Y-82265510D02*
X111652380Y-82239319D01*
X111652380Y-82239319D02*
X111730952Y-82239319D01*
X111730952Y-82239319D02*
X111783333Y-82265510D01*
X111783333Y-82265510D02*
X111809523Y-82291700D01*
X111809523Y-82291700D02*
X111835714Y-82344081D01*
X111835714Y-82344081D02*
X111835714Y-82501224D01*
X111835714Y-82501224D02*
X111809523Y-82553605D01*
X111809523Y-82553605D02*
X111783333Y-82579796D01*
X111783333Y-82579796D02*
X111730952Y-82605986D01*
X111730952Y-82605986D02*
X111652380Y-82605986D01*
X111992856Y-82239319D02*
X112202380Y-82239319D01*
X112071428Y-82055986D02*
X112071428Y-82527415D01*
X112071428Y-82527415D02*
X112097618Y-82579796D01*
X112097618Y-82579796D02*
X112149999Y-82605986D01*
X112149999Y-82605986D02*
X112202380Y-82605986D01*
X112778571Y-82579796D02*
X112857143Y-82605986D01*
X112857143Y-82605986D02*
X112988095Y-82605986D01*
X112988095Y-82605986D02*
X113040476Y-82579796D01*
X113040476Y-82579796D02*
X113066667Y-82553605D01*
X113066667Y-82553605D02*
X113092857Y-82501224D01*
X113092857Y-82501224D02*
X113092857Y-82448843D01*
X113092857Y-82448843D02*
X113066667Y-82396462D01*
X113066667Y-82396462D02*
X113040476Y-82370272D01*
X113040476Y-82370272D02*
X112988095Y-82344081D01*
X112988095Y-82344081D02*
X112883333Y-82317891D01*
X112883333Y-82317891D02*
X112830952Y-82291700D01*
X112830952Y-82291700D02*
X112804762Y-82265510D01*
X112804762Y-82265510D02*
X112778571Y-82213129D01*
X112778571Y-82213129D02*
X112778571Y-82160748D01*
X112778571Y-82160748D02*
X112804762Y-82108367D01*
X112804762Y-82108367D02*
X112830952Y-82082176D01*
X112830952Y-82082176D02*
X112883333Y-82055986D01*
X112883333Y-82055986D02*
X113014286Y-82055986D01*
X113014286Y-82055986D02*
X113092857Y-82082176D01*
X113328572Y-82605986D02*
X113328572Y-82055986D01*
X113328572Y-82055986D02*
X113511905Y-82448843D01*
X113511905Y-82448843D02*
X113695239Y-82055986D01*
X113695239Y-82055986D02*
X113695239Y-82605986D01*
X113957143Y-82605986D02*
X113957143Y-82055986D01*
X113957143Y-82055986D02*
X114088095Y-82055986D01*
X114088095Y-82055986D02*
X114166667Y-82082176D01*
X114166667Y-82082176D02*
X114219048Y-82134557D01*
X114219048Y-82134557D02*
X114245238Y-82186938D01*
X114245238Y-82186938D02*
X114271429Y-82291700D01*
X114271429Y-82291700D02*
X114271429Y-82370272D01*
X114271429Y-82370272D02*
X114245238Y-82475034D01*
X114245238Y-82475034D02*
X114219048Y-82527415D01*
X114219048Y-82527415D02*
X114166667Y-82579796D01*
X114166667Y-82579796D02*
X114088095Y-82605986D01*
X114088095Y-82605986D02*
X113957143Y-82605986D01*
X114952381Y-82605986D02*
X115057143Y-82605986D01*
X115057143Y-82605986D02*
X115109524Y-82579796D01*
X115109524Y-82579796D02*
X115135715Y-82553605D01*
X115135715Y-82553605D02*
X115188096Y-82475034D01*
X115188096Y-82475034D02*
X115214286Y-82370272D01*
X115214286Y-82370272D02*
X115214286Y-82160748D01*
X115214286Y-82160748D02*
X115188096Y-82108367D01*
X115188096Y-82108367D02*
X115161905Y-82082176D01*
X115161905Y-82082176D02*
X115109524Y-82055986D01*
X115109524Y-82055986D02*
X115004762Y-82055986D01*
X115004762Y-82055986D02*
X114952381Y-82082176D01*
X114952381Y-82082176D02*
X114926191Y-82108367D01*
X114926191Y-82108367D02*
X114900000Y-82160748D01*
X114900000Y-82160748D02*
X114900000Y-82291700D01*
X114900000Y-82291700D02*
X114926191Y-82344081D01*
X114926191Y-82344081D02*
X114952381Y-82370272D01*
X114952381Y-82370272D02*
X115004762Y-82396462D01*
X115004762Y-82396462D02*
X115109524Y-82396462D01*
X115109524Y-82396462D02*
X115161905Y-82370272D01*
X115161905Y-82370272D02*
X115188096Y-82344081D01*
X115188096Y-82344081D02*
X115214286Y-82291700D01*
X115450001Y-82605986D02*
X115450001Y-82055986D01*
X115450001Y-82055986D02*
X115659525Y-82055986D01*
X115659525Y-82055986D02*
X115711906Y-82082176D01*
X115711906Y-82082176D02*
X115738096Y-82108367D01*
X115738096Y-82108367D02*
X115764287Y-82160748D01*
X115764287Y-82160748D02*
X115764287Y-82239319D01*
X115764287Y-82239319D02*
X115738096Y-82291700D01*
X115738096Y-82291700D02*
X115711906Y-82317891D01*
X115711906Y-82317891D02*
X115659525Y-82344081D01*
X115659525Y-82344081D02*
X115450001Y-82344081D01*
X116000001Y-82605986D02*
X116000001Y-82239319D01*
X116000001Y-82055986D02*
X115973810Y-82082176D01*
X115973810Y-82082176D02*
X116000001Y-82108367D01*
X116000001Y-82108367D02*
X116026191Y-82082176D01*
X116026191Y-82082176D02*
X116000001Y-82055986D01*
X116000001Y-82055986D02*
X116000001Y-82108367D01*
X116261906Y-82239319D02*
X116261906Y-82605986D01*
X116261906Y-82291700D02*
X116288096Y-82265510D01*
X116288096Y-82265510D02*
X116340477Y-82239319D01*
X116340477Y-82239319D02*
X116419049Y-82239319D01*
X116419049Y-82239319D02*
X116471430Y-82265510D01*
X116471430Y-82265510D02*
X116497620Y-82317891D01*
X116497620Y-82317891D02*
X116497620Y-82605986D01*
X107566665Y-82941455D02*
X107880951Y-82941455D01*
X107723808Y-83491455D02*
X107723808Y-82941455D01*
X108247618Y-83203360D02*
X108064285Y-83203360D01*
X108064285Y-83491455D02*
X108064285Y-82941455D01*
X108064285Y-82941455D02*
X108326190Y-82941455D01*
X108535714Y-83491455D02*
X108535714Y-82941455D01*
X108535714Y-82941455D02*
X108745238Y-82941455D01*
X108745238Y-82941455D02*
X108797619Y-82967645D01*
X108797619Y-82967645D02*
X108823809Y-82993836D01*
X108823809Y-82993836D02*
X108850000Y-83046217D01*
X108850000Y-83046217D02*
X108850000Y-83124788D01*
X108850000Y-83124788D02*
X108823809Y-83177169D01*
X108823809Y-83177169D02*
X108797619Y-83203360D01*
X108797619Y-83203360D02*
X108745238Y-83229550D01*
X108745238Y-83229550D02*
X108535714Y-83229550D01*
X109190476Y-82941455D02*
X109242857Y-82941455D01*
X109242857Y-82941455D02*
X109295238Y-82967645D01*
X109295238Y-82967645D02*
X109321428Y-82993836D01*
X109321428Y-82993836D02*
X109347619Y-83046217D01*
X109347619Y-83046217D02*
X109373809Y-83150979D01*
X109373809Y-83150979D02*
X109373809Y-83281931D01*
X109373809Y-83281931D02*
X109347619Y-83386693D01*
X109347619Y-83386693D02*
X109321428Y-83439074D01*
X109321428Y-83439074D02*
X109295238Y-83465265D01*
X109295238Y-83465265D02*
X109242857Y-83491455D01*
X109242857Y-83491455D02*
X109190476Y-83491455D01*
X109190476Y-83491455D02*
X109138095Y-83465265D01*
X109138095Y-83465265D02*
X109111904Y-83439074D01*
X109111904Y-83439074D02*
X109085714Y-83386693D01*
X109085714Y-83386693D02*
X109059523Y-83281931D01*
X109059523Y-83281931D02*
X109059523Y-83150979D01*
X109059523Y-83150979D02*
X109085714Y-83046217D01*
X109085714Y-83046217D02*
X109111904Y-82993836D01*
X109111904Y-82993836D02*
X109138095Y-82967645D01*
X109138095Y-82967645D02*
X109190476Y-82941455D01*
X109635714Y-83491455D02*
X109740476Y-83491455D01*
X109740476Y-83491455D02*
X109792857Y-83465265D01*
X109792857Y-83465265D02*
X109819048Y-83439074D01*
X109819048Y-83439074D02*
X109871429Y-83360503D01*
X109871429Y-83360503D02*
X109897619Y-83255741D01*
X109897619Y-83255741D02*
X109897619Y-83046217D01*
X109897619Y-83046217D02*
X109871429Y-82993836D01*
X109871429Y-82993836D02*
X109845238Y-82967645D01*
X109845238Y-82967645D02*
X109792857Y-82941455D01*
X109792857Y-82941455D02*
X109688095Y-82941455D01*
X109688095Y-82941455D02*
X109635714Y-82967645D01*
X109635714Y-82967645D02*
X109609524Y-82993836D01*
X109609524Y-82993836D02*
X109583333Y-83046217D01*
X109583333Y-83046217D02*
X109583333Y-83177169D01*
X109583333Y-83177169D02*
X109609524Y-83229550D01*
X109609524Y-83229550D02*
X109635714Y-83255741D01*
X109635714Y-83255741D02*
X109688095Y-83281931D01*
X109688095Y-83281931D02*
X109792857Y-83281931D01*
X109792857Y-83281931D02*
X109845238Y-83255741D01*
X109845238Y-83255741D02*
X109871429Y-83229550D01*
X109871429Y-83229550D02*
X109897619Y-83177169D01*
X110133334Y-83281931D02*
X110552382Y-83281931D01*
X110788095Y-82993836D02*
X110814286Y-82967645D01*
X110814286Y-82967645D02*
X110866667Y-82941455D01*
X110866667Y-82941455D02*
X110997619Y-82941455D01*
X110997619Y-82941455D02*
X111050000Y-82967645D01*
X111050000Y-82967645D02*
X111076191Y-82993836D01*
X111076191Y-82993836D02*
X111102381Y-83046217D01*
X111102381Y-83046217D02*
X111102381Y-83098598D01*
X111102381Y-83098598D02*
X111076191Y-83177169D01*
X111076191Y-83177169D02*
X110761905Y-83491455D01*
X110761905Y-83491455D02*
X111102381Y-83491455D01*
X111338096Y-83281931D02*
X111757144Y-83281931D01*
X112307143Y-83491455D02*
X111992857Y-83491455D01*
X112150000Y-83491455D02*
X112150000Y-82941455D01*
X112150000Y-82941455D02*
X112097619Y-83020026D01*
X112097619Y-83020026D02*
X112045238Y-83072407D01*
X112045238Y-83072407D02*
X111992857Y-83098598D01*
X112516667Y-82993836D02*
X112542858Y-82967645D01*
X112542858Y-82967645D02*
X112595239Y-82941455D01*
X112595239Y-82941455D02*
X112726191Y-82941455D01*
X112726191Y-82941455D02*
X112778572Y-82967645D01*
X112778572Y-82967645D02*
X112804763Y-82993836D01*
X112804763Y-82993836D02*
X112830953Y-83046217D01*
X112830953Y-83046217D02*
X112830953Y-83098598D01*
X112830953Y-83098598D02*
X112804763Y-83177169D01*
X112804763Y-83177169D02*
X112490477Y-83491455D01*
X112490477Y-83491455D02*
X112830953Y-83491455D01*
X113250001Y-83203360D02*
X113328573Y-83229550D01*
X113328573Y-83229550D02*
X113354763Y-83255741D01*
X113354763Y-83255741D02*
X113380954Y-83308122D01*
X113380954Y-83308122D02*
X113380954Y-83386693D01*
X113380954Y-83386693D02*
X113354763Y-83439074D01*
X113354763Y-83439074D02*
X113328573Y-83465265D01*
X113328573Y-83465265D02*
X113276192Y-83491455D01*
X113276192Y-83491455D02*
X113066668Y-83491455D01*
X113066668Y-83491455D02*
X113066668Y-82941455D01*
X113066668Y-82941455D02*
X113250001Y-82941455D01*
X113250001Y-82941455D02*
X113302382Y-82967645D01*
X113302382Y-82967645D02*
X113328573Y-82993836D01*
X113328573Y-82993836D02*
X113354763Y-83046217D01*
X113354763Y-83046217D02*
X113354763Y-83098598D01*
X113354763Y-83098598D02*
X113328573Y-83150979D01*
X113328573Y-83150979D02*
X113302382Y-83177169D01*
X113302382Y-83177169D02*
X113250001Y-83203360D01*
X113250001Y-83203360D02*
X113066668Y-83203360D01*
X119531101Y-93449048D02*
X119504910Y-93422857D01*
X119504910Y-93422857D02*
X119478720Y-93370476D01*
X119478720Y-93370476D02*
X119478720Y-93239524D01*
X119478720Y-93239524D02*
X119504910Y-93187143D01*
X119504910Y-93187143D02*
X119531101Y-93160952D01*
X119531101Y-93160952D02*
X119583482Y-93134762D01*
X119583482Y-93134762D02*
X119635863Y-93134762D01*
X119635863Y-93134762D02*
X119714434Y-93160952D01*
X119714434Y-93160952D02*
X120028720Y-93475238D01*
X120028720Y-93475238D02*
X120028720Y-93134762D01*
X119714434Y-92820476D02*
X119688244Y-92872857D01*
X119688244Y-92872857D02*
X119662053Y-92899047D01*
X119662053Y-92899047D02*
X119609672Y-92925238D01*
X119609672Y-92925238D02*
X119583482Y-92925238D01*
X119583482Y-92925238D02*
X119531101Y-92899047D01*
X119531101Y-92899047D02*
X119504910Y-92872857D01*
X119504910Y-92872857D02*
X119478720Y-92820476D01*
X119478720Y-92820476D02*
X119478720Y-92715714D01*
X119478720Y-92715714D02*
X119504910Y-92663333D01*
X119504910Y-92663333D02*
X119531101Y-92637142D01*
X119531101Y-92637142D02*
X119583482Y-92610952D01*
X119583482Y-92610952D02*
X119609672Y-92610952D01*
X119609672Y-92610952D02*
X119662053Y-92637142D01*
X119662053Y-92637142D02*
X119688244Y-92663333D01*
X119688244Y-92663333D02*
X119714434Y-92715714D01*
X119714434Y-92715714D02*
X119714434Y-92820476D01*
X119714434Y-92820476D02*
X119740625Y-92872857D01*
X119740625Y-92872857D02*
X119766815Y-92899047D01*
X119766815Y-92899047D02*
X119819196Y-92925238D01*
X119819196Y-92925238D02*
X119923958Y-92925238D01*
X119923958Y-92925238D02*
X119976339Y-92899047D01*
X119976339Y-92899047D02*
X120002530Y-92872857D01*
X120002530Y-92872857D02*
X120028720Y-92820476D01*
X120028720Y-92820476D02*
X120028720Y-92715714D01*
X120028720Y-92715714D02*
X120002530Y-92663333D01*
X120002530Y-92663333D02*
X119976339Y-92637142D01*
X119976339Y-92637142D02*
X119923958Y-92610952D01*
X119923958Y-92610952D02*
X119819196Y-92610952D01*
X119819196Y-92610952D02*
X119766815Y-92637142D01*
X119766815Y-92637142D02*
X119740625Y-92663333D01*
X119740625Y-92663333D02*
X119714434Y-92715714D01*
X119504910Y-92087142D02*
X119478720Y-92139523D01*
X119478720Y-92139523D02*
X119478720Y-92218094D01*
X119478720Y-92218094D02*
X119504910Y-92296666D01*
X119504910Y-92296666D02*
X119557291Y-92349047D01*
X119557291Y-92349047D02*
X119609672Y-92375237D01*
X119609672Y-92375237D02*
X119714434Y-92401428D01*
X119714434Y-92401428D02*
X119793006Y-92401428D01*
X119793006Y-92401428D02*
X119897768Y-92375237D01*
X119897768Y-92375237D02*
X119950149Y-92349047D01*
X119950149Y-92349047D02*
X120002530Y-92296666D01*
X120002530Y-92296666D02*
X120028720Y-92218094D01*
X120028720Y-92218094D02*
X120028720Y-92165713D01*
X120028720Y-92165713D02*
X120002530Y-92087142D01*
X120002530Y-92087142D02*
X119976339Y-92060951D01*
X119976339Y-92060951D02*
X119793006Y-92060951D01*
X119793006Y-92060951D02*
X119793006Y-92165713D01*
X119740625Y-91641904D02*
X119766815Y-91563332D01*
X119766815Y-91563332D02*
X119793006Y-91537142D01*
X119793006Y-91537142D02*
X119845387Y-91510951D01*
X119845387Y-91510951D02*
X119923958Y-91510951D01*
X119923958Y-91510951D02*
X119976339Y-91537142D01*
X119976339Y-91537142D02*
X120002530Y-91563332D01*
X120002530Y-91563332D02*
X120028720Y-91615713D01*
X120028720Y-91615713D02*
X120028720Y-91825237D01*
X120028720Y-91825237D02*
X119478720Y-91825237D01*
X119478720Y-91825237D02*
X119478720Y-91641904D01*
X119478720Y-91641904D02*
X119504910Y-91589523D01*
X119504910Y-91589523D02*
X119531101Y-91563332D01*
X119531101Y-91563332D02*
X119583482Y-91537142D01*
X119583482Y-91537142D02*
X119635863Y-91537142D01*
X119635863Y-91537142D02*
X119688244Y-91563332D01*
X119688244Y-91563332D02*
X119714434Y-91589523D01*
X119714434Y-91589523D02*
X119740625Y-91641904D01*
X119740625Y-91641904D02*
X119740625Y-91825237D01*
D12*
X112466666Y-88061775D02*
X112009523Y-88061775D01*
X112238095Y-88061775D02*
X112238095Y-87261775D01*
X112238095Y-87261775D02*
X112161904Y-87376060D01*
X112161904Y-87376060D02*
X112085714Y-87452251D01*
X112085714Y-87452251D02*
X112009523Y-87490346D01*
X112809524Y-87528441D02*
X112809524Y-88328441D01*
X113190476Y-87947489D02*
X113228571Y-88023680D01*
X113228571Y-88023680D02*
X113304762Y-88061775D01*
X112809524Y-87947489D02*
X112847619Y-88023680D01*
X112847619Y-88023680D02*
X112923809Y-88061775D01*
X112923809Y-88061775D02*
X113076190Y-88061775D01*
X113076190Y-88061775D02*
X113152381Y-88023680D01*
X113152381Y-88023680D02*
X113190476Y-87947489D01*
X113190476Y-87947489D02*
X113190476Y-87528441D01*
X113914285Y-87642727D02*
X113647619Y-87642727D01*
X113647619Y-88061775D02*
X113647619Y-87261775D01*
X113647619Y-87261775D02*
X114028571Y-87261775D01*
X116466666Y-87861775D02*
X116009523Y-87861775D01*
X116238095Y-87861775D02*
X116238095Y-87061775D01*
X116238095Y-87061775D02*
X116161904Y-87176060D01*
X116161904Y-87176060D02*
X116085714Y-87252251D01*
X116085714Y-87252251D02*
X116009523Y-87290346D01*
X116809524Y-87328441D02*
X116809524Y-88128441D01*
X117190476Y-87747489D02*
X117228571Y-87823680D01*
X117228571Y-87823680D02*
X117304762Y-87861775D01*
X116809524Y-87747489D02*
X116847619Y-87823680D01*
X116847619Y-87823680D02*
X116923809Y-87861775D01*
X116923809Y-87861775D02*
X117076190Y-87861775D01*
X117076190Y-87861775D02*
X117152381Y-87823680D01*
X117152381Y-87823680D02*
X117190476Y-87747489D01*
X117190476Y-87747489D02*
X117190476Y-87328441D01*
X117914285Y-87442727D02*
X117647619Y-87442727D01*
X117647619Y-87861775D02*
X117647619Y-87061775D01*
X117647619Y-87061775D02*
X118028571Y-87061775D01*
D11*
X119208720Y-93586905D02*
X118946815Y-93770239D01*
X119208720Y-93901191D02*
X118658720Y-93901191D01*
X118658720Y-93901191D02*
X118658720Y-93691667D01*
X118658720Y-93691667D02*
X118684910Y-93639286D01*
X118684910Y-93639286D02*
X118711101Y-93613096D01*
X118711101Y-93613096D02*
X118763482Y-93586905D01*
X118763482Y-93586905D02*
X118842053Y-93586905D01*
X118842053Y-93586905D02*
X118894434Y-93613096D01*
X118894434Y-93613096D02*
X118920625Y-93639286D01*
X118920625Y-93639286D02*
X118946815Y-93691667D01*
X118946815Y-93691667D02*
X118946815Y-93901191D01*
X118658720Y-93429763D02*
X118658720Y-93115477D01*
X119208720Y-93272620D02*
X118658720Y-93272620D01*
X119208720Y-92905953D02*
X119208720Y-92801191D01*
X119208720Y-92801191D02*
X119182530Y-92748810D01*
X119182530Y-92748810D02*
X119156339Y-92722619D01*
X119156339Y-92722619D02*
X119077768Y-92670238D01*
X119077768Y-92670238D02*
X118973006Y-92644048D01*
X118973006Y-92644048D02*
X118763482Y-92644048D01*
X118763482Y-92644048D02*
X118711101Y-92670238D01*
X118711101Y-92670238D02*
X118684910Y-92696429D01*
X118684910Y-92696429D02*
X118658720Y-92748810D01*
X118658720Y-92748810D02*
X118658720Y-92853572D01*
X118658720Y-92853572D02*
X118684910Y-92905953D01*
X118684910Y-92905953D02*
X118711101Y-92932143D01*
X118711101Y-92932143D02*
X118763482Y-92958334D01*
X118763482Y-92958334D02*
X118894434Y-92958334D01*
X118894434Y-92958334D02*
X118946815Y-92932143D01*
X118946815Y-92932143D02*
X118973006Y-92905953D01*
X118973006Y-92905953D02*
X118999196Y-92853572D01*
X118999196Y-92853572D02*
X118999196Y-92748810D01*
X118999196Y-92748810D02*
X118973006Y-92696429D01*
X118973006Y-92696429D02*
X118946815Y-92670238D01*
X118946815Y-92670238D02*
X118894434Y-92644048D01*
X119208720Y-92120238D02*
X119208720Y-92434524D01*
X119208720Y-92277381D02*
X118658720Y-92277381D01*
X118658720Y-92277381D02*
X118737291Y-92329762D01*
X118737291Y-92329762D02*
X118789672Y-92382143D01*
X118789672Y-92382143D02*
X118815863Y-92434524D01*
X119208720Y-91858333D02*
X119208720Y-91753571D01*
X119208720Y-91753571D02*
X119182530Y-91701190D01*
X119182530Y-91701190D02*
X119156339Y-91674999D01*
X119156339Y-91674999D02*
X119077768Y-91622618D01*
X119077768Y-91622618D02*
X118973006Y-91596428D01*
X118973006Y-91596428D02*
X118763482Y-91596428D01*
X118763482Y-91596428D02*
X118711101Y-91622618D01*
X118711101Y-91622618D02*
X118684910Y-91648809D01*
X118684910Y-91648809D02*
X118658720Y-91701190D01*
X118658720Y-91701190D02*
X118658720Y-91805952D01*
X118658720Y-91805952D02*
X118684910Y-91858333D01*
X118684910Y-91858333D02*
X118711101Y-91884523D01*
X118711101Y-91884523D02*
X118763482Y-91910714D01*
X118763482Y-91910714D02*
X118894434Y-91910714D01*
X118894434Y-91910714D02*
X118946815Y-91884523D01*
X118946815Y-91884523D02*
X118973006Y-91858333D01*
X118973006Y-91858333D02*
X118999196Y-91805952D01*
X118999196Y-91805952D02*
X118999196Y-91701190D01*
X118999196Y-91701190D02*
X118973006Y-91648809D01*
X118973006Y-91648809D02*
X118946815Y-91622618D01*
X118946815Y-91622618D02*
X118894434Y-91596428D01*
X118658720Y-91413094D02*
X118658720Y-91072618D01*
X118658720Y-91072618D02*
X118868244Y-91255951D01*
X118868244Y-91255951D02*
X118868244Y-91177380D01*
X118868244Y-91177380D02*
X118894434Y-91124999D01*
X118894434Y-91124999D02*
X118920625Y-91098808D01*
X118920625Y-91098808D02*
X118973006Y-91072618D01*
X118973006Y-91072618D02*
X119103958Y-91072618D01*
X119103958Y-91072618D02*
X119156339Y-91098808D01*
X119156339Y-91098808D02*
X119182530Y-91124999D01*
X119182530Y-91124999D02*
X119208720Y-91177380D01*
X119208720Y-91177380D02*
X119208720Y-91334523D01*
X119208720Y-91334523D02*
X119182530Y-91386904D01*
X119182530Y-91386904D02*
X119156339Y-91413094D01*
D12*
X110361775Y-94314286D02*
X110361775Y-94771429D01*
X110361775Y-94542857D02*
X109561775Y-94542857D01*
X109561775Y-94542857D02*
X109676060Y-94619048D01*
X109676060Y-94619048D02*
X109752251Y-94695238D01*
X109752251Y-94695238D02*
X109790346Y-94771429D01*
X109561775Y-93819047D02*
X109561775Y-93742857D01*
X109561775Y-93742857D02*
X109599870Y-93666666D01*
X109599870Y-93666666D02*
X109637965Y-93628571D01*
X109637965Y-93628571D02*
X109714156Y-93590476D01*
X109714156Y-93590476D02*
X109866537Y-93552381D01*
X109866537Y-93552381D02*
X110057013Y-93552381D01*
X110057013Y-93552381D02*
X110209394Y-93590476D01*
X110209394Y-93590476D02*
X110285584Y-93628571D01*
X110285584Y-93628571D02*
X110323680Y-93666666D01*
X110323680Y-93666666D02*
X110361775Y-93742857D01*
X110361775Y-93742857D02*
X110361775Y-93819047D01*
X110361775Y-93819047D02*
X110323680Y-93895238D01*
X110323680Y-93895238D02*
X110285584Y-93933333D01*
X110285584Y-93933333D02*
X110209394Y-93971428D01*
X110209394Y-93971428D02*
X110057013Y-94009524D01*
X110057013Y-94009524D02*
X109866537Y-94009524D01*
X109866537Y-94009524D02*
X109714156Y-93971428D01*
X109714156Y-93971428D02*
X109637965Y-93933333D01*
X109637965Y-93933333D02*
X109599870Y-93895238D01*
X109599870Y-93895238D02*
X109561775Y-93819047D01*
X109561775Y-93057142D02*
X109561775Y-92980952D01*
X109561775Y-92980952D02*
X109599870Y-92904761D01*
X109599870Y-92904761D02*
X109637965Y-92866666D01*
X109637965Y-92866666D02*
X109714156Y-92828571D01*
X109714156Y-92828571D02*
X109866537Y-92790476D01*
X109866537Y-92790476D02*
X110057013Y-92790476D01*
X110057013Y-92790476D02*
X110209394Y-92828571D01*
X110209394Y-92828571D02*
X110285584Y-92866666D01*
X110285584Y-92866666D02*
X110323680Y-92904761D01*
X110323680Y-92904761D02*
X110361775Y-92980952D01*
X110361775Y-92980952D02*
X110361775Y-93057142D01*
X110361775Y-93057142D02*
X110323680Y-93133333D01*
X110323680Y-93133333D02*
X110285584Y-93171428D01*
X110285584Y-93171428D02*
X110209394Y-93209523D01*
X110209394Y-93209523D02*
X110057013Y-93247619D01*
X110057013Y-93247619D02*
X109866537Y-93247619D01*
X109866537Y-93247619D02*
X109714156Y-93209523D01*
X109714156Y-93209523D02*
X109637965Y-93171428D01*
X109637965Y-93171428D02*
X109599870Y-93133333D01*
X109599870Y-93133333D02*
X109561775Y-93057142D01*
X110361775Y-92447618D02*
X109561775Y-92447618D01*
X110057013Y-92371428D02*
X110361775Y-92142856D01*
X109828441Y-92142856D02*
X110133203Y-92447618D01*
X110361775Y-91838095D02*
X110361775Y-91647618D01*
X110361775Y-91647618D02*
X110209394Y-91647618D01*
X110209394Y-91647618D02*
X110171299Y-91723809D01*
X110171299Y-91723809D02*
X110095108Y-91799999D01*
X110095108Y-91799999D02*
X109980822Y-91838095D01*
X109980822Y-91838095D02*
X109790346Y-91838095D01*
X109790346Y-91838095D02*
X109676060Y-91799999D01*
X109676060Y-91799999D02*
X109599870Y-91723809D01*
X109599870Y-91723809D02*
X109561775Y-91609523D01*
X109561775Y-91609523D02*
X109561775Y-91457142D01*
X109561775Y-91457142D02*
X109599870Y-91342856D01*
X109599870Y-91342856D02*
X109676060Y-91266666D01*
X109676060Y-91266666D02*
X109790346Y-91228571D01*
X109790346Y-91228571D02*
X109980822Y-91228571D01*
X109980822Y-91228571D02*
X110095108Y-91266666D01*
X110095108Y-91266666D02*
X110171299Y-91342856D01*
X110171299Y-91342856D02*
X110209394Y-91419047D01*
X110209394Y-91419047D02*
X110361775Y-91419047D01*
X110361775Y-91419047D02*
X110361775Y-91228571D01*
D13*
%TO.C,J9*%
X102960000Y-70020000D02*
X102960000Y-73839000D01*
X102960000Y-76501000D02*
X102960000Y-83820000D01*
D14*
X105280000Y-70026000D02*
X103121000Y-70026000D01*
D15*
X105914000Y-72485000D02*
X105930000Y-70290000D01*
X105914000Y-74771000D02*
X106930000Y-74771000D01*
X105914000Y-76041000D02*
X105914000Y-74771000D01*
X106930000Y-73501000D02*
X105914000Y-72485000D01*
X106930000Y-74771000D02*
X106930000Y-73501000D01*
D14*
X107566000Y-84676000D02*
X104518000Y-84676000D01*
D15*
X107819000Y-77946000D02*
X105914000Y-76041000D01*
X107819000Y-80486000D02*
X107819000Y-77946000D01*
D13*
X109198000Y-70706000D02*
X117760000Y-70706000D01*
D15*
X114805000Y-81120000D02*
X108455000Y-81120000D01*
X115495000Y-70706000D02*
X115440000Y-80476000D01*
D13*
X117660000Y-83820000D02*
X117660000Y-76501000D01*
X117760000Y-70706000D02*
X117760000Y-73820000D01*
D15*
X108455000Y-81120000D02*
G75*
G02*
X107820000Y-80485000I0J635000D01*
G01*
D14*
X109198000Y-70706000D02*
G75*
G02*
X105279847Y-70025785I-489000J8808000D01*
G01*
D15*
X115440000Y-80485000D02*
G75*
G02*
X114805000Y-81120000I-634999J-1D01*
G01*
D14*
X108709000Y-80358000D02*
X108328000Y-80358000D01*
X108328000Y-78707000D01*
X108709000Y-78707000D01*
X108709000Y-80358000D01*
G36*
X108709000Y-80358000D02*
G01*
X108328000Y-80358000D01*
X108328000Y-78707000D01*
X108709000Y-78707000D01*
X108709000Y-80358000D01*
G37*
X109598000Y-80358000D02*
X109217000Y-80358000D01*
X109217000Y-78707000D01*
X109598000Y-78707000D01*
X109598000Y-80358000D01*
G36*
X109598000Y-80358000D02*
G01*
X109217000Y-80358000D01*
X109217000Y-78707000D01*
X109598000Y-78707000D01*
X109598000Y-80358000D01*
G37*
X110487000Y-80358000D02*
X110106000Y-80358000D01*
X110106000Y-78707000D01*
X110487000Y-78707000D01*
X110487000Y-80358000D01*
G36*
X110487000Y-80358000D02*
G01*
X110106000Y-80358000D01*
X110106000Y-78707000D01*
X110487000Y-78707000D01*
X110487000Y-80358000D01*
G37*
X111376000Y-80358000D02*
X110995000Y-80358000D01*
X110995000Y-78707000D01*
X111376000Y-78707000D01*
X111376000Y-80358000D01*
G36*
X111376000Y-80358000D02*
G01*
X110995000Y-80358000D01*
X110995000Y-78707000D01*
X111376000Y-78707000D01*
X111376000Y-80358000D01*
G37*
X112265000Y-80358000D02*
X111884000Y-80358000D01*
X111884000Y-78707000D01*
X112265000Y-78707000D01*
X112265000Y-80358000D01*
G36*
X112265000Y-80358000D02*
G01*
X111884000Y-80358000D01*
X111884000Y-78707000D01*
X112265000Y-78707000D01*
X112265000Y-80358000D01*
G37*
X113154000Y-80358000D02*
X112773000Y-80358000D01*
X112773000Y-78707000D01*
X113154000Y-78707000D01*
X113154000Y-80358000D01*
G36*
X113154000Y-80358000D02*
G01*
X112773000Y-80358000D01*
X112773000Y-78707000D01*
X113154000Y-78707000D01*
X113154000Y-80358000D01*
G37*
X114043000Y-80358000D02*
X113662000Y-80358000D01*
X113662000Y-78707000D01*
X114043000Y-78707000D01*
X114043000Y-80358000D01*
G36*
X114043000Y-80358000D02*
G01*
X113662000Y-80358000D01*
X113662000Y-78707000D01*
X114043000Y-78707000D01*
X114043000Y-80358000D01*
G37*
X114932000Y-80358000D02*
X114551000Y-80358000D01*
X114551000Y-78707000D01*
X114932000Y-78707000D01*
X114932000Y-80358000D01*
G36*
X114932000Y-80358000D02*
G01*
X114551000Y-80358000D01*
X114551000Y-78707000D01*
X114932000Y-78707000D01*
X114932000Y-80358000D01*
G37*
D16*
%TO.C,Ref\u002A\u002A*%
X112287865Y-76065069D02*
X112389646Y-76067414D01*
X112487190Y-76072340D01*
X112564745Y-76078956D01*
X112587500Y-76082014D01*
X112682750Y-76097390D01*
X112513417Y-76207442D01*
X112438103Y-76254762D01*
X112375193Y-76291278D01*
X112333576Y-76311979D01*
X112322917Y-76314800D01*
X112292275Y-76310434D01*
X112233062Y-76301682D01*
X112164167Y-76291351D01*
X112093412Y-76280128D01*
X112041947Y-76270927D01*
X112021354Y-76265887D01*
X112024519Y-76245056D01*
X112038385Y-76197110D01*
X112049802Y-76162340D01*
X112083480Y-76063500D01*
X112287865Y-76065069D01*
G36*
X112287865Y-76065069D02*
G01*
X112389646Y-76067414D01*
X112487190Y-76072340D01*
X112564745Y-76078956D01*
X112587500Y-76082014D01*
X112682750Y-76097390D01*
X112513417Y-76207442D01*
X112438103Y-76254762D01*
X112375193Y-76291278D01*
X112333576Y-76311979D01*
X112322917Y-76314800D01*
X112292275Y-76310434D01*
X112233062Y-76301682D01*
X112164167Y-76291351D01*
X112093412Y-76280128D01*
X112041947Y-76270927D01*
X112021354Y-76265887D01*
X112024519Y-76245056D01*
X112038385Y-76197110D01*
X112049802Y-76162340D01*
X112083480Y-76063500D01*
X112287865Y-76065069D01*
G37*
X112978373Y-76147496D02*
X112993606Y-76151848D01*
X113044483Y-76170047D01*
X113072465Y-76185801D01*
X113074334Y-76189168D01*
X113055596Y-76199732D01*
X113005248Y-76219937D01*
X112932086Y-76246801D01*
X112844908Y-76277341D01*
X112752509Y-76308573D01*
X112663688Y-76337517D01*
X112587241Y-76361190D01*
X112531964Y-76376608D01*
X112508522Y-76381000D01*
X112475662Y-76365339D01*
X112470213Y-76358425D01*
X112463038Y-76346422D01*
X112462876Y-76336264D01*
X112475611Y-76324400D01*
X112507129Y-76307281D01*
X112563316Y-76281358D01*
X112650057Y-76243081D01*
X112691981Y-76224678D01*
X112789121Y-76182738D01*
X112857074Y-76156285D01*
X112905095Y-76143084D01*
X112942443Y-76140899D01*
X112978373Y-76147496D01*
G36*
X112978373Y-76147496D02*
G01*
X112993606Y-76151848D01*
X113044483Y-76170047D01*
X113072465Y-76185801D01*
X113074334Y-76189168D01*
X113055596Y-76199732D01*
X113005248Y-76219937D01*
X112932086Y-76246801D01*
X112844908Y-76277341D01*
X112752509Y-76308573D01*
X112663688Y-76337517D01*
X112587241Y-76361190D01*
X112531964Y-76376608D01*
X112508522Y-76381000D01*
X112475662Y-76365339D01*
X112470213Y-76358425D01*
X112463038Y-76346422D01*
X112462876Y-76336264D01*
X112475611Y-76324400D01*
X112507129Y-76307281D01*
X112563316Y-76281358D01*
X112650057Y-76243081D01*
X112691981Y-76224678D01*
X112789121Y-76182738D01*
X112857074Y-76156285D01*
X112905095Y-76143084D01*
X112942443Y-76140899D01*
X112978373Y-76147496D01*
G37*
X110346164Y-74868696D02*
X110397703Y-74900386D01*
X110427105Y-74956468D01*
X110433548Y-75023979D01*
X110420053Y-75090685D01*
X110389645Y-75144351D01*
X110345347Y-75172741D01*
X110329970Y-75174500D01*
X110302924Y-75182256D01*
X110310261Y-75201112D01*
X110347916Y-75224451D01*
X110365000Y-75231521D01*
X110428500Y-75255490D01*
X110428500Y-75978834D01*
X110089834Y-75978834D01*
X110089834Y-75255490D01*
X110153334Y-75231521D01*
X110199512Y-75208133D01*
X110216625Y-75187191D01*
X110200608Y-75175309D01*
X110188364Y-75174500D01*
X110139376Y-75156161D01*
X110104376Y-75109310D01*
X110085925Y-75046197D01*
X110086583Y-74979072D01*
X110108911Y-74920185D01*
X110130278Y-74896606D01*
X110194594Y-74865496D01*
X110272196Y-74856273D01*
X110346164Y-74868696D01*
G36*
X110346164Y-74868696D02*
G01*
X110397703Y-74900386D01*
X110427105Y-74956468D01*
X110433548Y-75023979D01*
X110420053Y-75090685D01*
X110389645Y-75144351D01*
X110345347Y-75172741D01*
X110329970Y-75174500D01*
X110302924Y-75182256D01*
X110310261Y-75201112D01*
X110347916Y-75224451D01*
X110365000Y-75231521D01*
X110428500Y-75255490D01*
X110428500Y-75978834D01*
X110089834Y-75978834D01*
X110089834Y-75255490D01*
X110153334Y-75231521D01*
X110199512Y-75208133D01*
X110216625Y-75187191D01*
X110200608Y-75175309D01*
X110188364Y-75174500D01*
X110139376Y-75156161D01*
X110104376Y-75109310D01*
X110085925Y-75046197D01*
X110086583Y-74979072D01*
X110108911Y-74920185D01*
X110130278Y-74896606D01*
X110194594Y-74865496D01*
X110272196Y-74856273D01*
X110346164Y-74868696D01*
G37*
X112128377Y-74847608D02*
X112249836Y-74881677D01*
X112339157Y-74940053D01*
X112398588Y-75024282D01*
X112430379Y-75135912D01*
X112432646Y-75152910D01*
X112433623Y-75243925D01*
X112408629Y-75303286D01*
X112354233Y-75335172D01*
X112275911Y-75343834D01*
X112184056Y-75335753D01*
X112127656Y-75309935D01*
X112102723Y-75264013D01*
X112100667Y-75239847D01*
X112090775Y-75187003D01*
X112070806Y-75154901D01*
X112013047Y-75127108D01*
X111941647Y-75117884D01*
X111877175Y-75128712D01*
X111857250Y-75139494D01*
X111842274Y-75153382D01*
X111831119Y-75173636D01*
X111823080Y-75206380D01*
X111817452Y-75257734D01*
X111813528Y-75333824D01*
X111810605Y-75440770D01*
X111808316Y-75564338D01*
X111801716Y-75957667D01*
X111461904Y-75957667D01*
X111469077Y-75529042D01*
X111471784Y-75382800D01*
X111474813Y-75272396D01*
X111478876Y-75191333D01*
X111484687Y-75133117D01*
X111492960Y-75091253D01*
X111504406Y-75059246D01*
X111519738Y-75030602D01*
X111524679Y-75022535D01*
X111603232Y-74934919D01*
X111712925Y-74875034D01*
X111854244Y-74842676D01*
X111972531Y-74836298D01*
X112128377Y-74847608D01*
G36*
X112128377Y-74847608D02*
G01*
X112249836Y-74881677D01*
X112339157Y-74940053D01*
X112398588Y-75024282D01*
X112430379Y-75135912D01*
X112432646Y-75152910D01*
X112433623Y-75243925D01*
X112408629Y-75303286D01*
X112354233Y-75335172D01*
X112275911Y-75343834D01*
X112184056Y-75335753D01*
X112127656Y-75309935D01*
X112102723Y-75264013D01*
X112100667Y-75239847D01*
X112090775Y-75187003D01*
X112070806Y-75154901D01*
X112013047Y-75127108D01*
X111941647Y-75117884D01*
X111877175Y-75128712D01*
X111857250Y-75139494D01*
X111842274Y-75153382D01*
X111831119Y-75173636D01*
X111823080Y-75206380D01*
X111817452Y-75257734D01*
X111813528Y-75333824D01*
X111810605Y-75440770D01*
X111808316Y-75564338D01*
X111801716Y-75957667D01*
X111461904Y-75957667D01*
X111469077Y-75529042D01*
X111471784Y-75382800D01*
X111474813Y-75272396D01*
X111478876Y-75191333D01*
X111484687Y-75133117D01*
X111492960Y-75091253D01*
X111504406Y-75059246D01*
X111519738Y-75030602D01*
X111524679Y-75022535D01*
X111603232Y-74934919D01*
X111712925Y-74875034D01*
X111854244Y-74842676D01*
X111972531Y-74836298D01*
X112128377Y-74847608D01*
G37*
X113258170Y-76256643D02*
X113305063Y-76271777D01*
X113348703Y-76301018D01*
X113396629Y-76345038D01*
X113423248Y-76371492D01*
X113470052Y-76424574D01*
X113491878Y-76473321D01*
X113497632Y-76538771D01*
X113497667Y-76547268D01*
X113476999Y-76656621D01*
X113415839Y-76758273D01*
X113315454Y-76851479D01*
X113177110Y-76935494D01*
X113002073Y-77009574D01*
X112791609Y-77072973D01*
X112546984Y-77124947D01*
X112502834Y-77132471D01*
X112403646Y-77146449D01*
X112289989Y-77158651D01*
X112169126Y-77168747D01*
X112048322Y-77176407D01*
X111934842Y-77181302D01*
X111835951Y-77183101D01*
X111758913Y-77181475D01*
X111710992Y-77176094D01*
X111698500Y-77168988D01*
X111705303Y-77140580D01*
X111723672Y-77081887D01*
X111750551Y-77002353D01*
X111773464Y-76937463D01*
X111848428Y-76728754D01*
X112053923Y-76703885D01*
X112156511Y-76689094D01*
X112255688Y-76670742D01*
X112335486Y-76651927D01*
X112359668Y-76644535D01*
X112433825Y-76608923D01*
X112497454Y-76560520D01*
X112541905Y-76507993D01*
X112558526Y-76460012D01*
X112556606Y-76447195D01*
X112558355Y-76432613D01*
X112576590Y-76417679D01*
X112616466Y-76400470D01*
X112683136Y-76379061D01*
X112781756Y-76351528D01*
X112887298Y-76323753D01*
X113022588Y-76289172D01*
X113124471Y-76266012D01*
X113200485Y-76254946D01*
X113258170Y-76256643D01*
G36*
X113258170Y-76256643D02*
G01*
X113305063Y-76271777D01*
X113348703Y-76301018D01*
X113396629Y-76345038D01*
X113423248Y-76371492D01*
X113470052Y-76424574D01*
X113491878Y-76473321D01*
X113497632Y-76538771D01*
X113497667Y-76547268D01*
X113476999Y-76656621D01*
X113415839Y-76758273D01*
X113315454Y-76851479D01*
X113177110Y-76935494D01*
X113002073Y-77009574D01*
X112791609Y-77072973D01*
X112546984Y-77124947D01*
X112502834Y-77132471D01*
X112403646Y-77146449D01*
X112289989Y-77158651D01*
X112169126Y-77168747D01*
X112048322Y-77176407D01*
X111934842Y-77181302D01*
X111835951Y-77183101D01*
X111758913Y-77181475D01*
X111710992Y-77176094D01*
X111698500Y-77168988D01*
X111705303Y-77140580D01*
X111723672Y-77081887D01*
X111750551Y-77002353D01*
X111773464Y-76937463D01*
X111848428Y-76728754D01*
X112053923Y-76703885D01*
X112156511Y-76689094D01*
X112255688Y-76670742D01*
X112335486Y-76651927D01*
X112359668Y-76644535D01*
X112433825Y-76608923D01*
X112497454Y-76560520D01*
X112541905Y-76507993D01*
X112558526Y-76460012D01*
X112556606Y-76447195D01*
X112558355Y-76432613D01*
X112576590Y-76417679D01*
X112616466Y-76400470D01*
X112683136Y-76379061D01*
X112781756Y-76351528D01*
X112887298Y-76323753D01*
X113022588Y-76289172D01*
X113124471Y-76266012D01*
X113200485Y-76254946D01*
X113258170Y-76256643D01*
G37*
X113100972Y-74845426D02*
X113237197Y-74882774D01*
X113345542Y-74951829D01*
X113425359Y-75051971D01*
X113475999Y-75182578D01*
X113496813Y-75343031D01*
X113497342Y-75375584D01*
X113492259Y-75511604D01*
X113474990Y-75616480D01*
X113442744Y-75700344D01*
X113392733Y-75773329D01*
X113385569Y-75781651D01*
X113299979Y-75859363D01*
X113201103Y-75908031D01*
X113079700Y-75931217D01*
X112989667Y-75934364D01*
X112902086Y-75930793D01*
X112822897Y-75922560D01*
X112768750Y-75911416D01*
X112767417Y-75910961D01*
X112647895Y-75848861D01*
X112557949Y-75756507D01*
X112497643Y-75633995D01*
X112467042Y-75481423D01*
X112465009Y-75455815D01*
X112466401Y-75369715D01*
X112774512Y-75369715D01*
X112777693Y-75454621D01*
X112794337Y-75526458D01*
X112813530Y-75559953D01*
X112888274Y-75618229D01*
X112973345Y-75636418D01*
X113071777Y-75615087D01*
X113083279Y-75610465D01*
X113143852Y-75570101D01*
X113179763Y-75503804D01*
X113180015Y-75503045D01*
X113195100Y-75414248D01*
X113188627Y-75320551D01*
X113162965Y-75238697D01*
X113137085Y-75199739D01*
X113068168Y-75153652D01*
X112985598Y-75138447D01*
X112902714Y-75153096D01*
X112832853Y-75196566D01*
X112809345Y-75225064D01*
X112784996Y-75287832D01*
X112774512Y-75369715D01*
X112466401Y-75369715D01*
X112467860Y-75279541D01*
X112501094Y-75132215D01*
X112564386Y-75014259D01*
X112657415Y-74926094D01*
X112779856Y-74868141D01*
X112931386Y-74840821D01*
X112937518Y-74840405D01*
X113100972Y-74845426D01*
G36*
X113100972Y-74845426D02*
G01*
X113237197Y-74882774D01*
X113345542Y-74951829D01*
X113425359Y-75051971D01*
X113475999Y-75182578D01*
X113496813Y-75343031D01*
X113497342Y-75375584D01*
X113492259Y-75511604D01*
X113474990Y-75616480D01*
X113442744Y-75700344D01*
X113392733Y-75773329D01*
X113385569Y-75781651D01*
X113299979Y-75859363D01*
X113201103Y-75908031D01*
X113079700Y-75931217D01*
X112989667Y-75934364D01*
X112902086Y-75930793D01*
X112822897Y-75922560D01*
X112768750Y-75911416D01*
X112767417Y-75910961D01*
X112647895Y-75848861D01*
X112557949Y-75756507D01*
X112497643Y-75633995D01*
X112467042Y-75481423D01*
X112465009Y-75455815D01*
X112466401Y-75369715D01*
X112774512Y-75369715D01*
X112777693Y-75454621D01*
X112794337Y-75526458D01*
X112813530Y-75559953D01*
X112888274Y-75618229D01*
X112973345Y-75636418D01*
X113071777Y-75615087D01*
X113083279Y-75610465D01*
X113143852Y-75570101D01*
X113179763Y-75503804D01*
X113180015Y-75503045D01*
X113195100Y-75414248D01*
X113188627Y-75320551D01*
X113162965Y-75238697D01*
X113137085Y-75199739D01*
X113068168Y-75153652D01*
X112985598Y-75138447D01*
X112902714Y-75153096D01*
X112832853Y-75196566D01*
X112809345Y-75225064D01*
X112784996Y-75287832D01*
X112774512Y-75369715D01*
X112466401Y-75369715D01*
X112467860Y-75279541D01*
X112501094Y-75132215D01*
X112564386Y-75014259D01*
X112657415Y-74926094D01*
X112779856Y-74868141D01*
X112931386Y-74840821D01*
X112937518Y-74840405D01*
X113100972Y-74845426D01*
G37*
X111294895Y-74836857D02*
X111337483Y-74841904D01*
X111364713Y-74853368D01*
X111385568Y-74872919D01*
X111399219Y-74889810D01*
X111438397Y-74961635D01*
X111437720Y-75032331D01*
X111420165Y-75075350D01*
X111395217Y-75114486D01*
X111364008Y-75137829D01*
X111315524Y-75149544D01*
X111238756Y-75153795D01*
X111211667Y-75154204D01*
X111086393Y-75162085D01*
X110994810Y-75184385D01*
X110929909Y-75223872D01*
X110884682Y-75283316D01*
X110884631Y-75283412D01*
X110856130Y-75375712D01*
X110867898Y-75463796D01*
X110918092Y-75540194D01*
X110955505Y-75570663D01*
X111004068Y-75597496D01*
X111058711Y-75612389D01*
X111133825Y-75618386D01*
X111184009Y-75619000D01*
X111268207Y-75620668D01*
X111322635Y-75627747D01*
X111359795Y-75643352D01*
X111392189Y-75670598D01*
X111392546Y-75670955D01*
X111435941Y-75738656D01*
X111438042Y-75809668D01*
X111398849Y-75877981D01*
X111392546Y-75884546D01*
X111365399Y-75908518D01*
X111335373Y-75923729D01*
X111292557Y-75932150D01*
X111227041Y-75935750D01*
X111131246Y-75936500D01*
X111031204Y-75935424D01*
X110959700Y-75930362D01*
X110902960Y-75918568D01*
X110847205Y-75897293D01*
X110786367Y-75867709D01*
X110659851Y-75783042D01*
X110565952Y-75678070D01*
X110504728Y-75558893D01*
X110476240Y-75431611D01*
X110480545Y-75302324D01*
X110517705Y-75177133D01*
X110587779Y-75062137D01*
X110690826Y-74963438D01*
X110777025Y-74910137D01*
X110838656Y-74880718D01*
X110893977Y-74861425D01*
X110955669Y-74849696D01*
X111036413Y-74842970D01*
X111127709Y-74839331D01*
X111227965Y-74836556D01*
X111294895Y-74836857D01*
G36*
X111294895Y-74836857D02*
G01*
X111337483Y-74841904D01*
X111364713Y-74853368D01*
X111385568Y-74872919D01*
X111399219Y-74889810D01*
X111438397Y-74961635D01*
X111437720Y-75032331D01*
X111420165Y-75075350D01*
X111395217Y-75114486D01*
X111364008Y-75137829D01*
X111315524Y-75149544D01*
X111238756Y-75153795D01*
X111211667Y-75154204D01*
X111086393Y-75162085D01*
X110994810Y-75184385D01*
X110929909Y-75223872D01*
X110884682Y-75283316D01*
X110884631Y-75283412D01*
X110856130Y-75375712D01*
X110867898Y-75463796D01*
X110918092Y-75540194D01*
X110955505Y-75570663D01*
X111004068Y-75597496D01*
X111058711Y-75612389D01*
X111133825Y-75618386D01*
X111184009Y-75619000D01*
X111268207Y-75620668D01*
X111322635Y-75627747D01*
X111359795Y-75643352D01*
X111392189Y-75670598D01*
X111392546Y-75670955D01*
X111435941Y-75738656D01*
X111438042Y-75809668D01*
X111398849Y-75877981D01*
X111392546Y-75884546D01*
X111365399Y-75908518D01*
X111335373Y-75923729D01*
X111292557Y-75932150D01*
X111227041Y-75935750D01*
X111131246Y-75936500D01*
X111031204Y-75935424D01*
X110959700Y-75930362D01*
X110902960Y-75918568D01*
X110847205Y-75897293D01*
X110786367Y-75867709D01*
X110659851Y-75783042D01*
X110565952Y-75678070D01*
X110504728Y-75558893D01*
X110476240Y-75431611D01*
X110480545Y-75302324D01*
X110517705Y-75177133D01*
X110587779Y-75062137D01*
X110690826Y-74963438D01*
X110777025Y-74910137D01*
X110838656Y-74880718D01*
X110893977Y-74861425D01*
X110955669Y-74849696D01*
X111036413Y-74842970D01*
X111127709Y-74839331D01*
X111227965Y-74836556D01*
X111294895Y-74836857D01*
G37*
X109716273Y-74870829D02*
X109832770Y-74911857D01*
X109916931Y-74969135D01*
X109944785Y-74995955D01*
X109967459Y-75022195D01*
X109985485Y-75052306D01*
X109999396Y-75090740D01*
X110009725Y-75141947D01*
X110017005Y-75210378D01*
X110021770Y-75300483D01*
X110024552Y-75416713D01*
X110025885Y-75563520D01*
X110026302Y-75745354D01*
X110026334Y-75882532D01*
X110026334Y-76635000D01*
X109666500Y-76635000D01*
X109666500Y-75238976D01*
X109611144Y-75202706D01*
X109567241Y-75179399D01*
X109531254Y-75182185D01*
X109500019Y-75197730D01*
X109444250Y-75229025D01*
X109438673Y-75932012D01*
X109433096Y-76635000D01*
X109095000Y-76635000D01*
X109094711Y-75973542D01*
X109094228Y-75808213D01*
X109092996Y-75654830D01*
X109091122Y-75518976D01*
X109088712Y-75406237D01*
X109085872Y-75322198D01*
X109082707Y-75272443D01*
X109081234Y-75262835D01*
X109048630Y-75212960D01*
X108992536Y-75188570D01*
X108926619Y-75194869D01*
X108915000Y-75199556D01*
X108862167Y-75223629D01*
X108862167Y-76635000D01*
X108502334Y-76635000D01*
X108502334Y-75865547D01*
X108502387Y-75664838D01*
X108502713Y-75502033D01*
X108503564Y-75372703D01*
X108505192Y-75272419D01*
X108507846Y-75196753D01*
X108511778Y-75141274D01*
X108517240Y-75101555D01*
X108524483Y-75073165D01*
X108533757Y-75051677D01*
X108545314Y-75032660D01*
X108549959Y-75025749D01*
X108633186Y-74939745D01*
X108745367Y-74883861D01*
X108885094Y-74858713D01*
X108934288Y-74857255D01*
X109030273Y-74861296D01*
X109101171Y-74875356D01*
X109163720Y-74902919D01*
X109169674Y-74906274D01*
X109254932Y-74955039D01*
X109347628Y-74906019D01*
X109461028Y-74866505D01*
X109588135Y-74855244D01*
X109716273Y-74870829D01*
G36*
X109716273Y-74870829D02*
G01*
X109832770Y-74911857D01*
X109916931Y-74969135D01*
X109944785Y-74995955D01*
X109967459Y-75022195D01*
X109985485Y-75052306D01*
X109999396Y-75090740D01*
X110009725Y-75141947D01*
X110017005Y-75210378D01*
X110021770Y-75300483D01*
X110024552Y-75416713D01*
X110025885Y-75563520D01*
X110026302Y-75745354D01*
X110026334Y-75882532D01*
X110026334Y-76635000D01*
X109666500Y-76635000D01*
X109666500Y-75238976D01*
X109611144Y-75202706D01*
X109567241Y-75179399D01*
X109531254Y-75182185D01*
X109500019Y-75197730D01*
X109444250Y-75229025D01*
X109438673Y-75932012D01*
X109433096Y-76635000D01*
X109095000Y-76635000D01*
X109094711Y-75973542D01*
X109094228Y-75808213D01*
X109092996Y-75654830D01*
X109091122Y-75518976D01*
X109088712Y-75406237D01*
X109085872Y-75322198D01*
X109082707Y-75272443D01*
X109081234Y-75262835D01*
X109048630Y-75212960D01*
X108992536Y-75188570D01*
X108926619Y-75194869D01*
X108915000Y-75199556D01*
X108862167Y-75223629D01*
X108862167Y-76635000D01*
X108502334Y-76635000D01*
X108502334Y-75865547D01*
X108502387Y-75664838D01*
X108502713Y-75502033D01*
X108503564Y-75372703D01*
X108505192Y-75272419D01*
X108507846Y-75196753D01*
X108511778Y-75141274D01*
X108517240Y-75101555D01*
X108524483Y-75073165D01*
X108533757Y-75051677D01*
X108545314Y-75032660D01*
X108549959Y-75025749D01*
X108633186Y-74939745D01*
X108745367Y-74883861D01*
X108885094Y-74858713D01*
X108934288Y-74857255D01*
X109030273Y-74861296D01*
X109101171Y-74875356D01*
X109163720Y-74902919D01*
X109169674Y-74906274D01*
X109254932Y-74955039D01*
X109347628Y-74906019D01*
X109461028Y-74866505D01*
X109588135Y-74855244D01*
X109716273Y-74870829D01*
G37*
X111769098Y-76054771D02*
X111845303Y-76057788D01*
X111890093Y-76062684D01*
X111898348Y-76065796D01*
X111898208Y-76090977D01*
X111883498Y-76140795D01*
X111870350Y-76174047D01*
X111829469Y-76269418D01*
X111388276Y-76281265D01*
X111221362Y-76286267D01*
X111092201Y-76291604D01*
X110996211Y-76297864D01*
X110928812Y-76305634D01*
X110885425Y-76315503D01*
X110861468Y-76328058D01*
X110852361Y-76343886D01*
X110851834Y-76350077D01*
X110858012Y-76365991D01*
X110880278Y-76381768D01*
X110924226Y-76399461D01*
X110995451Y-76421128D01*
X111099547Y-76448822D01*
X111167498Y-76466030D01*
X111308736Y-76506226D01*
X111415483Y-76548597D01*
X111495550Y-76596946D01*
X111556748Y-76655075D01*
X111557412Y-76655862D01*
X111614297Y-76750709D01*
X111631700Y-76847807D01*
X111611772Y-76941745D01*
X111556665Y-77027113D01*
X111468531Y-77098499D01*
X111362323Y-77146459D01*
X111323298Y-77152602D01*
X111248957Y-77158477D01*
X111146317Y-77163946D01*
X111022394Y-77168868D01*
X110884206Y-77173104D01*
X110738770Y-77176514D01*
X110593102Y-77178959D01*
X110454219Y-77180297D01*
X110329139Y-77180390D01*
X110224879Y-77179099D01*
X110148454Y-77176282D01*
X110106883Y-77171800D01*
X110105709Y-77171491D01*
X110084820Y-77164780D01*
X110073888Y-77153743D01*
X110073623Y-77130379D01*
X110084736Y-77086688D01*
X110107936Y-77014669D01*
X110123891Y-76966739D01*
X110179114Y-76800918D01*
X110362016Y-76818501D01*
X110463988Y-76826308D01*
X110577349Y-76831744D01*
X110693826Y-76834801D01*
X110805150Y-76835474D01*
X110903052Y-76833754D01*
X110979260Y-76829636D01*
X111025505Y-76823112D01*
X111034699Y-76819058D01*
X111039602Y-76802596D01*
X111019403Y-76783549D01*
X110969587Y-76759483D01*
X110885642Y-76727965D01*
X110830667Y-76709058D01*
X110687654Y-76655229D01*
X110580555Y-76601391D01*
X110503110Y-76543844D01*
X110454051Y-76486511D01*
X110415978Y-76402266D01*
X110418797Y-76324622D01*
X110461448Y-76254529D01*
X110542870Y-76192938D01*
X110662002Y-76140797D01*
X110817782Y-76099056D01*
X110904868Y-76083057D01*
X110969490Y-76075609D01*
X111061119Y-76069025D01*
X111172453Y-76063432D01*
X111296189Y-76058957D01*
X111425024Y-76055726D01*
X111551656Y-76053867D01*
X111668782Y-76053507D01*
X111769098Y-76054771D01*
G36*
X111769098Y-76054771D02*
G01*
X111845303Y-76057788D01*
X111890093Y-76062684D01*
X111898348Y-76065796D01*
X111898208Y-76090977D01*
X111883498Y-76140795D01*
X111870350Y-76174047D01*
X111829469Y-76269418D01*
X111388276Y-76281265D01*
X111221362Y-76286267D01*
X111092201Y-76291604D01*
X110996211Y-76297864D01*
X110928812Y-76305634D01*
X110885425Y-76315503D01*
X110861468Y-76328058D01*
X110852361Y-76343886D01*
X110851834Y-76350077D01*
X110858012Y-76365991D01*
X110880278Y-76381768D01*
X110924226Y-76399461D01*
X110995451Y-76421128D01*
X111099547Y-76448822D01*
X111167498Y-76466030D01*
X111308736Y-76506226D01*
X111415483Y-76548597D01*
X111495550Y-76596946D01*
X111556748Y-76655075D01*
X111557412Y-76655862D01*
X111614297Y-76750709D01*
X111631700Y-76847807D01*
X111611772Y-76941745D01*
X111556665Y-77027113D01*
X111468531Y-77098499D01*
X111362323Y-77146459D01*
X111323298Y-77152602D01*
X111248957Y-77158477D01*
X111146317Y-77163946D01*
X111022394Y-77168868D01*
X110884206Y-77173104D01*
X110738770Y-77176514D01*
X110593102Y-77178959D01*
X110454219Y-77180297D01*
X110329139Y-77180390D01*
X110224879Y-77179099D01*
X110148454Y-77176282D01*
X110106883Y-77171800D01*
X110105709Y-77171491D01*
X110084820Y-77164780D01*
X110073888Y-77153743D01*
X110073623Y-77130379D01*
X110084736Y-77086688D01*
X110107936Y-77014669D01*
X110123891Y-76966739D01*
X110179114Y-76800918D01*
X110362016Y-76818501D01*
X110463988Y-76826308D01*
X110577349Y-76831744D01*
X110693826Y-76834801D01*
X110805150Y-76835474D01*
X110903052Y-76833754D01*
X110979260Y-76829636D01*
X111025505Y-76823112D01*
X111034699Y-76819058D01*
X111039602Y-76802596D01*
X111019403Y-76783549D01*
X110969587Y-76759483D01*
X110885642Y-76727965D01*
X110830667Y-76709058D01*
X110687654Y-76655229D01*
X110580555Y-76601391D01*
X110503110Y-76543844D01*
X110454051Y-76486511D01*
X110415978Y-76402266D01*
X110418797Y-76324622D01*
X110461448Y-76254529D01*
X110542870Y-76192938D01*
X110662002Y-76140797D01*
X110817782Y-76099056D01*
X110904868Y-76083057D01*
X110969490Y-76075609D01*
X111061119Y-76069025D01*
X111172453Y-76063432D01*
X111296189Y-76058957D01*
X111425024Y-76055726D01*
X111551656Y-76053867D01*
X111668782Y-76053507D01*
X111769098Y-76054771D01*
G37*
D14*
%TO.C,R2*%
X111515000Y-93227064D02*
X111515000Y-92772936D01*
X112985000Y-93227064D02*
X112985000Y-92772936D01*
%TO.C,RT9193*%
X116250000Y-91440000D02*
X115450000Y-91440000D01*
X116250000Y-91440000D02*
X117050000Y-91440000D01*
X116250000Y-94560000D02*
X115450000Y-94560000D01*
X116250000Y-94560000D02*
X117050000Y-94560000D01*
X114950000Y-91490000D02*
X114710000Y-91160000D01*
X115190000Y-91160000D01*
X114950000Y-91490000D01*
G36*
X114950000Y-91490000D02*
G01*
X114710000Y-91160000D01*
X115190000Y-91160000D01*
X114950000Y-91490000D01*
G37*
%TO.C,C4*%
X116738748Y-89265000D02*
X117261252Y-89265000D01*
X116738748Y-90735000D02*
X117261252Y-90735000D01*
%TO.C,C2*%
X113261252Y-88765000D02*
X112738748Y-88765000D01*
X113261252Y-90235000D02*
X112738748Y-90235000D01*
%TD*%
M02*
