%TF.GenerationSoftware,KiCad,Pcbnew,9.0.2*%
%TF.CreationDate,2025-08-06T21:30:35+02:00*%
%TF.ProjectId,MicroSD_Zelda_FORO_JLC_FIX_V2 - NO_LOGO,4d696372-6f53-4445-9f5a-656c64615f46,rev?*%
%TF.SameCoordinates,Original*%
%TF.FileFunction,Copper,L2,Bot*%
%TF.FilePolarity,Positive*%
%FSLAX46Y46*%
G04 Gerber Fmt 4.6, Leading zero omitted, Abs format (unit mm)*
G04 Created by KiCad (PCBNEW 9.0.2) date 2025-08-06 21:30:35*
%MOMM*%
%LPD*%
G01*
G04 APERTURE LIST*
%TA.AperFunction,ComponentPad*%
%ADD10C,3.000000*%
%TD*%
%TA.AperFunction,SMDPad,CuDef*%
%ADD11R,0.300000X1.200000*%
%TD*%
%TA.AperFunction,ViaPad*%
%ADD12C,0.650000*%
%TD*%
%TA.AperFunction,Conductor*%
%ADD13C,0.250000*%
%TD*%
G04 APERTURE END LIST*
D10*
%TO.P,H1,1*%
%TO.N,N/C*%
X100000000Y-74100000D03*
%TD*%
%TO.P,H3,1*%
%TO.N,N/C*%
X123100000Y-91600000D03*
%TD*%
%TO.P,H2,1*%
%TO.N,N/C*%
X119500000Y-72900000D03*
%TD*%
%TO.P,H4,1*%
%TO.N,N/C*%
X101400000Y-92400000D03*
%TD*%
D11*
%TO.P,,88*%
%TO.N,N/C*%
X106000000Y-100125000D03*
%TD*%
%TO.P,,96*%
%TO.N,N/C*%
X102000000Y-100110000D03*
%TD*%
%TO.P,,99*%
%TO.N,N/C*%
X100500000Y-100110000D03*
%TD*%
%TO.P,,89*%
%TO.N,N/C*%
X105500000Y-100125000D03*
%TD*%
%TO.P,,83*%
%TO.N,N/C*%
X108500000Y-100125000D03*
%TD*%
%TO.P,,77*%
%TO.N,N/C*%
X111500000Y-100125000D03*
%TD*%
%TO.P,,90*%
%TO.N,N/C*%
X105000000Y-100125000D03*
%TD*%
D12*
%TO.N,GND*%
X116500000Y-88500000D03*
X100500000Y-97730000D03*
X110950000Y-92000000D03*
X116500000Y-93000000D03*
%TO.N,Net-(J8-Pin_1)*%
X101960000Y-86560000D03*
X110975000Y-89500000D03*
%TO.N,Net-(J9-VDD)*%
X118037500Y-88500000D03*
X111460000Y-86750000D03*
%TO.N,/MISO*%
X110225000Y-97200000D03*
X105625000Y-97200000D03*
%TO.N,/CLK*%
X105775000Y-98100000D03*
X107725000Y-98100000D03*
%TD*%
D13*
%TO.N,GND*%
X110950000Y-91250000D02*
X116500000Y-91250000D01*
X103710000Y-97710000D02*
X100520000Y-97710000D01*
X104800000Y-98800000D02*
X103710000Y-97710000D01*
X110950000Y-98800000D02*
X104800000Y-98800000D01*
X110950000Y-92000000D02*
X110950000Y-91250000D01*
X100520000Y-97710000D02*
X100500000Y-97730000D01*
X116500000Y-92000000D02*
X116500000Y-93000000D01*
X116500000Y-88500000D02*
X116500000Y-91250000D01*
X116500000Y-91250000D02*
X116500000Y-92000000D01*
X110950000Y-92000000D02*
X110950000Y-98800000D01*
%TO.N,Net-(J8-Pin_1)*%
X108570000Y-87460000D02*
X110975000Y-87460000D01*
X110975000Y-87460000D02*
X110975000Y-89500000D01*
X101980000Y-86580000D02*
X107690000Y-86580000D01*
X107690000Y-86580000D02*
X108570000Y-87460000D01*
X101960000Y-86560000D02*
X101980000Y-86580000D01*
%TO.N,Net-(J9-VDD)*%
X111460000Y-86750000D02*
X117537500Y-86750000D01*
X117537500Y-86750000D02*
X118037500Y-87250000D01*
X118037500Y-87250000D02*
X118037500Y-88500000D01*
%TO.N,/MISO*%
X105650000Y-97175000D02*
X105825000Y-97175000D01*
X105625000Y-97200000D02*
X110225000Y-97200000D01*
X105625000Y-97200000D02*
X105650000Y-97175000D01*
%TO.N,/CLK*%
X107725000Y-98100000D02*
X105775000Y-98100000D01*
X105682536Y-98100000D02*
X105775000Y-98100000D01*
%TD*%
%TA.AperFunction,Conductor*%
%TO.N,GND*%
G36*
X118220272Y-71122371D02*
G01*
X118289562Y-71177529D01*
X118328058Y-71257288D01*
X118328135Y-71345851D01*
X118289779Y-71425678D01*
X118255231Y-71459615D01*
X118244226Y-71468059D01*
X118244220Y-71468064D01*
X118068064Y-71644220D01*
X117916401Y-71841873D01*
X117916399Y-71841876D01*
X117791835Y-72057629D01*
X117791834Y-72057631D01*
X117696497Y-72287795D01*
X117632019Y-72528430D01*
X117632018Y-72528435D01*
X117599500Y-72775435D01*
X117599500Y-73024565D01*
X117632018Y-73271565D01*
X117696498Y-73512207D01*
X117791836Y-73742373D01*
X117916401Y-73958127D01*
X118025233Y-74099960D01*
X118068064Y-74155779D01*
X118244220Y-74331935D01*
X118244224Y-74331938D01*
X118441873Y-74483599D01*
X118657627Y-74608164D01*
X118887793Y-74703502D01*
X119128435Y-74767982D01*
X119375435Y-74800500D01*
X119375438Y-74800500D01*
X119624562Y-74800500D01*
X119624565Y-74800500D01*
X119871565Y-74767982D01*
X120112207Y-74703502D01*
X120342373Y-74608164D01*
X120558127Y-74483599D01*
X120755776Y-74331938D01*
X120755779Y-74331935D01*
X120759786Y-74327929D01*
X120834774Y-74280810D01*
X120922781Y-74270894D01*
X121006374Y-74300145D01*
X121068998Y-74362769D01*
X121098249Y-74446362D01*
X121099500Y-74468643D01*
X121099500Y-76486960D01*
X121097797Y-76512938D01*
X121089306Y-76577424D01*
X121075862Y-76627598D01*
X121056003Y-76675543D01*
X121030027Y-76720534D01*
X120998437Y-76761703D01*
X120961703Y-76798437D01*
X120920534Y-76830027D01*
X120875543Y-76856003D01*
X120827598Y-76875862D01*
X120777424Y-76889306D01*
X120736510Y-76894693D01*
X120712932Y-76897797D01*
X120686960Y-76899500D01*
X119782339Y-76899500D01*
X119650413Y-76929610D01*
X119528493Y-76988324D01*
X119422695Y-77072695D01*
X119338324Y-77178493D01*
X119279610Y-77300413D01*
X119249500Y-77432338D01*
X119249500Y-77432340D01*
X119249500Y-77480009D01*
X119249500Y-82830041D01*
X119249487Y-82830073D01*
X119249500Y-82850226D01*
X119249500Y-82888723D01*
X119249524Y-82888975D01*
X119253078Y-88432955D01*
X119253143Y-88433707D01*
X119253140Y-88461194D01*
X119283237Y-88593116D01*
X119283239Y-88593121D01*
X119323156Y-88676029D01*
X119341935Y-88715033D01*
X119426289Y-88820831D01*
X119532070Y-88905205D01*
X119653975Y-88963925D01*
X119785889Y-88994046D01*
X119823280Y-88994049D01*
X119833604Y-88994050D01*
X119833609Y-88994053D01*
X119853544Y-88994053D01*
X119880472Y-88994055D01*
X119880472Y-88994054D01*
X119909913Y-88994056D01*
X119909940Y-88994053D01*
X125133390Y-88994053D01*
X125159367Y-88995756D01*
X125223868Y-89004253D01*
X125274032Y-89017698D01*
X125321980Y-89037561D01*
X125366968Y-89063537D01*
X125408142Y-89095133D01*
X125444866Y-89131857D01*
X125476462Y-89173031D01*
X125502438Y-89218019D01*
X125522301Y-89265967D01*
X125535747Y-89316137D01*
X125544222Y-89380470D01*
X125545927Y-89406756D01*
X125539576Y-93683884D01*
X125539505Y-93684432D01*
X125539501Y-93723398D01*
X125537796Y-93749364D01*
X125529300Y-93813856D01*
X125515854Y-93864026D01*
X125495991Y-93911970D01*
X125470017Y-93956953D01*
X125449568Y-93983600D01*
X125438424Y-93998121D01*
X125401689Y-94034851D01*
X125360522Y-94066436D01*
X125315539Y-94092405D01*
X125267596Y-94112263D01*
X125217419Y-94125707D01*
X125152575Y-94134244D01*
X125126600Y-94135947D01*
X119833557Y-94135947D01*
X119817017Y-94139236D01*
X119796921Y-94141217D01*
X119796988Y-94141806D01*
X119785884Y-94143057D01*
X119653967Y-94173177D01*
X119532056Y-94231891D01*
X119532050Y-94231895D01*
X119426262Y-94316262D01*
X119341895Y-94422050D01*
X119341891Y-94422056D01*
X119283177Y-94543968D01*
X119253058Y-94675883D01*
X119253053Y-94738590D01*
X119252942Y-94745215D01*
X119251223Y-94796694D01*
X119249500Y-94808299D01*
X119249500Y-94836958D01*
X119247797Y-94862935D01*
X119239306Y-94927424D01*
X119225861Y-94977601D01*
X119206002Y-95025545D01*
X119180027Y-95070534D01*
X119148437Y-95111703D01*
X119111703Y-95148437D01*
X119070534Y-95180027D01*
X119025543Y-95206003D01*
X118977598Y-95225862D01*
X118927424Y-95239306D01*
X118886510Y-95244693D01*
X118862932Y-95247797D01*
X118836960Y-95249500D01*
X113082339Y-95249500D01*
X112950413Y-95279610D01*
X112828493Y-95338324D01*
X112722695Y-95422695D01*
X112638324Y-95528493D01*
X112579610Y-95650413D01*
X112549500Y-95782338D01*
X112549500Y-99174339D01*
X112547049Y-99205475D01*
X112544839Y-99219426D01*
X112511865Y-99301622D01*
X112446494Y-99361371D01*
X112379426Y-99384839D01*
X112365475Y-99387049D01*
X112334339Y-99389500D01*
X112152398Y-99389500D01*
X112066055Y-99369793D01*
X111996814Y-99314574D01*
X111984945Y-99296147D01*
X111978049Y-99286656D01*
X111888342Y-99196949D01*
X111775307Y-99139355D01*
X111775304Y-99139354D01*
X111775302Y-99139353D01*
X111775300Y-99139353D01*
X111681525Y-99124501D01*
X111681519Y-99124500D01*
X111681511Y-99124500D01*
X111318481Y-99124500D01*
X111224696Y-99139354D01*
X111224694Y-99139354D01*
X111111655Y-99196951D01*
X111021949Y-99286657D01*
X110964355Y-99399692D01*
X110964353Y-99399699D01*
X110949501Y-99493474D01*
X110949500Y-99493488D01*
X110949501Y-100030500D01*
X110929794Y-100116843D01*
X110874576Y-100186084D01*
X110794783Y-100224511D01*
X110750501Y-100229500D01*
X109249500Y-100229500D01*
X109163157Y-100209793D01*
X109093916Y-100154574D01*
X109055489Y-100074782D01*
X109050500Y-100030500D01*
X109050499Y-99493481D01*
X109048122Y-99478474D01*
X109035646Y-99399696D01*
X108978050Y-99286658D01*
X108978049Y-99286657D01*
X108978048Y-99286655D01*
X108888342Y-99196949D01*
X108775307Y-99139355D01*
X108775304Y-99139354D01*
X108775302Y-99139353D01*
X108775300Y-99139353D01*
X108681525Y-99124501D01*
X108681519Y-99124500D01*
X108681511Y-99124500D01*
X108318481Y-99124500D01*
X108224696Y-99139354D01*
X108224694Y-99139354D01*
X108111655Y-99196951D01*
X108021950Y-99286656D01*
X108012745Y-99299327D01*
X108010713Y-99297851D01*
X108002451Y-99307747D01*
X107982652Y-99336659D01*
X107974316Y-99341448D01*
X107968155Y-99348829D01*
X107936248Y-99363321D01*
X107905862Y-99380781D01*
X107893853Y-99382578D01*
X107887520Y-99385455D01*
X107876311Y-99385203D01*
X107847602Y-99389500D01*
X106652398Y-99389500D01*
X106566055Y-99369793D01*
X106496814Y-99314574D01*
X106484945Y-99296147D01*
X106478049Y-99286656D01*
X106388342Y-99196949D01*
X106275307Y-99139355D01*
X106275301Y-99139353D01*
X106187935Y-99125516D01*
X106149576Y-99110129D01*
X106110780Y-99095924D01*
X106108618Y-99093699D01*
X106105738Y-99092544D01*
X106077852Y-99062036D01*
X106049063Y-99032407D01*
X106048080Y-99029464D01*
X106045987Y-99027174D01*
X106034104Y-98987600D01*
X106021017Y-98948401D01*
X106021408Y-98945322D01*
X106020517Y-98942352D01*
X106026981Y-98901537D01*
X106032198Y-98860547D01*
X106033885Y-98857945D01*
X106034371Y-98854879D01*
X106057914Y-98820896D01*
X106080390Y-98786243D01*
X106083039Y-98784630D01*
X106084807Y-98782080D01*
X106156046Y-98740209D01*
X106468956Y-98635741D01*
X106531974Y-98625500D01*
X106968028Y-98625500D01*
X107031046Y-98635741D01*
X107496203Y-98791038D01*
X107509328Y-98795940D01*
X107513380Y-98797619D01*
X107513383Y-98797619D01*
X107516464Y-98798554D01*
X107528366Y-98801514D01*
X107544596Y-98806382D01*
X107544616Y-98806387D01*
X107544625Y-98806390D01*
X107545956Y-98806745D01*
X107545963Y-98806746D01*
X107545984Y-98806752D01*
X107601533Y-98817475D01*
X107601535Y-98817474D01*
X107601536Y-98817475D01*
X107608798Y-98818037D01*
X107621930Y-98819844D01*
X107623516Y-98819729D01*
X107624813Y-98820241D01*
X107632268Y-98821267D01*
X107653545Y-98825500D01*
X107653546Y-98825500D01*
X107796454Y-98825500D01*
X107796455Y-98825500D01*
X107936620Y-98797619D01*
X108068653Y-98742929D01*
X108187479Y-98663532D01*
X108288532Y-98562479D01*
X108367929Y-98443653D01*
X108422619Y-98311620D01*
X108450500Y-98171455D01*
X108450500Y-98028545D01*
X108437526Y-97963321D01*
X108440009Y-97874795D01*
X108480658Y-97796111D01*
X108551421Y-97742857D01*
X108632702Y-97725500D01*
X109468028Y-97725500D01*
X109531046Y-97735741D01*
X110002854Y-97893259D01*
X110013380Y-97897619D01*
X110019647Y-97898865D01*
X110020631Y-97899194D01*
X110044596Y-97906382D01*
X110044616Y-97906387D01*
X110044625Y-97906390D01*
X110045956Y-97906745D01*
X110045963Y-97906746D01*
X110045984Y-97906752D01*
X110101533Y-97917475D01*
X110101535Y-97917474D01*
X110101536Y-97917475D01*
X110108798Y-97918037D01*
X110132268Y-97921267D01*
X110153545Y-97925500D01*
X110153546Y-97925500D01*
X110296454Y-97925500D01*
X110296455Y-97925500D01*
X110436620Y-97897619D01*
X110568653Y-97842929D01*
X110687479Y-97763532D01*
X110788532Y-97662479D01*
X110867929Y-97543653D01*
X110922619Y-97411620D01*
X110950500Y-97271455D01*
X110950500Y-97128545D01*
X110922619Y-96988380D01*
X110867929Y-96856347D01*
X110788532Y-96737521D01*
X110687479Y-96636468D01*
X110627666Y-96596502D01*
X110568655Y-96557072D01*
X110568651Y-96557070D01*
X110447136Y-96506737D01*
X110436620Y-96502381D01*
X110436618Y-96502380D01*
X110436617Y-96502380D01*
X110336794Y-96482524D01*
X110296455Y-96474500D01*
X110153545Y-96474500D01*
X110153541Y-96474500D01*
X110027844Y-96499503D01*
X110024773Y-96500113D01*
X110020633Y-96500804D01*
X110019647Y-96501132D01*
X110013391Y-96502377D01*
X110013371Y-96502383D01*
X110009325Y-96504059D01*
X109996224Y-96508951D01*
X109614288Y-96636465D01*
X109549498Y-96658096D01*
X109531041Y-96664258D01*
X109468022Y-96674500D01*
X106381973Y-96674500D01*
X106318949Y-96664256D01*
X106300500Y-96658096D01*
X106224843Y-96612058D01*
X106176653Y-96537753D01*
X106165476Y-96449898D01*
X106193525Y-96365893D01*
X106255244Y-96302378D01*
X106312031Y-96277118D01*
X106392441Y-96255582D01*
X106483773Y-96202859D01*
X106558345Y-96128291D01*
X106611073Y-96036962D01*
X106638363Y-95935097D01*
X106638359Y-95886653D01*
X106638440Y-95880968D01*
X106638820Y-95867667D01*
X106711040Y-93340590D01*
X106711086Y-93339210D01*
X106711948Y-93315329D01*
X106712521Y-93314338D01*
X106712520Y-93299472D01*
X106712650Y-93295883D01*
X106713267Y-93293565D01*
X106714967Y-93271953D01*
X106717230Y-93257657D01*
X106733948Y-93215973D01*
X106735459Y-93210308D01*
X106736889Y-93208640D01*
X106750196Y-93175464D01*
X106815562Y-93115708D01*
X106882658Y-93092230D01*
X106894983Y-93090278D01*
X106929846Y-93087865D01*
X107573352Y-93099993D01*
X107574224Y-93100497D01*
X107600203Y-93100499D01*
X107619258Y-93100859D01*
X107619259Y-93100858D01*
X107632083Y-93101101D01*
X107639179Y-93100469D01*
X107653855Y-93100470D01*
X107653876Y-93100471D01*
X107653876Y-93100470D01*
X107653879Y-93100471D01*
X107755741Y-93073188D01*
X107847070Y-93020469D01*
X107921640Y-92945907D01*
X107974370Y-92854585D01*
X108001665Y-92752726D01*
X108001665Y-92701938D01*
X108001683Y-92699284D01*
X108016448Y-91592179D01*
X108018005Y-91475435D01*
X121199500Y-91475435D01*
X121199500Y-91724565D01*
X121230133Y-91957248D01*
X121232019Y-91971569D01*
X121256854Y-92064256D01*
X121296498Y-92212207D01*
X121391836Y-92442373D01*
X121516401Y-92658127D01*
X121603445Y-92771565D01*
X121668064Y-92855779D01*
X121844220Y-93031935D01*
X121844224Y-93031938D01*
X122041873Y-93183599D01*
X122257627Y-93308164D01*
X122487793Y-93403502D01*
X122728435Y-93467982D01*
X122975435Y-93500500D01*
X122975438Y-93500500D01*
X123224562Y-93500500D01*
X123224565Y-93500500D01*
X123471565Y-93467982D01*
X123712207Y-93403502D01*
X123942373Y-93308164D01*
X124158127Y-93183599D01*
X124355776Y-93031938D01*
X124531938Y-92855776D01*
X124683599Y-92658127D01*
X124808164Y-92442373D01*
X124903502Y-92212207D01*
X124967982Y-91971565D01*
X125000500Y-91724565D01*
X125000500Y-91475435D01*
X124967982Y-91228435D01*
X124903502Y-90987793D01*
X124808164Y-90757627D01*
X124683599Y-90541873D01*
X124531938Y-90344224D01*
X124531935Y-90344220D01*
X124355779Y-90168064D01*
X124299960Y-90125233D01*
X124158127Y-90016401D01*
X123942373Y-89891836D01*
X123712207Y-89796498D01*
X123712205Y-89796497D01*
X123712204Y-89796497D01*
X123471569Y-89732019D01*
X123471568Y-89732018D01*
X123471565Y-89732018D01*
X123224565Y-89699500D01*
X122975435Y-89699500D01*
X122728435Y-89732018D01*
X122728432Y-89732018D01*
X122728430Y-89732019D01*
X122487795Y-89796497D01*
X122257631Y-89891834D01*
X122257629Y-89891835D01*
X122257627Y-89891836D01*
X122192356Y-89929520D01*
X122041876Y-90016399D01*
X122041873Y-90016401D01*
X121844220Y-90168064D01*
X121668064Y-90344220D01*
X121548915Y-90499500D01*
X121516401Y-90541873D01*
X121391836Y-90757627D01*
X121296498Y-90987793D01*
X121232018Y-91228435D01*
X121199500Y-91475435D01*
X108018005Y-91475435D01*
X108057756Y-88494799D01*
X108058059Y-88494276D01*
X108058056Y-88472333D01*
X108058314Y-88453030D01*
X108058313Y-88453028D01*
X108058522Y-88437393D01*
X108058164Y-88433440D01*
X108058220Y-88412263D01*
X108029055Y-88306026D01*
X107974142Y-88213521D01*
X107972819Y-88211292D01*
X107893521Y-88134817D01*
X107893520Y-88134816D01*
X107832911Y-88101746D01*
X107796812Y-88082049D01*
X107689588Y-88056752D01*
X107636570Y-88058810D01*
X107617531Y-88058682D01*
X107617524Y-88058681D01*
X105115493Y-88041873D01*
X105112901Y-88041523D01*
X105063484Y-88041520D01*
X105063484Y-88041519D01*
X105062598Y-88041518D01*
X105043099Y-88041388D01*
X105042777Y-88041518D01*
X105023515Y-88041518D01*
X105009645Y-88041518D01*
X105009644Y-88041518D01*
X105009639Y-88041518D01*
X105009635Y-88041518D01*
X105009635Y-88041519D01*
X104907675Y-88068836D01*
X104816253Y-88121616D01*
X104741616Y-88196253D01*
X104688836Y-88287675D01*
X104661518Y-88389639D01*
X104661518Y-88439167D01*
X104661471Y-88443483D01*
X104598269Y-91356813D01*
X104598222Y-91358604D01*
X104597489Y-91382465D01*
X104597140Y-91383071D01*
X104597140Y-91393846D01*
X104597046Y-91396908D01*
X104596260Y-91399921D01*
X104593470Y-91428844D01*
X104590286Y-91445192D01*
X104576096Y-91477244D01*
X104574699Y-91482605D01*
X104572661Y-91485005D01*
X104554436Y-91526175D01*
X104486999Y-91583583D01*
X104439269Y-91601153D01*
X104432347Y-91602733D01*
X104426285Y-91604118D01*
X104381975Y-91609114D01*
X104357231Y-91609114D01*
X104255267Y-91636434D01*
X104163848Y-91689215D01*
X104163847Y-91689216D01*
X104163846Y-91689216D01*
X104089206Y-91763858D01*
X104036429Y-91855279D01*
X104036427Y-91855282D01*
X104009112Y-91957240D01*
X104009111Y-91957248D01*
X104009115Y-92010023D01*
X104009118Y-92063062D01*
X104009274Y-92064256D01*
X103999308Y-95820848D01*
X103999308Y-95820849D01*
X103999239Y-95846671D01*
X103999192Y-95846754D01*
X103999185Y-95866984D01*
X103999185Y-95866996D01*
X103999184Y-95867446D01*
X103999081Y-95906654D01*
X103999168Y-95907563D01*
X103999134Y-95928226D01*
X104028252Y-96033356D01*
X104028253Y-96033357D01*
X104028254Y-96033361D01*
X104084405Y-96126891D01*
X104084406Y-96126892D01*
X104163507Y-96202016D01*
X104259805Y-96253274D01*
X104290227Y-96260033D01*
X104366299Y-96276937D01*
X104412244Y-96274490D01*
X104423746Y-96274212D01*
X105045216Y-96277142D01*
X105131465Y-96297256D01*
X105200446Y-96352800D01*
X105238495Y-96432774D01*
X105238078Y-96521336D01*
X105199276Y-96600947D01*
X105168864Y-96628783D01*
X105170080Y-96630265D01*
X105162517Y-96636471D01*
X105061471Y-96737517D01*
X105061465Y-96737525D01*
X104982072Y-96856344D01*
X104982070Y-96856348D01*
X104927380Y-96988382D01*
X104899500Y-97128545D01*
X104899500Y-97271454D01*
X104927380Y-97411617D01*
X104982070Y-97543651D01*
X104982072Y-97543655D01*
X105066899Y-97670607D01*
X105065013Y-97671866D01*
X105098103Y-97738188D01*
X105099342Y-97826742D01*
X105088585Y-97861330D01*
X105077380Y-97888382D01*
X105070839Y-97921268D01*
X105049500Y-98028545D01*
X105049500Y-98171455D01*
X105077381Y-98311620D01*
X105132071Y-98443653D01*
X105211468Y-98562479D01*
X105312521Y-98663532D01*
X105431347Y-98742929D01*
X105431350Y-98742930D01*
X105439968Y-98747537D01*
X105439027Y-98749295D01*
X105462344Y-98765835D01*
X105497036Y-98789136D01*
X105498350Y-98791375D01*
X105500469Y-98792879D01*
X105520694Y-98829463D01*
X105541849Y-98865524D01*
X105542061Y-98868113D01*
X105543318Y-98870387D01*
X105545666Y-98912112D01*
X105549081Y-98953792D01*
X105548148Y-98956218D01*
X105548294Y-98958810D01*
X105532302Y-98997432D01*
X105517298Y-99036456D01*
X105515407Y-99038235D01*
X105514413Y-99040636D01*
X105483243Y-99068497D01*
X105452797Y-99097144D01*
X105450496Y-99097769D01*
X105448383Y-99099658D01*
X105368351Y-99123835D01*
X105360223Y-99124500D01*
X105318482Y-99124501D01*
X105273741Y-99131586D01*
X105266250Y-99132200D01*
X105253833Y-99130416D01*
X105218876Y-99130416D01*
X105194563Y-99126565D01*
X105181519Y-99124500D01*
X105181517Y-99124500D01*
X104818481Y-99124500D01*
X104724696Y-99139354D01*
X104724694Y-99139354D01*
X104611655Y-99196951D01*
X104521950Y-99286656D01*
X104512745Y-99299327D01*
X104510713Y-99297851D01*
X104468155Y-99348829D01*
X104387520Y-99385455D01*
X104347602Y-99389500D01*
X102660041Y-99389500D01*
X102573698Y-99369793D01*
X102504457Y-99314574D01*
X102482731Y-99280845D01*
X102478048Y-99271655D01*
X102388342Y-99181949D01*
X102275307Y-99124355D01*
X102275304Y-99124354D01*
X102275302Y-99124353D01*
X102275300Y-99124353D01*
X102181525Y-99109501D01*
X102181519Y-99109500D01*
X102181511Y-99109500D01*
X101818481Y-99109500D01*
X101724696Y-99124354D01*
X101724694Y-99124354D01*
X101611655Y-99181951D01*
X101521949Y-99271657D01*
X101464355Y-99384692D01*
X101464353Y-99384699D01*
X101449501Y-99478474D01*
X101449500Y-99478488D01*
X101449501Y-100035500D01*
X101444512Y-100057358D01*
X101444512Y-100079782D01*
X101434783Y-100099983D01*
X101429794Y-100121843D01*
X101415812Y-100139375D01*
X101406085Y-100159574D01*
X101388557Y-100173552D01*
X101374576Y-100191084D01*
X101354374Y-100200812D01*
X101336844Y-100214793D01*
X101314984Y-100219782D01*
X101294783Y-100229511D01*
X101250501Y-100234500D01*
X101249500Y-100234500D01*
X101163157Y-100214793D01*
X101093916Y-100159574D01*
X101055489Y-100079782D01*
X101050500Y-100035500D01*
X101050499Y-99478481D01*
X101043757Y-99435913D01*
X101035646Y-99384696D01*
X100978050Y-99271658D01*
X100978049Y-99271657D01*
X100978048Y-99271655D01*
X100888342Y-99181949D01*
X100775307Y-99124355D01*
X100775304Y-99124354D01*
X100775302Y-99124353D01*
X100775300Y-99124353D01*
X100681525Y-99109501D01*
X100681519Y-99109500D01*
X100681511Y-99109500D01*
X100318481Y-99109500D01*
X100224696Y-99124354D01*
X100224694Y-99124354D01*
X100111655Y-99181951D01*
X100021951Y-99271655D01*
X100017269Y-99280845D01*
X100004312Y-99296364D01*
X99995543Y-99314574D01*
X99976294Y-99329924D01*
X99960511Y-99348830D01*
X99942104Y-99357190D01*
X99926302Y-99369793D01*
X99902297Y-99375271D01*
X99879876Y-99385456D01*
X99839959Y-99389500D01*
X99715661Y-99389500D01*
X99684533Y-99387050D01*
X99670575Y-99384839D01*
X99638013Y-99371777D01*
X99629318Y-99369793D01*
X99625524Y-99366767D01*
X99588379Y-99351867D01*
X99528629Y-99286495D01*
X99505158Y-99219412D01*
X99502949Y-99205461D01*
X99500500Y-99174339D01*
X99500500Y-99137373D01*
X99500421Y-99136786D01*
X99494766Y-95274241D01*
X99494767Y-95273666D01*
X99494777Y-95269947D01*
X99494920Y-95214863D01*
X99465755Y-95108625D01*
X99409518Y-95013892D01*
X99409517Y-95013891D01*
X99409516Y-95013889D01*
X99330222Y-94937418D01*
X99330219Y-94937416D01*
X99233510Y-94884648D01*
X99126286Y-94859351D01*
X99126283Y-94859351D01*
X99126282Y-94859350D01*
X99078272Y-94861215D01*
X99068589Y-94861355D01*
X98924756Y-94859936D01*
X98905346Y-94857794D01*
X98886814Y-94858756D01*
X98854580Y-94857811D01*
X98839984Y-94856193D01*
X98756338Y-94827093D01*
X98693602Y-94764582D01*
X98665514Y-94690504D01*
X98663140Y-94675969D01*
X98660537Y-94643441D01*
X98665906Y-92275435D01*
X99499500Y-92275435D01*
X99499500Y-92524565D01*
X99529538Y-92752730D01*
X99532019Y-92771569D01*
X99570139Y-92913836D01*
X99596498Y-93012207D01*
X99691836Y-93242373D01*
X99816401Y-93458127D01*
X99848915Y-93500500D01*
X99968064Y-93655779D01*
X100144220Y-93831935D01*
X100144224Y-93831938D01*
X100341873Y-93983599D01*
X100557627Y-94108164D01*
X100787793Y-94203502D01*
X101028435Y-94267982D01*
X101275435Y-94300500D01*
X101275438Y-94300500D01*
X101524562Y-94300500D01*
X101524565Y-94300500D01*
X101771565Y-94267982D01*
X102012207Y-94203502D01*
X102242373Y-94108164D01*
X102458127Y-93983599D01*
X102655776Y-93831938D01*
X102831938Y-93655776D01*
X102983599Y-93458127D01*
X103108164Y-93242373D01*
X103203502Y-93012207D01*
X103267982Y-92771565D01*
X103300500Y-92524565D01*
X103300500Y-92275435D01*
X103267982Y-92028435D01*
X103203502Y-91787793D01*
X103108164Y-91557627D01*
X102983599Y-91341873D01*
X102831938Y-91144224D01*
X102831935Y-91144220D01*
X102655779Y-90968064D01*
X102599960Y-90925233D01*
X102458127Y-90816401D01*
X102242373Y-90691836D01*
X102012207Y-90596498D01*
X102012205Y-90596497D01*
X102012204Y-90596497D01*
X101771569Y-90532019D01*
X101771568Y-90532018D01*
X101771565Y-90532018D01*
X101524565Y-90499500D01*
X101275435Y-90499500D01*
X101028435Y-90532018D01*
X101028432Y-90532018D01*
X101028430Y-90532019D01*
X100787795Y-90596497D01*
X100557631Y-90691834D01*
X100557629Y-90691835D01*
X100341876Y-90816399D01*
X100341873Y-90816401D01*
X100144220Y-90968064D01*
X99968064Y-91144220D01*
X99816401Y-91341873D01*
X99816399Y-91341876D01*
X99691835Y-91557629D01*
X99691834Y-91557631D01*
X99596497Y-91787795D01*
X99547256Y-91971565D01*
X99532018Y-92028435D01*
X99499500Y-92275435D01*
X98665906Y-92275435D01*
X98670380Y-90302239D01*
X98670462Y-90276992D01*
X98670500Y-90276929D01*
X98670500Y-90265327D01*
X98670501Y-90265018D01*
X98670575Y-90264694D01*
X98672949Y-90234538D01*
X98675158Y-90220587D01*
X98688497Y-90187328D01*
X98690487Y-90178739D01*
X98693395Y-90175115D01*
X98708126Y-90138389D01*
X98773493Y-90078635D01*
X98840583Y-90055159D01*
X98854546Y-90052947D01*
X98885661Y-90050500D01*
X102842725Y-90050500D01*
X102842727Y-90050500D01*
X102944587Y-90023207D01*
X102977704Y-90004087D01*
X103035907Y-89970484D01*
X103035911Y-89970481D01*
X103035910Y-89970481D01*
X103035913Y-89970480D01*
X103110480Y-89895913D01*
X103110481Y-89895910D01*
X103110484Y-89895907D01*
X103163205Y-89804590D01*
X103163204Y-89804590D01*
X103163207Y-89804587D01*
X103190500Y-89702727D01*
X103190500Y-89650000D01*
X103190500Y-89623071D01*
X103190500Y-88320009D01*
X103190500Y-88302932D01*
X103189914Y-88296906D01*
X103189954Y-88282970D01*
X103160815Y-88176736D01*
X103139147Y-88140218D01*
X103104605Y-88082004D01*
X103104599Y-88081996D01*
X103025321Y-88005515D01*
X102928633Y-87952742D01*
X102928630Y-87952741D01*
X102821418Y-87927434D01*
X102821416Y-87927434D01*
X102821412Y-87927433D01*
X102772771Y-87929318D01*
X102771929Y-87929351D01*
X102764227Y-87929500D01*
X99957846Y-87929500D01*
X99938474Y-87928555D01*
X99903355Y-87925119D01*
X99894055Y-87920376D01*
X99868452Y-87921706D01*
X99853628Y-87920256D01*
X99852996Y-87920045D01*
X99851071Y-87919989D01*
X99839247Y-87918678D01*
X99836494Y-87918373D01*
X99752849Y-87889269D01*
X99690116Y-87826756D01*
X99662030Y-87752666D01*
X99659632Y-87737981D01*
X99657031Y-87706262D01*
X99656924Y-87645085D01*
X99654909Y-86488545D01*
X101234500Y-86488545D01*
X101234500Y-86631454D01*
X101262380Y-86771617D01*
X101317070Y-86903651D01*
X101317072Y-86903655D01*
X101332893Y-86927333D01*
X101396468Y-87022479D01*
X101497521Y-87123532D01*
X101616347Y-87202929D01*
X101748380Y-87257619D01*
X101888545Y-87285500D01*
X101888546Y-87285500D01*
X102031453Y-87285500D01*
X102031455Y-87285500D01*
X102114524Y-87268976D01*
X102126789Y-87266933D01*
X102132975Y-87266100D01*
X102151992Y-87263540D01*
X102614032Y-87125207D01*
X102651928Y-87113861D01*
X102709005Y-87105500D01*
X107389903Y-87105500D01*
X107476246Y-87125207D01*
X107530617Y-87163786D01*
X108142535Y-87775704D01*
X108142545Y-87775715D01*
X108149494Y-87782664D01*
X108149495Y-87782665D01*
X108247335Y-87880505D01*
X108247337Y-87880506D01*
X108367160Y-87949686D01*
X108367161Y-87949686D01*
X108367164Y-87949688D01*
X108395408Y-87957256D01*
X108500817Y-87985501D01*
X108500820Y-87985501D01*
X108651378Y-87985501D01*
X108651394Y-87985500D01*
X110250500Y-87985500D01*
X110336843Y-88005207D01*
X110406084Y-88060426D01*
X110444511Y-88140218D01*
X110449500Y-88184500D01*
X110449500Y-88743025D01*
X110439258Y-88806044D01*
X110284237Y-89270366D01*
X110284170Y-89270569D01*
X110281735Y-89277866D01*
X110277381Y-89288380D01*
X110276135Y-89294640D01*
X110275801Y-89295643D01*
X110272860Y-89305452D01*
X110272846Y-89305498D01*
X110268578Y-89319738D01*
X110268212Y-89321112D01*
X110268204Y-89321146D01*
X110257523Y-89376534D01*
X110256961Y-89383805D01*
X110253732Y-89407261D01*
X110249500Y-89428540D01*
X110249500Y-89571454D01*
X110277380Y-89711617D01*
X110332070Y-89843651D01*
X110332072Y-89843655D01*
X110364265Y-89891835D01*
X110411468Y-89962479D01*
X110512521Y-90063532D01*
X110631347Y-90142929D01*
X110763380Y-90197619D01*
X110903545Y-90225500D01*
X110903546Y-90225500D01*
X111046454Y-90225500D01*
X111046455Y-90225500D01*
X111186620Y-90197619D01*
X111318653Y-90142929D01*
X111437479Y-90063532D01*
X111538532Y-89962479D01*
X111617929Y-89843653D01*
X111672619Y-89711620D01*
X111700500Y-89571455D01*
X111700500Y-89428545D01*
X111674879Y-89299744D01*
X111674194Y-89295631D01*
X111673865Y-89294647D01*
X111672619Y-89288380D01*
X111670940Y-89284328D01*
X111666039Y-89271206D01*
X111560230Y-88954277D01*
X111510742Y-88806045D01*
X111500500Y-88743027D01*
X111500500Y-87645085D01*
X111500911Y-87643281D01*
X111500533Y-87641471D01*
X111510742Y-87600209D01*
X111520207Y-87558742D01*
X111521360Y-87557295D01*
X111521805Y-87555500D01*
X111548916Y-87522742D01*
X111575426Y-87489501D01*
X111577092Y-87488698D01*
X111578272Y-87487273D01*
X111596536Y-87479334D01*
X111655218Y-87451074D01*
X111658749Y-87450302D01*
X111662762Y-87449462D01*
X111664368Y-87449195D01*
X111664914Y-87449012D01*
X111669757Y-87447999D01*
X111669917Y-87448001D01*
X111671597Y-87447626D01*
X111671612Y-87447620D01*
X111671620Y-87447619D01*
X111675667Y-87445942D01*
X111688786Y-87441041D01*
X112153956Y-87285741D01*
X112216974Y-87275500D01*
X117237403Y-87275500D01*
X117269950Y-87282928D01*
X117303129Y-87286667D01*
X117312712Y-87292688D01*
X117323746Y-87295207D01*
X117378117Y-87333786D01*
X117453714Y-87409383D01*
X117500833Y-87484371D01*
X117512000Y-87550097D01*
X117512000Y-87743025D01*
X117501758Y-87806044D01*
X117346452Y-88271223D01*
X117341554Y-88284338D01*
X117339883Y-88288371D01*
X117338959Y-88291419D01*
X117335992Y-88303345D01*
X117331078Y-88319738D01*
X117330712Y-88321112D01*
X117330704Y-88321146D01*
X117320023Y-88376534D01*
X117319461Y-88383805D01*
X117316232Y-88407261D01*
X117312000Y-88428540D01*
X117312000Y-88428545D01*
X117312000Y-88571455D01*
X117339881Y-88711620D01*
X117352890Y-88743027D01*
X117385116Y-88820828D01*
X117394571Y-88843653D01*
X117473968Y-88962479D01*
X117575021Y-89063532D01*
X117693847Y-89142929D01*
X117825880Y-89197619D01*
X117966045Y-89225500D01*
X117966046Y-89225500D01*
X118108954Y-89225500D01*
X118108955Y-89225500D01*
X118249120Y-89197619D01*
X118381153Y-89142929D01*
X118499979Y-89063532D01*
X118601032Y-88962479D01*
X118680429Y-88843653D01*
X118735119Y-88711620D01*
X118763000Y-88571455D01*
X118763000Y-88428545D01*
X118737974Y-88302739D01*
X118737071Y-88297793D01*
X118737046Y-88297732D01*
X118737049Y-88297670D01*
X118736871Y-88296693D01*
X118736694Y-88295631D01*
X118736692Y-88295625D01*
X118736550Y-88294773D01*
X118735124Y-88288399D01*
X118735120Y-88288388D01*
X118735119Y-88288380D01*
X118733440Y-88284328D01*
X118728539Y-88271206D01*
X118614458Y-87929500D01*
X118573242Y-87806045D01*
X118563000Y-87743027D01*
X118563000Y-87335231D01*
X118563001Y-87335218D01*
X118563001Y-87180816D01*
X118527189Y-87047166D01*
X118527189Y-87047165D01*
X118458005Y-86927335D01*
X117958006Y-86427336D01*
X117958005Y-86427335D01*
X117860165Y-86329495D01*
X117860161Y-86329492D01*
X117740338Y-86260313D01*
X117740333Y-86260311D01*
X117712086Y-86252741D01*
X117712086Y-86252740D01*
X117606685Y-86224499D01*
X117606683Y-86224499D01*
X117468317Y-86224499D01*
X117456122Y-86224499D01*
X117456106Y-86224500D01*
X112216973Y-86224500D01*
X112153954Y-86214258D01*
X111989924Y-86159495D01*
X111682137Y-86056737D01*
X111671620Y-86052381D01*
X111665357Y-86051135D01*
X111664359Y-86050802D01*
X111654509Y-86047850D01*
X111654500Y-86047847D01*
X111640251Y-86043576D01*
X111638861Y-86043206D01*
X111638851Y-86043204D01*
X111583462Y-86032523D01*
X111576204Y-86031962D01*
X111552733Y-86028732D01*
X111531456Y-86024500D01*
X111531455Y-86024500D01*
X111388545Y-86024500D01*
X111367270Y-86028732D01*
X111248382Y-86052380D01*
X111116348Y-86107070D01*
X111116344Y-86107072D01*
X110997525Y-86186465D01*
X110997517Y-86186471D01*
X110896471Y-86287517D01*
X110896465Y-86287525D01*
X110817072Y-86406344D01*
X110817070Y-86406348D01*
X110762380Y-86538382D01*
X110734500Y-86678545D01*
X110734500Y-86735500D01*
X110714793Y-86821843D01*
X110659574Y-86891084D01*
X110579782Y-86929511D01*
X110535500Y-86934500D01*
X108870097Y-86934500D01*
X108783754Y-86914793D01*
X108729383Y-86876214D01*
X108121850Y-86268681D01*
X108121848Y-86268678D01*
X108012665Y-86159495D01*
X108012661Y-86159492D01*
X107892838Y-86090313D01*
X107892833Y-86090311D01*
X107864586Y-86082741D01*
X107864586Y-86082740D01*
X107759185Y-86054499D01*
X107759183Y-86054499D01*
X107620817Y-86054499D01*
X107608622Y-86054499D01*
X107608606Y-86054500D01*
X102725117Y-86054500D01*
X102656338Y-86042236D01*
X102205998Y-85876366D01*
X102205963Y-85876353D01*
X102200460Y-85874327D01*
X102171620Y-85862381D01*
X102159507Y-85859971D01*
X102146617Y-85855781D01*
X102146595Y-85855774D01*
X102146590Y-85855773D01*
X102144914Y-85855298D01*
X102144876Y-85855289D01*
X102083385Y-85842932D01*
X102078693Y-85842551D01*
X102055998Y-85839382D01*
X102031455Y-85834500D01*
X101888545Y-85834500D01*
X101864002Y-85839382D01*
X101748382Y-85862380D01*
X101616348Y-85917070D01*
X101616344Y-85917072D01*
X101497525Y-85996465D01*
X101497517Y-85996471D01*
X101396471Y-86097517D01*
X101396465Y-86097525D01*
X101317072Y-86216344D01*
X101317070Y-86216348D01*
X101262380Y-86348382D01*
X101234500Y-86488545D01*
X99654909Y-86488545D01*
X99652660Y-85197929D01*
X99655105Y-85166492D01*
X99657286Y-85152717D01*
X99690248Y-85070524D01*
X99755613Y-85010767D01*
X99822713Y-84987287D01*
X99836667Y-84985078D01*
X99867776Y-84982633D01*
X99879050Y-84982635D01*
X99879051Y-84982634D01*
X99904849Y-84982637D01*
X99905746Y-84982516D01*
X101018074Y-84980141D01*
X101018074Y-84980140D01*
X101029179Y-84980117D01*
X101046702Y-84978372D01*
X101050587Y-84978373D01*
X101152455Y-84951085D01*
X101243788Y-84898359D01*
X101318359Y-84823788D01*
X101371085Y-84732455D01*
X101398373Y-84630587D01*
X101398372Y-84628174D01*
X101400500Y-84606570D01*
X101400500Y-77432338D01*
X101370389Y-77300413D01*
X101311675Y-77178493D01*
X101265531Y-77120630D01*
X101227305Y-77072695D01*
X101121507Y-76988325D01*
X101121506Y-76988324D01*
X100999586Y-76929610D01*
X100867661Y-76899500D01*
X100867660Y-76899500D01*
X100819645Y-76899500D01*
X100819325Y-76899370D01*
X100799695Y-76899500D01*
X100773071Y-76899500D01*
X100749509Y-76899500D01*
X100746918Y-76899849D01*
X97793693Y-76919407D01*
X97766400Y-76917708D01*
X97702574Y-76909305D01*
X97652394Y-76895860D01*
X97636571Y-76889306D01*
X97604453Y-76876002D01*
X97559465Y-76850027D01*
X97518296Y-76818437D01*
X97481562Y-76781703D01*
X97449972Y-76740534D01*
X97423996Y-76695543D01*
X97404137Y-76647598D01*
X97390693Y-76597421D01*
X97382203Y-76532935D01*
X97380500Y-76506960D01*
X97380500Y-73975435D01*
X98099500Y-73975435D01*
X98099500Y-74224565D01*
X98131633Y-74468643D01*
X98132019Y-74471569D01*
X98196496Y-74712202D01*
X98196498Y-74712207D01*
X98291836Y-74942373D01*
X98416401Y-75158127D01*
X98436770Y-75184672D01*
X98568064Y-75355779D01*
X98744220Y-75531935D01*
X98744224Y-75531938D01*
X98941873Y-75683599D01*
X99157627Y-75808164D01*
X99387793Y-75903502D01*
X99628435Y-75967982D01*
X99875435Y-76000500D01*
X99875438Y-76000500D01*
X100124562Y-76000500D01*
X100124565Y-76000500D01*
X100371565Y-75967982D01*
X100612207Y-75903502D01*
X100842373Y-75808164D01*
X101058127Y-75683599D01*
X101255776Y-75531938D01*
X101431938Y-75355776D01*
X101583599Y-75158127D01*
X101708164Y-74942373D01*
X101803502Y-74712207D01*
X101805184Y-74705931D01*
X106659500Y-74705931D01*
X106659500Y-74834068D01*
X106681043Y-74942373D01*
X106684499Y-74959744D01*
X106733535Y-75078127D01*
X106804724Y-75184669D01*
X106895331Y-75275276D01*
X107001873Y-75346465D01*
X107120256Y-75395501D01*
X107245931Y-75420500D01*
X107245932Y-75420500D01*
X107374068Y-75420500D01*
X107374069Y-75420500D01*
X107499744Y-75395501D01*
X107618127Y-75346465D01*
X107724669Y-75275276D01*
X107815276Y-75184669D01*
X107886465Y-75078127D01*
X107935501Y-74959744D01*
X107960500Y-74834069D01*
X107960500Y-74705931D01*
X114639500Y-74705931D01*
X114639500Y-74834068D01*
X114661043Y-74942373D01*
X114664499Y-74959744D01*
X114713535Y-75078127D01*
X114784724Y-75184669D01*
X114875331Y-75275276D01*
X114981873Y-75346465D01*
X115100256Y-75395501D01*
X115225931Y-75420500D01*
X115225932Y-75420500D01*
X115354068Y-75420500D01*
X115354069Y-75420500D01*
X115479744Y-75395501D01*
X115598127Y-75346465D01*
X115704669Y-75275276D01*
X115795276Y-75184669D01*
X115866465Y-75078127D01*
X115915501Y-74959744D01*
X115940500Y-74834069D01*
X115940500Y-74705931D01*
X115915501Y-74580256D01*
X115866465Y-74461873D01*
X115795276Y-74355331D01*
X115704669Y-74264724D01*
X115644562Y-74224562D01*
X115598129Y-74193536D01*
X115598125Y-74193534D01*
X115506969Y-74155776D01*
X115479744Y-74144499D01*
X115479742Y-74144498D01*
X115479741Y-74144498D01*
X115395582Y-74127757D01*
X115354069Y-74119500D01*
X115225931Y-74119500D01*
X115194725Y-74125707D01*
X115100258Y-74144498D01*
X114981874Y-74193534D01*
X114981870Y-74193536D01*
X114875335Y-74264721D01*
X114875327Y-74264727D01*
X114784727Y-74355327D01*
X114784721Y-74355335D01*
X114713536Y-74461870D01*
X114713534Y-74461874D01*
X114664498Y-74580258D01*
X114639500Y-74705931D01*
X107960500Y-74705931D01*
X107935501Y-74580256D01*
X107886465Y-74461873D01*
X107815276Y-74355331D01*
X107724669Y-74264724D01*
X107664562Y-74224562D01*
X107618129Y-74193536D01*
X107618125Y-74193534D01*
X107526969Y-74155776D01*
X107499744Y-74144499D01*
X107499742Y-74144498D01*
X107499741Y-74144498D01*
X107415582Y-74127757D01*
X107374069Y-74119500D01*
X107245931Y-74119500D01*
X107214725Y-74125707D01*
X107120258Y-74144498D01*
X107001874Y-74193534D01*
X107001870Y-74193536D01*
X106895335Y-74264721D01*
X106895327Y-74264727D01*
X106804727Y-74355327D01*
X106804721Y-74355335D01*
X106733536Y-74461870D01*
X106733534Y-74461874D01*
X106684498Y-74580258D01*
X106659500Y-74705931D01*
X101805184Y-74705931D01*
X101867982Y-74471565D01*
X101900500Y-74224565D01*
X101900500Y-73975435D01*
X101867982Y-73728435D01*
X101803502Y-73487793D01*
X101708164Y-73257627D01*
X101583599Y-73041873D01*
X101431938Y-72844224D01*
X101431935Y-72844220D01*
X101255779Y-72668064D01*
X101199960Y-72625233D01*
X101058127Y-72516401D01*
X100842373Y-72391836D01*
X100612207Y-72296498D01*
X100612205Y-72296497D01*
X100612204Y-72296497D01*
X100371569Y-72232019D01*
X100371568Y-72232018D01*
X100371565Y-72232018D01*
X100124565Y-72199500D01*
X99875435Y-72199500D01*
X99628435Y-72232018D01*
X99628432Y-72232018D01*
X99628430Y-72232019D01*
X99387795Y-72296497D01*
X99157631Y-72391834D01*
X99157629Y-72391835D01*
X98941876Y-72516399D01*
X98941873Y-72516401D01*
X98744220Y-72668064D01*
X98568064Y-72844220D01*
X98416401Y-73041873D01*
X98416399Y-73041876D01*
X98291835Y-73257629D01*
X98291834Y-73257631D01*
X98286061Y-73271569D01*
X98196498Y-73487793D01*
X98132018Y-73728435D01*
X98099500Y-73975435D01*
X97380500Y-73975435D01*
X97380500Y-71533039D01*
X97382203Y-71507064D01*
X97390693Y-71442578D01*
X97404137Y-71392401D01*
X97423998Y-71344452D01*
X97449972Y-71299465D01*
X97481562Y-71258296D01*
X97518296Y-71221562D01*
X97559465Y-71189972D01*
X97604452Y-71163998D01*
X97652403Y-71144136D01*
X97702577Y-71130693D01*
X97767065Y-71122203D01*
X97792805Y-71120500D01*
X97806929Y-71120500D01*
X97806957Y-71120483D01*
X97830264Y-71120455D01*
X97833373Y-71120452D01*
X97833391Y-71120457D01*
X97833422Y-71120452D01*
X118133912Y-71102739D01*
X118220272Y-71122371D01*
G37*
%TD.AperFunction*%
%TD*%
%TA.AperFunction,Conductor*%
%TO.N,GND*%
G36*
X101143755Y-97585000D02*
G01*
X101143755Y-97835000D01*
X100563404Y-98048755D01*
X100499000Y-97730000D01*
X100563404Y-97411245D01*
X101143755Y-97585000D01*
G37*
%TD.AperFunction*%
%TD*%
%TA.AperFunction,Conductor*%
%TO.N,GND*%
G36*
X111268755Y-91936596D02*
G01*
X110950000Y-92001000D01*
X110631245Y-91936596D01*
X110825000Y-91356245D01*
X111075000Y-91356245D01*
X111268755Y-91936596D01*
G37*
%TD.AperFunction*%
%TD*%
%TA.AperFunction,Conductor*%
%TO.N,GND*%
G36*
X116818755Y-92936596D02*
G01*
X116500000Y-93001000D01*
X116181245Y-92936596D01*
X116375000Y-92356245D01*
X116625000Y-92356245D01*
X116818755Y-92936596D01*
G37*
%TD.AperFunction*%
%TD*%
%TA.AperFunction,Conductor*%
%TO.N,GND*%
G36*
X116818755Y-88563404D02*
G01*
X116625000Y-89143755D01*
X116375000Y-89143755D01*
X116181245Y-88563404D01*
X116500000Y-88499000D01*
X116818755Y-88563404D01*
G37*
%TD.AperFunction*%
%TD*%
%TA.AperFunction,Conductor*%
%TO.N,GND*%
G36*
X111268755Y-92063404D02*
G01*
X111075000Y-92643755D01*
X110825000Y-92643755D01*
X110631245Y-92063404D01*
X110950000Y-91999000D01*
X111268755Y-92063404D01*
G37*
%TD.AperFunction*%
%TD*%
%TA.AperFunction,Conductor*%
%TO.N,Net-(J8-Pin_1)*%
G36*
X111099844Y-88859672D02*
G01*
X111102669Y-88864240D01*
X111289564Y-89424043D01*
X111288933Y-89432975D01*
X111282171Y-89438846D01*
X111280783Y-89439216D01*
X110977317Y-89500531D01*
X110972683Y-89500531D01*
X110669216Y-89439216D01*
X110661785Y-89434219D01*
X110660065Y-89425431D01*
X110660431Y-89424056D01*
X110847331Y-88864240D01*
X110853202Y-88857478D01*
X110858429Y-88856245D01*
X111091571Y-88856245D01*
X111099844Y-88859672D01*
G37*
%TD.AperFunction*%
%TD*%
%TA.AperFunction,Conductor*%
%TO.N,Net-(J8-Pin_1)*%
G36*
X102036206Y-86245960D02*
G01*
X102596099Y-86452180D01*
X102602678Y-86458255D01*
X102603755Y-86463159D01*
X102603755Y-86696290D01*
X102600328Y-86704563D01*
X102595411Y-86707498D01*
X102035688Y-86875077D01*
X102026779Y-86874167D01*
X102021124Y-86867225D01*
X102020864Y-86866186D01*
X101988801Y-86707498D01*
X101959468Y-86562316D01*
X101959468Y-86557683D01*
X102020701Y-86254622D01*
X102025697Y-86247193D01*
X102034485Y-86245473D01*
X102036206Y-86245960D01*
G37*
%TD.AperFunction*%
%TD*%
%TA.AperFunction,Conductor*%
%TO.N,Net-(J9-VDD)*%
G36*
X111535947Y-86435432D02*
G01*
X112095761Y-86622331D01*
X112102522Y-86628201D01*
X112103755Y-86633428D01*
X112103755Y-86866571D01*
X112100328Y-86874844D01*
X112095760Y-86877669D01*
X111535956Y-87064564D01*
X111527024Y-87063933D01*
X111521153Y-87057171D01*
X111520783Y-87055783D01*
X111484256Y-86875000D01*
X111459468Y-86752316D01*
X111459468Y-86747683D01*
X111484256Y-86625000D01*
X111520783Y-86444215D01*
X111525780Y-86436785D01*
X111534568Y-86435065D01*
X111535947Y-86435432D01*
G37*
%TD.AperFunction*%
%TD*%
%TA.AperFunction,Conductor*%
%TO.N,Net-(J9-VDD)*%
G36*
X118162344Y-87859672D02*
G01*
X118165169Y-87864240D01*
X118352064Y-88424043D01*
X118351433Y-88432975D01*
X118344671Y-88438846D01*
X118343283Y-88439216D01*
X118039817Y-88500531D01*
X118035183Y-88500531D01*
X117731716Y-88439216D01*
X117724285Y-88434219D01*
X117722565Y-88425431D01*
X117722931Y-88424056D01*
X117909831Y-87864240D01*
X117915702Y-87857478D01*
X117920929Y-87856245D01*
X118154071Y-87856245D01*
X118162344Y-87859672D01*
G37*
%TD.AperFunction*%
%TD*%
%TA.AperFunction,Conductor*%
%TO.N,/MISO*%
G36*
X110157975Y-96886066D02*
G01*
X110163846Y-96892828D01*
X110164216Y-96894216D01*
X110225531Y-97197683D01*
X110225531Y-97202317D01*
X110164216Y-97505783D01*
X110159219Y-97513214D01*
X110150431Y-97514934D01*
X110149043Y-97514564D01*
X109589240Y-97327669D01*
X109582478Y-97321798D01*
X109581245Y-97316571D01*
X109581245Y-97083428D01*
X109584672Y-97075155D01*
X109589237Y-97072331D01*
X110149045Y-96885435D01*
X110157975Y-96886066D01*
G37*
%TD.AperFunction*%
%TD*%
%TA.AperFunction,Conductor*%
%TO.N,/MISO*%
G36*
X105700947Y-96885432D02*
G01*
X106260761Y-97072331D01*
X106267522Y-97078201D01*
X106268755Y-97083428D01*
X106268755Y-97316571D01*
X106265328Y-97324844D01*
X106260760Y-97327669D01*
X105700956Y-97514564D01*
X105692024Y-97513933D01*
X105686153Y-97507171D01*
X105685783Y-97505783D01*
X105649256Y-97325000D01*
X105624468Y-97202316D01*
X105624468Y-97197683D01*
X105649256Y-97075000D01*
X105685783Y-96894215D01*
X105690780Y-96886785D01*
X105699568Y-96885065D01*
X105700947Y-96885432D01*
G37*
%TD.AperFunction*%
%TD*%
%TA.AperFunction,Conductor*%
%TO.N,/CLK*%
G36*
X107657975Y-97786066D02*
G01*
X107663846Y-97792828D01*
X107664216Y-97794216D01*
X107725531Y-98097683D01*
X107725531Y-98102317D01*
X107664216Y-98405783D01*
X107659219Y-98413214D01*
X107650431Y-98414934D01*
X107649043Y-98414564D01*
X107089240Y-98227669D01*
X107082478Y-98221798D01*
X107081245Y-98216571D01*
X107081245Y-97983428D01*
X107084672Y-97975155D01*
X107089237Y-97972331D01*
X107649045Y-97785435D01*
X107657975Y-97786066D01*
G37*
%TD.AperFunction*%
%TD*%
%TA.AperFunction,Conductor*%
%TO.N,/CLK*%
G36*
X105850947Y-97785432D02*
G01*
X106410761Y-97972331D01*
X106417522Y-97978201D01*
X106418755Y-97983428D01*
X106418755Y-98216571D01*
X106415328Y-98224844D01*
X106410760Y-98227669D01*
X105850956Y-98414564D01*
X105842024Y-98413933D01*
X105836153Y-98407171D01*
X105835783Y-98405783D01*
X105799256Y-98225000D01*
X105774468Y-98102316D01*
X105774468Y-98097683D01*
X105799256Y-97975000D01*
X105835783Y-97794215D01*
X105840780Y-97786785D01*
X105849568Y-97785065D01*
X105850947Y-97785432D01*
G37*
%TD.AperFunction*%
%TD*%
M02*
