%TF.GenerationSoftware,KiCad,Pcbnew,10.0.4*%
%TF.CreationDate,2026-08-16T02:11:44+08:00*%
%TF.ProjectId,GnW-Zelda-MicroSD,476e572d-5a65-46c6-9461-2d4d6963726f,rev?*%
%TF.SameCoordinates,Original*%
%TF.FileFunction,Legend,Top*%
%TF.FilePolarity,Positive*%
%FSLAX46Y46*%
G04 Gerber Fmt 4.6, Leading zero omitted, Abs format (unit mm)*
G04 Created by KiCad (PCBNEW 10.0.4) date 2026-08-16 02:11:44*
%MOMM*%
%LPD*%
G01*
G04 APERTURE LIST*
%ADD10C,0.150000*%
%ADD11C,0.120000*%
G04 APERTURE END LIST*
D10*
X142481666Y-61624819D02*
X142481666Y-62339104D01*
X142481666Y-62339104D02*
X142434047Y-62481961D01*
X142434047Y-62481961D02*
X142338809Y-62577200D01*
X142338809Y-62577200D02*
X142195952Y-62624819D01*
X142195952Y-62624819D02*
X142100714Y-62624819D01*
X143481666Y-62624819D02*
X142910238Y-62624819D01*
X143195952Y-62624819D02*
X143195952Y-61624819D01*
X143195952Y-61624819D02*
X143100714Y-61767676D01*
X143100714Y-61767676D02*
X143005476Y-61862914D01*
X143005476Y-61862914D02*
X142910238Y-61910533D01*
D11*
X138518333Y-49103855D02*
X138518333Y-49675283D01*
X138518333Y-49675283D02*
X138480238Y-49789569D01*
X138480238Y-49789569D02*
X138404047Y-49865760D01*
X138404047Y-49865760D02*
X138289762Y-49903855D01*
X138289762Y-49903855D02*
X138213571Y-49903855D01*
X138823095Y-49103855D02*
X139318333Y-49103855D01*
X139318333Y-49103855D02*
X139051667Y-49408617D01*
X139051667Y-49408617D02*
X139165952Y-49408617D01*
X139165952Y-49408617D02*
X139242143Y-49446712D01*
X139242143Y-49446712D02*
X139280238Y-49484807D01*
X139280238Y-49484807D02*
X139318333Y-49560998D01*
X139318333Y-49560998D02*
X139318333Y-49751474D01*
X139318333Y-49751474D02*
X139280238Y-49827664D01*
X139280238Y-49827664D02*
X139242143Y-49865760D01*
X139242143Y-49865760D02*
X139165952Y-49903855D01*
X139165952Y-49903855D02*
X138937381Y-49903855D01*
X138937381Y-49903855D02*
X138861190Y-49865760D01*
X138861190Y-49865760D02*
X138823095Y-49827664D01*
D10*
X148481666Y-36624819D02*
X148481666Y-37339104D01*
X148481666Y-37339104D02*
X148434047Y-37481961D01*
X148434047Y-37481961D02*
X148338809Y-37577200D01*
X148338809Y-37577200D02*
X148195952Y-37624819D01*
X148195952Y-37624819D02*
X148100714Y-37624819D01*
X148910238Y-36720057D02*
X148957857Y-36672438D01*
X148957857Y-36672438D02*
X149053095Y-36624819D01*
X149053095Y-36624819D02*
X149291190Y-36624819D01*
X149291190Y-36624819D02*
X149386428Y-36672438D01*
X149386428Y-36672438D02*
X149434047Y-36720057D01*
X149434047Y-36720057D02*
X149481666Y-36815295D01*
X149481666Y-36815295D02*
X149481666Y-36910533D01*
X149481666Y-36910533D02*
X149434047Y-37053390D01*
X149434047Y-37053390D02*
X148862619Y-37624819D01*
X148862619Y-37624819D02*
X149481666Y-37624819D01*
X154053095Y-54124819D02*
X154053095Y-54934342D01*
X154053095Y-54934342D02*
X154100714Y-55029580D01*
X154100714Y-55029580D02*
X154148333Y-55077200D01*
X154148333Y-55077200D02*
X154243571Y-55124819D01*
X154243571Y-55124819D02*
X154434047Y-55124819D01*
X154434047Y-55124819D02*
X154529285Y-55077200D01*
X154529285Y-55077200D02*
X154576904Y-55029580D01*
X154576904Y-55029580D02*
X154624523Y-54934342D01*
X154624523Y-54934342D02*
X154624523Y-54124819D01*
X155624523Y-55124819D02*
X155053095Y-55124819D01*
X155338809Y-55124819D02*
X155338809Y-54124819D01*
X155338809Y-54124819D02*
X155243571Y-54267676D01*
X155243571Y-54267676D02*
X155148333Y-54362914D01*
X155148333Y-54362914D02*
X155053095Y-54410533D01*
D11*
X150651667Y-57333855D02*
X150385000Y-56952902D01*
X150194524Y-57333855D02*
X150194524Y-56533855D01*
X150194524Y-56533855D02*
X150499286Y-56533855D01*
X150499286Y-56533855D02*
X150575476Y-56571950D01*
X150575476Y-56571950D02*
X150613571Y-56610045D01*
X150613571Y-56610045D02*
X150651667Y-56686236D01*
X150651667Y-56686236D02*
X150651667Y-56800521D01*
X150651667Y-56800521D02*
X150613571Y-56876712D01*
X150613571Y-56876712D02*
X150575476Y-56914807D01*
X150575476Y-56914807D02*
X150499286Y-56952902D01*
X150499286Y-56952902D02*
X150194524Y-56952902D01*
X151413571Y-57333855D02*
X150956428Y-57333855D01*
X151185000Y-57333855D02*
X151185000Y-56533855D01*
X151185000Y-56533855D02*
X151108809Y-56648140D01*
X151108809Y-56648140D02*
X151032619Y-56724331D01*
X151032619Y-56724331D02*
X150956428Y-56762426D01*
X152439167Y-52757664D02*
X152401071Y-52795760D01*
X152401071Y-52795760D02*
X152286786Y-52833855D01*
X152286786Y-52833855D02*
X152210595Y-52833855D01*
X152210595Y-52833855D02*
X152096309Y-52795760D01*
X152096309Y-52795760D02*
X152020119Y-52719569D01*
X152020119Y-52719569D02*
X151982024Y-52643379D01*
X151982024Y-52643379D02*
X151943928Y-52490998D01*
X151943928Y-52490998D02*
X151943928Y-52376712D01*
X151943928Y-52376712D02*
X151982024Y-52224331D01*
X151982024Y-52224331D02*
X152020119Y-52148140D01*
X152020119Y-52148140D02*
X152096309Y-52071950D01*
X152096309Y-52071950D02*
X152210595Y-52033855D01*
X152210595Y-52033855D02*
X152286786Y-52033855D01*
X152286786Y-52033855D02*
X152401071Y-52071950D01*
X152401071Y-52071950D02*
X152439167Y-52110045D01*
X153201071Y-52833855D02*
X152743928Y-52833855D01*
X152972500Y-52833855D02*
X152972500Y-52033855D01*
X152972500Y-52033855D02*
X152896309Y-52148140D01*
X152896309Y-52148140D02*
X152820119Y-52224331D01*
X152820119Y-52224331D02*
X152743928Y-52262426D01*
X154364167Y-53257664D02*
X154326071Y-53295760D01*
X154326071Y-53295760D02*
X154211786Y-53333855D01*
X154211786Y-53333855D02*
X154135595Y-53333855D01*
X154135595Y-53333855D02*
X154021309Y-53295760D01*
X154021309Y-53295760D02*
X153945119Y-53219569D01*
X153945119Y-53219569D02*
X153907024Y-53143379D01*
X153907024Y-53143379D02*
X153868928Y-52990998D01*
X153868928Y-52990998D02*
X153868928Y-52876712D01*
X153868928Y-52876712D02*
X153907024Y-52724331D01*
X153907024Y-52724331D02*
X153945119Y-52648140D01*
X153945119Y-52648140D02*
X154021309Y-52571950D01*
X154021309Y-52571950D02*
X154135595Y-52533855D01*
X154135595Y-52533855D02*
X154211786Y-52533855D01*
X154211786Y-52533855D02*
X154326071Y-52571950D01*
X154326071Y-52571950D02*
X154364167Y-52610045D01*
X154668928Y-52610045D02*
X154707024Y-52571950D01*
X154707024Y-52571950D02*
X154783214Y-52533855D01*
X154783214Y-52533855D02*
X154973690Y-52533855D01*
X154973690Y-52533855D02*
X155049881Y-52571950D01*
X155049881Y-52571950D02*
X155087976Y-52610045D01*
X155087976Y-52610045D02*
X155126071Y-52686236D01*
X155126071Y-52686236D02*
X155126071Y-52762426D01*
X155126071Y-52762426D02*
X155087976Y-52876712D01*
X155087976Y-52876712D02*
X154630833Y-53333855D01*
X154630833Y-53333855D02*
X155126071Y-53333855D01*
X137925476Y-36433855D02*
X137925476Y-35633855D01*
X137925476Y-36014807D02*
X138382619Y-36014807D01*
X138382619Y-36433855D02*
X138382619Y-35633855D01*
X139182618Y-36433855D02*
X138725475Y-36433855D01*
X138954047Y-36433855D02*
X138954047Y-35633855D01*
X138954047Y-35633855D02*
X138877856Y-35748140D01*
X138877856Y-35748140D02*
X138801666Y-35824331D01*
X138801666Y-35824331D02*
X138725475Y-35862426D01*
X157425476Y-35233855D02*
X157425476Y-34433855D01*
X157425476Y-34814807D02*
X157882619Y-34814807D01*
X157882619Y-35233855D02*
X157882619Y-34433855D01*
X158225475Y-34510045D02*
X158263571Y-34471950D01*
X158263571Y-34471950D02*
X158339761Y-34433855D01*
X158339761Y-34433855D02*
X158530237Y-34433855D01*
X158530237Y-34433855D02*
X158606428Y-34471950D01*
X158606428Y-34471950D02*
X158644523Y-34510045D01*
X158644523Y-34510045D02*
X158682618Y-34586236D01*
X158682618Y-34586236D02*
X158682618Y-34662426D01*
X158682618Y-34662426D02*
X158644523Y-34776712D01*
X158644523Y-34776712D02*
X158187380Y-35233855D01*
X158187380Y-35233855D02*
X158682618Y-35233855D01*
X161025476Y-53933855D02*
X161025476Y-53133855D01*
X161025476Y-53514807D02*
X161482619Y-53514807D01*
X161482619Y-53933855D02*
X161482619Y-53133855D01*
X161787380Y-53133855D02*
X162282618Y-53133855D01*
X162282618Y-53133855D02*
X162015952Y-53438617D01*
X162015952Y-53438617D02*
X162130237Y-53438617D01*
X162130237Y-53438617D02*
X162206428Y-53476712D01*
X162206428Y-53476712D02*
X162244523Y-53514807D01*
X162244523Y-53514807D02*
X162282618Y-53590998D01*
X162282618Y-53590998D02*
X162282618Y-53781474D01*
X162282618Y-53781474D02*
X162244523Y-53857664D01*
X162244523Y-53857664D02*
X162206428Y-53895760D01*
X162206428Y-53895760D02*
X162130237Y-53933855D01*
X162130237Y-53933855D02*
X161901666Y-53933855D01*
X161901666Y-53933855D02*
X161825475Y-53895760D01*
X161825475Y-53895760D02*
X161787380Y-53857664D01*
X139325476Y-54733855D02*
X139325476Y-53933855D01*
X139325476Y-54314807D02*
X139782619Y-54314807D01*
X139782619Y-54733855D02*
X139782619Y-53933855D01*
X140506428Y-54200521D02*
X140506428Y-54733855D01*
X140315952Y-53895760D02*
X140125475Y-54467188D01*
X140125475Y-54467188D02*
X140620714Y-54467188D01*
M02*
