%TF.GenerationSoftware,KiCad,Pcbnew,10.0.4*%
%TF.CreationDate,2026-08-16T02:11:44+08:00*%
%TF.ProjectId,GnW-Zelda-MicroSD,476e572d-5a65-46c6-9461-2d4d6963726f,rev?*%
%TF.SameCoordinates,Original*%
%TF.FileFunction,Copper,L2,Bot*%
%TF.FilePolarity,Positive*%
%FSLAX46Y46*%
G04 Gerber Fmt 4.6, Leading zero omitted, Abs format (unit mm)*
G04 Created by KiCad (PCBNEW 10.0.4) date 2026-08-16 02:11:44*
%MOMM*%
%LPD*%
G01*
G04 APERTURE LIST*
%TA.AperFunction,ComponentPad*%
%ADD10C,3.000000*%
%TD*%
%TA.AperFunction,ViaPad*%
%ADD11C,0.500000*%
%TD*%
%TA.AperFunction,ViaPad*%
%ADD12C,0.600000*%
%TD*%
%TA.AperFunction,Conductor*%
%ADD13C,0.250000*%
%TD*%
G04 APERTURE END LIST*
D10*
%TO.P,H1,1*%
%TO.N,N/C*%
X138535000Y-38270000D03*
%TD*%
%TO.P,H2,1*%
%TO.N,N/C*%
X158035000Y-37070000D03*
%TD*%
%TO.P,H3,1*%
%TO.N,N/C*%
X161635000Y-55770000D03*
%TD*%
%TO.P,H4,1*%
%TO.N,N/C*%
X139935000Y-56570000D03*
%TD*%
D11*
%TO.N,SPI_MISO*%
X144160000Y-61370000D03*
%TO.N,SPI_CLK*%
X146260000Y-62270000D03*
X144310000Y-62270000D03*
%TO.N,VBAT_4V2*%
X149510000Y-53670000D03*
X140495000Y-50730000D03*
%TO.N,VDD_SD_2V8*%
X149995000Y-50920000D03*
X156572500Y-52670000D03*
D12*
%TO.N,GND*%
X149715000Y-41870000D03*
D11*
%TO.N,SPI_MISO*%
X148760000Y-61370000D03*
%TD*%
%TO.N,SPI_MISO*%
D13*
X144160000Y-61370000D02*
X148760000Y-61370000D01*
%TO.N,SPI_CLK*%
X146260000Y-62270000D02*
X144310000Y-62270000D01*
%TO.N,VBAT_4V2*%
X149510000Y-53670000D02*
X149510000Y-51630000D01*
X149510000Y-51630000D02*
X147105000Y-51630000D01*
X147105000Y-51630000D02*
X146225000Y-50750000D01*
X146225000Y-50750000D02*
X140515000Y-50750000D01*
X140515000Y-50750000D02*
X140495000Y-50730000D01*
%TO.N,VDD_SD_2V8*%
X149995000Y-50920000D02*
X156072500Y-50920000D01*
X156072500Y-50920000D02*
X156572500Y-51420000D01*
X156572500Y-51420000D02*
X156572500Y-52670000D01*
%TD*%
%TA.AperFunction,Conductor*%
%TO.N,GND*%
G36*
X146385000Y-63660000D02*
G01*
X146685000Y-63960000D01*
X146685000Y-64470000D01*
X150385000Y-64470000D01*
X150385000Y-63960000D01*
X150685000Y-63660000D01*
X150885000Y-63660000D01*
X151185000Y-63360000D01*
X151185000Y-60020000D01*
X151685000Y-59520000D01*
X157385000Y-59520000D01*
X157885000Y-59020000D01*
X157888600Y-58913600D01*
X158388600Y-58406400D01*
X163675000Y-58406400D01*
X163815000Y-58266400D01*
X163815000Y-54291000D01*
X163335000Y-54291000D01*
X163335000Y-57270000D01*
X163334000Y-57289600D01*
X163331200Y-57309000D01*
X163326400Y-57328100D01*
X163319800Y-57346500D01*
X163311400Y-57364300D01*
X163301300Y-57381100D01*
X163289600Y-57396900D01*
X163276400Y-57411400D01*
X163261900Y-57424600D01*
X163246100Y-57436300D01*
X163229300Y-57446400D01*
X163211500Y-57454800D01*
X163193100Y-57461400D01*
X163174000Y-57466200D01*
X163154600Y-57469000D01*
X163135000Y-57470000D01*
X160135000Y-57470000D01*
X160115400Y-57469000D01*
X160096000Y-57466200D01*
X160076900Y-57461400D01*
X160058500Y-57454800D01*
X160040700Y-57446400D01*
X160023900Y-57436300D01*
X160008100Y-57424600D01*
X159993600Y-57411400D01*
X159980400Y-57396900D01*
X159968700Y-57381100D01*
X159958600Y-57364300D01*
X159950200Y-57346500D01*
X159943600Y-57328100D01*
X159938800Y-57309000D01*
X159936000Y-57289600D01*
X159935000Y-57270000D01*
X159935000Y-54270000D01*
X159936000Y-54250400D01*
X159938800Y-54231000D01*
X159943600Y-54211900D01*
X159950200Y-54193500D01*
X159958600Y-54175700D01*
X159968700Y-54158900D01*
X159980400Y-54143100D01*
X159993600Y-54128600D01*
X160008100Y-54115400D01*
X160023900Y-54103700D01*
X160040700Y-54093600D01*
X160058500Y-54085200D01*
X160076900Y-54078600D01*
X160096000Y-54073800D01*
X160115400Y-54071000D01*
X160135000Y-54070000D01*
X163135000Y-54070000D01*
X163154600Y-54071000D01*
X163174000Y-54073800D01*
X163193100Y-54078600D01*
X163211500Y-54085200D01*
X163229300Y-54093600D01*
X163246100Y-54103700D01*
X163261900Y-54115400D01*
X163276400Y-54128600D01*
X163289600Y-54143100D01*
X163301300Y-54158900D01*
X163311400Y-54175700D01*
X163319800Y-54193500D01*
X163326400Y-54211900D01*
X163331200Y-54231000D01*
X163333800Y-54249100D01*
X163333900Y-54249100D01*
X163335000Y-54249000D01*
X163815000Y-54249000D01*
X163815000Y-53197200D01*
X163681400Y-53063600D01*
X158388600Y-53063600D01*
X157888600Y-52563600D01*
X157885000Y-47020000D01*
X157885000Y-41670000D01*
X158385000Y-41170000D01*
X159235000Y-41170000D01*
X159735000Y-40670000D01*
X159735000Y-35670000D01*
X159735000Y-38570000D01*
X159734000Y-38589600D01*
X159731200Y-38609000D01*
X159726400Y-38628100D01*
X159719800Y-38646500D01*
X159711400Y-38664300D01*
X159701300Y-38681100D01*
X159689600Y-38696900D01*
X159676400Y-38711400D01*
X159661900Y-38724600D01*
X159646100Y-38736300D01*
X159629300Y-38746400D01*
X159611500Y-38754800D01*
X159593100Y-38761400D01*
X159574000Y-38766200D01*
X159554600Y-38769000D01*
X159535000Y-38770000D01*
X156535000Y-38770000D01*
X156515400Y-38769000D01*
X156496000Y-38766200D01*
X156476900Y-38761400D01*
X156458500Y-38754800D01*
X156440700Y-38746400D01*
X156423900Y-38736300D01*
X156408100Y-38724600D01*
X156393600Y-38711400D01*
X156380400Y-38696900D01*
X156368700Y-38681100D01*
X156358600Y-38664300D01*
X156350200Y-38646500D01*
X156343600Y-38628100D01*
X156338800Y-38609000D01*
X156336000Y-38589600D01*
X156335000Y-38570000D01*
X156335000Y-35570000D01*
X156336000Y-35550400D01*
X156338800Y-35531000D01*
X156343600Y-35511900D01*
X156350200Y-35493500D01*
X156358600Y-35475700D01*
X156362000Y-35470000D01*
X136115000Y-35470000D01*
X136115000Y-39749000D01*
X136835000Y-39749000D01*
X136835000Y-36770000D01*
X136836000Y-36750400D01*
X136838800Y-36731000D01*
X136843600Y-36711900D01*
X136850200Y-36693500D01*
X136858600Y-36675700D01*
X136868700Y-36658900D01*
X136880400Y-36643100D01*
X136893600Y-36628600D01*
X136908100Y-36615400D01*
X136923900Y-36603700D01*
X136940700Y-36593600D01*
X136958500Y-36585200D01*
X136976900Y-36578600D01*
X136996000Y-36573800D01*
X137015400Y-36571000D01*
X137035000Y-36570000D01*
X140035000Y-36570000D01*
X140054600Y-36571000D01*
X140074000Y-36573800D01*
X140093100Y-36578600D01*
X140111500Y-36585200D01*
X140129300Y-36593600D01*
X140146100Y-36603700D01*
X140161900Y-36615400D01*
X140176400Y-36628600D01*
X140189600Y-36643100D01*
X140201300Y-36658900D01*
X140211400Y-36675700D01*
X140219800Y-36693500D01*
X140226400Y-36711900D01*
X140231200Y-36731000D01*
X140234000Y-36750400D01*
X140235000Y-36770000D01*
X140235000Y-39770000D01*
X140234000Y-39789600D01*
X140231200Y-39809000D01*
X140226400Y-39828100D01*
X140219800Y-39846500D01*
X140211400Y-39864300D01*
X140201300Y-39881100D01*
X140189600Y-39896900D01*
X140176400Y-39911400D01*
X140161900Y-39924600D01*
X140146100Y-39936300D01*
X140129300Y-39946400D01*
X140111500Y-39954800D01*
X140093100Y-39961400D01*
X140074000Y-39966200D01*
X140054600Y-39969000D01*
X140035000Y-39970000D01*
X137035000Y-39970000D01*
X137015400Y-39969000D01*
X136996000Y-39966200D01*
X136976900Y-39961400D01*
X136958500Y-39954800D01*
X136940700Y-39946400D01*
X136923900Y-39936300D01*
X136908100Y-39924600D01*
X136893600Y-39911400D01*
X136880400Y-39896900D01*
X136868700Y-39881100D01*
X136858600Y-39864300D01*
X136850200Y-39846500D01*
X136843600Y-39828100D01*
X136838800Y-39809000D01*
X136836200Y-39790900D01*
X136836100Y-39790900D01*
X136835000Y-39791000D01*
X136115000Y-39791000D01*
X136115000Y-40990000D01*
X136315000Y-41190000D01*
X139335000Y-41170000D01*
X139835000Y-41670000D01*
X139832900Y-48747900D01*
X139532900Y-49049700D01*
X138387100Y-49052100D01*
X138087100Y-49352100D01*
X138091600Y-51892200D01*
X138407400Y-52200000D01*
X141305000Y-52200000D01*
X141625000Y-52510000D01*
X141625000Y-53799000D01*
X141625500Y-53799000D01*
X143270500Y-53834700D01*
X143297000Y-52612400D01*
X143597400Y-52312000D01*
X146173200Y-52329300D01*
X146282300Y-52436000D01*
X146860200Y-51845100D01*
X146860300Y-51845000D01*
X146090400Y-51075000D01*
X140921000Y-51075000D01*
X140911300Y-51091100D01*
X140899600Y-51106900D01*
X140886400Y-51121400D01*
X140871900Y-51134600D01*
X140856100Y-51146300D01*
X140839300Y-51156400D01*
X140821500Y-51164800D01*
X140803100Y-51171400D01*
X140784000Y-51176200D01*
X140764600Y-51179000D01*
X140745000Y-51180000D01*
X140245000Y-51180000D01*
X140225400Y-51179000D01*
X140206000Y-51176200D01*
X140186900Y-51171400D01*
X140168500Y-51164800D01*
X140150700Y-51156400D01*
X140133900Y-51146300D01*
X140118100Y-51134600D01*
X140103600Y-51121400D01*
X140090400Y-51106900D01*
X140078700Y-51091100D01*
X140068600Y-51074300D01*
X140060200Y-51056500D01*
X140053600Y-51038100D01*
X140048800Y-51019000D01*
X140046000Y-50999600D01*
X140045000Y-50980000D01*
X140045000Y-50480000D01*
X140046000Y-50460400D01*
X140048800Y-50441000D01*
X140053600Y-50421900D01*
X140060200Y-50403500D01*
X140068600Y-50385700D01*
X140078700Y-50368900D01*
X140090400Y-50353100D01*
X140103600Y-50338600D01*
X140118100Y-50325400D01*
X140133900Y-50313700D01*
X140150700Y-50303600D01*
X140168500Y-50295200D01*
X140186900Y-50288600D01*
X140206000Y-50283800D01*
X140225400Y-50281000D01*
X140245000Y-50280000D01*
X140745000Y-50280000D01*
X140764600Y-50281000D01*
X140784000Y-50283800D01*
X140803100Y-50288600D01*
X140821500Y-50295200D01*
X140839300Y-50303600D01*
X140856100Y-50313700D01*
X140871900Y-50325400D01*
X140886400Y-50338600D01*
X140899600Y-50353100D01*
X140911300Y-50368900D01*
X140921400Y-50385700D01*
X140929800Y-50403500D01*
X140936400Y-50421900D01*
X140937200Y-50425000D01*
X146225000Y-50425000D01*
X146256900Y-50426600D01*
X146288400Y-50431200D01*
X146319300Y-50439000D01*
X146349400Y-50449700D01*
X146358600Y-50454100D01*
X146378200Y-50463400D01*
X146405600Y-50479800D01*
X146431200Y-50498800D01*
X146454800Y-50520200D01*
X147239600Y-51305000D01*
X149510000Y-51305000D01*
X149541900Y-51306600D01*
X149573400Y-51311200D01*
X149604300Y-51319000D01*
X149616900Y-51323500D01*
X149603600Y-51311400D01*
X149590400Y-51296900D01*
X149578700Y-51281100D01*
X149568600Y-51264300D01*
X149560200Y-51246500D01*
X149553600Y-51228100D01*
X149548800Y-51209000D01*
X149546000Y-51189600D01*
X149545000Y-51170000D01*
X149545000Y-50670000D01*
X149546000Y-50650400D01*
X149548800Y-50631000D01*
X149553600Y-50611900D01*
X149560200Y-50593500D01*
X149568600Y-50575700D01*
X149578700Y-50558900D01*
X149590400Y-50543100D01*
X149603600Y-50528600D01*
X149618100Y-50515400D01*
X149633900Y-50503700D01*
X149650700Y-50493600D01*
X149668500Y-50485200D01*
X149686900Y-50478600D01*
X149706000Y-50473800D01*
X149725400Y-50471000D01*
X149745000Y-50470000D01*
X150245000Y-50470000D01*
X150264600Y-50471000D01*
X150284000Y-50473800D01*
X150303100Y-50478600D01*
X150321500Y-50485200D01*
X150339300Y-50493600D01*
X150356100Y-50503700D01*
X150371900Y-50515400D01*
X150386400Y-50528600D01*
X150399600Y-50543100D01*
X150411300Y-50558900D01*
X150421400Y-50575700D01*
X150429800Y-50593500D01*
X150430300Y-50595000D01*
X156072500Y-50595000D01*
X156104400Y-50596600D01*
X156135900Y-50601200D01*
X156166800Y-50609000D01*
X156196900Y-50619700D01*
X156225700Y-50633400D01*
X156253100Y-50649800D01*
X156278700Y-50668800D01*
X156302300Y-50690200D01*
X156802300Y-51190200D01*
X156823700Y-51213800D01*
X156842700Y-51239400D01*
X156859100Y-51266800D01*
X156872800Y-51295600D01*
X156883500Y-51325700D01*
X156891300Y-51356600D01*
X156895900Y-51388100D01*
X156897500Y-51420000D01*
X156897500Y-52234700D01*
X156899000Y-52235200D01*
X156916800Y-52243600D01*
X156933600Y-52253700D01*
X156949400Y-52265400D01*
X156963900Y-52278600D01*
X156977100Y-52293100D01*
X156988800Y-52308900D01*
X156998900Y-52325700D01*
X157007300Y-52343500D01*
X157013900Y-52361900D01*
X157018700Y-52381000D01*
X157021500Y-52400400D01*
X157022500Y-52420000D01*
X157022500Y-52920000D01*
X157021500Y-52939600D01*
X157018700Y-52959000D01*
X157013900Y-52978100D01*
X157007300Y-52996500D01*
X156998900Y-53014300D01*
X156988800Y-53031100D01*
X156977100Y-53046900D01*
X156963900Y-53061400D01*
X156949400Y-53074600D01*
X156933600Y-53086300D01*
X156916800Y-53096400D01*
X156899000Y-53104800D01*
X156880600Y-53111400D01*
X156861500Y-53116200D01*
X156842100Y-53119000D01*
X156822500Y-53120000D01*
X156322500Y-53120000D01*
X156302900Y-53119000D01*
X156283500Y-53116200D01*
X156264400Y-53111400D01*
X156246000Y-53104800D01*
X156228200Y-53096400D01*
X156211400Y-53086300D01*
X156195600Y-53074600D01*
X156181100Y-53061400D01*
X156167900Y-53046900D01*
X156156200Y-53031100D01*
X156146100Y-53014300D01*
X156137700Y-52996500D01*
X156131100Y-52978100D01*
X156126300Y-52959000D01*
X156123500Y-52939600D01*
X156122500Y-52920000D01*
X156122500Y-52420000D01*
X156123500Y-52400400D01*
X156126300Y-52381000D01*
X156131100Y-52361900D01*
X156137700Y-52343500D01*
X156146100Y-52325700D01*
X156156200Y-52308900D01*
X156167900Y-52293100D01*
X156181100Y-52278600D01*
X156195600Y-52265400D01*
X156211400Y-52253700D01*
X156228200Y-52243600D01*
X156246000Y-52235200D01*
X156247500Y-52234700D01*
X156247500Y-51554600D01*
X155937900Y-51245000D01*
X150430300Y-51245000D01*
X150429800Y-51246500D01*
X150421400Y-51264300D01*
X150411300Y-51281100D01*
X150399600Y-51296900D01*
X150386400Y-51311400D01*
X150371900Y-51324600D01*
X150356100Y-51336300D01*
X150339300Y-51346400D01*
X150321500Y-51354800D01*
X150303100Y-51361400D01*
X150284000Y-51366200D01*
X150264600Y-51369000D01*
X150245000Y-51370000D01*
X149745000Y-51370000D01*
X149725400Y-51369000D01*
X149706000Y-51366200D01*
X149695700Y-51363600D01*
X149716200Y-51378800D01*
X149739800Y-51400200D01*
X149761200Y-51423800D01*
X149780200Y-51449400D01*
X149796600Y-51476800D01*
X149810300Y-51505600D01*
X149821000Y-51535700D01*
X149828800Y-51566600D01*
X149833400Y-51598100D01*
X149835000Y-51630000D01*
X149835000Y-53234700D01*
X149836500Y-53235200D01*
X149854300Y-53243600D01*
X149871100Y-53253700D01*
X149886900Y-53265400D01*
X149901400Y-53278600D01*
X149914600Y-53293100D01*
X149926300Y-53308900D01*
X149936400Y-53325700D01*
X149944800Y-53343500D01*
X149951400Y-53361900D01*
X149956200Y-53381000D01*
X149959000Y-53400400D01*
X149960000Y-53420000D01*
X149960000Y-53920000D01*
X149959000Y-53939600D01*
X149956200Y-53959000D01*
X149951400Y-53978100D01*
X149944800Y-53996500D01*
X149936400Y-54014300D01*
X149926300Y-54031100D01*
X149914600Y-54046900D01*
X149901400Y-54061400D01*
X149886900Y-54074600D01*
X149871100Y-54086300D01*
X149854300Y-54096400D01*
X149836500Y-54104800D01*
X149818100Y-54111400D01*
X149799000Y-54116200D01*
X149779600Y-54119000D01*
X149760000Y-54120000D01*
X149260000Y-54120000D01*
X149240400Y-54119000D01*
X149221000Y-54116200D01*
X149201900Y-54111400D01*
X149183500Y-54104800D01*
X149165700Y-54096400D01*
X149148900Y-54086300D01*
X149133100Y-54074600D01*
X149118600Y-54061400D01*
X149105400Y-54046900D01*
X149093700Y-54031100D01*
X149083600Y-54014300D01*
X149075200Y-53996500D01*
X149068600Y-53978100D01*
X149063800Y-53959000D01*
X149061000Y-53939600D01*
X149060000Y-53920000D01*
X149060000Y-53420000D01*
X149061000Y-53400400D01*
X149063800Y-53381000D01*
X149068600Y-53361900D01*
X149075200Y-53343500D01*
X149083600Y-53325700D01*
X149093700Y-53308900D01*
X149105400Y-53293100D01*
X149118600Y-53278600D01*
X149133100Y-53265400D01*
X149148900Y-53253700D01*
X149165700Y-53243600D01*
X149183500Y-53235200D01*
X149185000Y-53234700D01*
X149185000Y-51955000D01*
X147105000Y-51955000D01*
X147073100Y-51953400D01*
X147041600Y-51948800D01*
X147010700Y-51941000D01*
X146980600Y-51930300D01*
X146951800Y-51916600D01*
X146924400Y-51900200D01*
X146898800Y-51881200D01*
X146890700Y-51873900D01*
X146890200Y-51874500D01*
X146312300Y-52465300D01*
X146492600Y-52641700D01*
X146436200Y-56870000D01*
X146136200Y-57170000D01*
X145447400Y-57157000D01*
X145147000Y-57457400D01*
X145072900Y-60052400D01*
X144763900Y-60352200D01*
X144433700Y-60350700D01*
X144431000Y-60920100D01*
X144430900Y-60921200D01*
X144449000Y-60923800D01*
X144468100Y-60928600D01*
X144486500Y-60935200D01*
X144504300Y-60943600D01*
X144521100Y-60953700D01*
X144536900Y-60965400D01*
X144551400Y-60978600D01*
X144564600Y-60993100D01*
X144576300Y-61008900D01*
X144586400Y-61025700D01*
X144594800Y-61043500D01*
X144595300Y-61045000D01*
X148324700Y-61045000D01*
X148325200Y-61043500D01*
X148333600Y-61025700D01*
X148343700Y-61008900D01*
X148355400Y-60993100D01*
X148368600Y-60978600D01*
X148383100Y-60965400D01*
X148398900Y-60953700D01*
X148415700Y-60943600D01*
X148433500Y-60935200D01*
X148451900Y-60928600D01*
X148471000Y-60923800D01*
X148490400Y-60921000D01*
X148510000Y-60920000D01*
X149010000Y-60920000D01*
X149029600Y-60921000D01*
X149049000Y-60923800D01*
X149068100Y-60928600D01*
X149086500Y-60935200D01*
X149104300Y-60943600D01*
X149121100Y-60953700D01*
X149136900Y-60965400D01*
X149151400Y-60978600D01*
X149164600Y-60993100D01*
X149176300Y-61008900D01*
X149186400Y-61025700D01*
X149194800Y-61043500D01*
X149201400Y-61061900D01*
X149206200Y-61081000D01*
X149209000Y-61100400D01*
X149210000Y-61120000D01*
X149210000Y-61620000D01*
X149209000Y-61639600D01*
X149206200Y-61659000D01*
X149201400Y-61678100D01*
X149194800Y-61696500D01*
X149186400Y-61714300D01*
X149176300Y-61731100D01*
X149164600Y-61746900D01*
X149151400Y-61761400D01*
X149136900Y-61774600D01*
X149121100Y-61786300D01*
X149104300Y-61796400D01*
X149086500Y-61804800D01*
X149068100Y-61811400D01*
X149049000Y-61816200D01*
X149029600Y-61819000D01*
X149010000Y-61820000D01*
X148510000Y-61820000D01*
X148490400Y-61819000D01*
X148471000Y-61816200D01*
X148451900Y-61811400D01*
X148433500Y-61804800D01*
X148415700Y-61796400D01*
X148398900Y-61786300D01*
X148383100Y-61774600D01*
X148368600Y-61761400D01*
X148355400Y-61746900D01*
X148343700Y-61731100D01*
X148333600Y-61714300D01*
X148325200Y-61696500D01*
X148324700Y-61695000D01*
X144595300Y-61695000D01*
X144594800Y-61696500D01*
X144586400Y-61714300D01*
X144576300Y-61731100D01*
X144564600Y-61746900D01*
X144551400Y-61761400D01*
X144536900Y-61774600D01*
X144521100Y-61786300D01*
X144504300Y-61796400D01*
X144486500Y-61804800D01*
X144468100Y-61811400D01*
X144449000Y-61816200D01*
X144429600Y-61819000D01*
X144410000Y-61820000D01*
X144071000Y-61820000D01*
X144560000Y-61820000D01*
X144579600Y-61821000D01*
X144599000Y-61823800D01*
X144618100Y-61828600D01*
X144636500Y-61835200D01*
X144654300Y-61843600D01*
X144671100Y-61853700D01*
X144686900Y-61865400D01*
X144701400Y-61878600D01*
X144714600Y-61893100D01*
X144726300Y-61908900D01*
X144736400Y-61925700D01*
X144744800Y-61943500D01*
X144745300Y-61945000D01*
X145824700Y-61945000D01*
X145825200Y-61943500D01*
X145833600Y-61925700D01*
X145843700Y-61908900D01*
X145855400Y-61893100D01*
X145868600Y-61878600D01*
X145883100Y-61865400D01*
X145898900Y-61853700D01*
X145915700Y-61843600D01*
X145933500Y-61835200D01*
X145951900Y-61828600D01*
X145971000Y-61823800D01*
X145990400Y-61821000D01*
X146010000Y-61820000D01*
X146510000Y-61820000D01*
X146529600Y-61821000D01*
X146549000Y-61823800D01*
X146568100Y-61828600D01*
X146586500Y-61835200D01*
X146604300Y-61843600D01*
X146621100Y-61853700D01*
X146636900Y-61865400D01*
X146651400Y-61878600D01*
X146664600Y-61893100D01*
X146676300Y-61908900D01*
X146686400Y-61925700D01*
X146694800Y-61943500D01*
X146701400Y-61961900D01*
X146706200Y-61981000D01*
X146709000Y-62000400D01*
X146710000Y-62020000D01*
X146710000Y-62520000D01*
X146709000Y-62539600D01*
X146706200Y-62559000D01*
X146701400Y-62578100D01*
X146694800Y-62596500D01*
X146686400Y-62614300D01*
X146676300Y-62631100D01*
X146664600Y-62646900D01*
X146651400Y-62661400D01*
X146636900Y-62674600D01*
X146621100Y-62686300D01*
X146604300Y-62696400D01*
X146586500Y-62704800D01*
X146568100Y-62711400D01*
X146549000Y-62716200D01*
X146529600Y-62719000D01*
X146510000Y-62720000D01*
X146010000Y-62720000D01*
X145990400Y-62719000D01*
X145971000Y-62716200D01*
X145951900Y-62711400D01*
X145933500Y-62704800D01*
X145915700Y-62696400D01*
X145898900Y-62686300D01*
X145883100Y-62674600D01*
X145868600Y-62661400D01*
X145855400Y-62646900D01*
X145843700Y-62631100D01*
X145833600Y-62614300D01*
X145825200Y-62596500D01*
X145824700Y-62595000D01*
X144745300Y-62595000D01*
X144744800Y-62596500D01*
X144736400Y-62614300D01*
X144726300Y-62631100D01*
X144714600Y-62646900D01*
X144701400Y-62661400D01*
X144686900Y-62674600D01*
X144671100Y-62686300D01*
X144654300Y-62696400D01*
X144636500Y-62704800D01*
X144618100Y-62711400D01*
X144599000Y-62716200D01*
X144579600Y-62719000D01*
X144560000Y-62720000D01*
X144060000Y-62720000D01*
X144040400Y-62719000D01*
X144021000Y-62716200D01*
X144001900Y-62711400D01*
X143983500Y-62704800D01*
X143965700Y-62696400D01*
X143948900Y-62686300D01*
X143933100Y-62674600D01*
X143918600Y-62661400D01*
X143905400Y-62646900D01*
X143893700Y-62631100D01*
X143883600Y-62614300D01*
X143875200Y-62596500D01*
X143868600Y-62578100D01*
X143863800Y-62559000D01*
X143861000Y-62539600D01*
X143860000Y-62520000D01*
X143860000Y-62020000D01*
X143861000Y-62000400D01*
X143863800Y-61981000D01*
X143868600Y-61961900D01*
X143875200Y-61943500D01*
X143883600Y-61925700D01*
X143893700Y-61908900D01*
X143905400Y-61893100D01*
X143918600Y-61878600D01*
X143933100Y-61865400D01*
X143948900Y-61853700D01*
X143965700Y-61843600D01*
X143983500Y-61835200D01*
X144001900Y-61828600D01*
X144021000Y-61823800D01*
X144040400Y-61821000D01*
X144049000Y-61820500D01*
X144049000Y-61820000D01*
X143910000Y-61820000D01*
X143890400Y-61819000D01*
X143871000Y-61816200D01*
X143851900Y-61811400D01*
X143833500Y-61804800D01*
X143815700Y-61796400D01*
X143798900Y-61786300D01*
X143783100Y-61774600D01*
X143768600Y-61761400D01*
X143755400Y-61746900D01*
X143743700Y-61731100D01*
X143733600Y-61714300D01*
X143725200Y-61696500D01*
X143718600Y-61678100D01*
X143713800Y-61659000D01*
X143711000Y-61639600D01*
X143710000Y-61620000D01*
X143710000Y-61120000D01*
X143711000Y-61100400D01*
X143713800Y-61081000D01*
X143718600Y-61061900D01*
X143725200Y-61043500D01*
X143733600Y-61025700D01*
X143743700Y-61008900D01*
X143755400Y-60993100D01*
X143768600Y-60978600D01*
X143783100Y-60965400D01*
X143798900Y-60953700D01*
X143815700Y-60943600D01*
X143833500Y-60935200D01*
X143851900Y-60928600D01*
X143871000Y-60923800D01*
X143890400Y-60921000D01*
X143910000Y-60920000D01*
X144389000Y-60920000D01*
X144389000Y-60919900D01*
X144391700Y-60350500D01*
X142950600Y-60343700D01*
X142634700Y-60038100D01*
X142644600Y-56180000D01*
X142942500Y-55879600D01*
X143232600Y-55580000D01*
X143269600Y-53876700D01*
X141624500Y-53841000D01*
X141623500Y-53840900D01*
X141622400Y-53840700D01*
X141621400Y-53840500D01*
X141620400Y-53840100D01*
X141619400Y-53839600D01*
X141618500Y-53839000D01*
X141617600Y-53838300D01*
X141616800Y-53837600D01*
X141616100Y-53836800D01*
X141615500Y-53835900D01*
X141615000Y-53835000D01*
X141614500Y-53834000D01*
X141614200Y-53833000D01*
X141614000Y-53831900D01*
X141613800Y-53831100D01*
X141322900Y-54120000D01*
X138456000Y-54120000D01*
X138456000Y-54870000D01*
X141435000Y-54870000D01*
X141454600Y-54871000D01*
X141474000Y-54873800D01*
X141493100Y-54878600D01*
X141511500Y-54885200D01*
X141529300Y-54893600D01*
X141546100Y-54903700D01*
X141561900Y-54915400D01*
X141576400Y-54928600D01*
X141589600Y-54943100D01*
X141601300Y-54958900D01*
X141611400Y-54975700D01*
X141619800Y-54993500D01*
X141626400Y-55011900D01*
X141631200Y-55031000D01*
X141634000Y-55050400D01*
X141635000Y-55070000D01*
X141635000Y-58070000D01*
X141634000Y-58089600D01*
X141631200Y-58109000D01*
X141626400Y-58128100D01*
X141619800Y-58146500D01*
X141611400Y-58164300D01*
X141601300Y-58181100D01*
X141589600Y-58196900D01*
X141576400Y-58211400D01*
X141561900Y-58224600D01*
X141546100Y-58236300D01*
X141529300Y-58246400D01*
X141511500Y-58254800D01*
X141493100Y-58261400D01*
X141474000Y-58266200D01*
X141454600Y-58269000D01*
X141435000Y-58270000D01*
X138435000Y-58270000D01*
X138415400Y-58269000D01*
X138396000Y-58266200D01*
X138376900Y-58261400D01*
X138358500Y-58254800D01*
X138340700Y-58246400D01*
X138323900Y-58236300D01*
X138308100Y-58224600D01*
X138293600Y-58211400D01*
X138280400Y-58196900D01*
X138268700Y-58181100D01*
X138258600Y-58164300D01*
X138250200Y-58146500D01*
X138243600Y-58128100D01*
X138238800Y-58109000D01*
X138236000Y-58089600D01*
X138235000Y-58070000D01*
X138235000Y-55070000D01*
X138236000Y-55050400D01*
X138238800Y-55031000D01*
X138243600Y-55011900D01*
X138250200Y-54993500D01*
X138258600Y-54975700D01*
X138268700Y-54958900D01*
X138280400Y-54943100D01*
X138293600Y-54928600D01*
X138308100Y-54915400D01*
X138323900Y-54903700D01*
X138340700Y-54893600D01*
X138358500Y-54885200D01*
X138376900Y-54878600D01*
X138396000Y-54873800D01*
X138414100Y-54871200D01*
X138414100Y-54871100D01*
X138414000Y-54870000D01*
X138414000Y-54120000D01*
X137405000Y-54120000D01*
X137105000Y-54420000D01*
X137095000Y-58830000D01*
X137410900Y-59130000D01*
X137609900Y-59131900D01*
X137929300Y-59436200D01*
X137935000Y-63360000D01*
X138235000Y-63660000D01*
X138385000Y-63660000D01*
X138685000Y-63960000D01*
X138685000Y-64470000D01*
X140885000Y-64470000D01*
X140885000Y-63960000D01*
X141185000Y-63660000D01*
X142885000Y-63660000D01*
X143185000Y-63960000D01*
X143185000Y-64470000D01*
X144885000Y-64470000D01*
X144885000Y-63960000D01*
X145185000Y-63660000D01*
X146385000Y-63660000D01*
G37*
%TD.AperFunction*%
%TD*%
M02*
